<svg width="20" height="18" viewBox="0 0 20 18" fill="none" xmlns="http://www.w3.org/2000/svg">
<path d="M19.7504 16.6869H10.6659V2.9472C10.6659 2.80919 10.554 2.69752 10.4162 2.69752H9.48684V2.49286H9.82658C9.96443 2.49286 10.0763 2.38102 10.0763 2.24317V1.06414C10.0763 0.92613 9.96443 0.814453 9.82658 0.814453H3.93128C3.79327 0.814453 3.6816 0.92613 3.6816 1.06414V2.24317C3.6816 2.38102 3.79327 2.49286 3.93128 2.49286H4.27103V2.69752H3.34169C3.20368 2.69752 3.092 2.80919 3.092 2.9472V15.4558C2.84264 15.528 2.63863 15.7076 2.53524 15.9458C2.43202 16.1838 2.44015 16.4555 2.55768 16.6869H2.2441C2.43023 16.3193 2.33448 15.8715 2.01392 15.6124C1.69352 15.3532 1.23543 15.3532 0.915035 15.6124C0.594472 15.8715 0.498726 16.3193 0.685016 16.6869H0.249688C0.111839 16.6869 0 16.7987 0 16.9366C0 17.0746 0.111839 17.1862 0.249688 17.1862H19.7504C19.8882 17.1862 20.0001 17.0746 20.0001 16.9366C20.0001 16.7987 19.8882 16.6869 19.7504 16.6869ZM1.46448 15.9196C1.67141 15.9196 1.83901 16.0872 1.83901 16.2941C1.83901 16.5009 1.67141 16.6687 1.46448 16.6687C1.25771 16.6687 1.08995 16.5009 1.08995 16.2941C1.09027 16.0874 1.25771 15.9198 1.46448 15.9196ZM5.2098 15.9196C5.41673 15.9196 5.58433 16.0872 5.58433 16.2941C5.58433 16.5009 5.41673 16.6687 5.2098 16.6687C5.00302 16.6687 4.83526 16.5009 4.83526 16.2941C4.83559 16.0874 5.00302 15.9198 5.2098 15.9196ZM5.36 15.434V13.8086H6.62925V16.6869H5.98942C6.11459 16.4403 6.11524 16.1488 5.99105 15.9016C5.86685 15.6543 5.63261 15.4807 5.36 15.434ZM6.62925 3.19689V4.46614H5.36V3.19689H6.62925ZM10.1665 13.3093H8.89724V12.04H10.1665V13.3093ZM7.12862 8.00338V6.73414H8.39787V8.00338H7.12862ZM8.39787 8.50276V9.77201H7.12862V8.50276H8.39787ZM6.62925 8.00338H5.36V6.73414H6.62925V8.00338ZM6.62925 8.50276V9.77201H5.36V8.50276H6.62925ZM6.62925 10.2714V11.5406H5.36V10.2714H6.62925ZM7.12862 10.2714H8.39787V11.5406H7.12862V10.2714ZM8.39787 12.04V13.3093H7.12862V12.04H8.39787ZM10.1665 11.5406H8.89724V10.2714H10.1665V11.5406ZM10.1665 9.77201H8.89724V8.50276H10.1665V9.77201ZM10.1665 8.00338H8.89724V6.73414H10.1665V8.00338ZM10.1665 6.23476H8.89724V4.96551H10.1665V6.23476ZM8.39787 6.23476H7.12862V4.96551H8.39787V6.23476ZM7.12862 4.46614V3.19689H8.39787V4.46614H7.12862ZM6.62925 4.96551V6.23476H5.36V4.96551H6.62925ZM4.86062 6.23476H3.59138V4.96551H4.86062V6.23476ZM4.86062 6.73414V8.00338H3.59138V6.73414H4.86062ZM4.86062 8.50276V9.77201H3.59138V8.50276H4.86062ZM4.86062 10.2714V11.5406H3.59138V10.2714H4.86062ZM4.86062 12.04V13.3093H3.59138V12.04H4.86062ZM5.36 12.04H6.62925V13.3093H5.36V12.04ZM7.12862 13.8086H8.39787V16.6869H7.12862V13.8086ZM8.89724 13.8086H10.1665V16.6869H8.89724V13.8086ZM10.1665 4.46614H8.89724V3.19689H10.1665V4.46614ZM4.18097 1.31383H9.5769V1.99348H4.18097V1.31383ZM4.7704 2.49286H8.98746V2.69752H4.7704V2.49286ZM4.86062 3.19689V4.46614H3.59138V3.19689H4.86062ZM3.33714 15.9196C3.54407 15.9196 3.71167 16.0872 3.71167 16.2941C3.71167 16.5009 3.54407 16.6687 3.33714 16.6687C3.13036 16.6687 2.96261 16.5009 2.96261 16.2941C2.96293 16.0874 3.13036 15.9198 3.33714 15.9196ZM3.59138 15.4581V13.8086H4.86062V15.4935C4.6402 15.589 4.46902 15.7712 4.38758 15.9971C4.30614 16.2231 4.32158 16.4728 4.43033 16.6869H4.11676C4.23348 16.4568 4.24226 16.187 4.14098 15.9498C4.03955 15.7127 3.8383 15.5327 3.59138 15.4581Z" fill="#003050" fill-opacity="0.7"/>
</svg>
