<svg width="181" height="55" viewBox="0 0 181 55" fill="none" xmlns="http://www.w3.org/2000/svg">
<path d="M-0.9 20C-0.9 9.00953 8.00953 0.1 19 0.1H180.9V55.9H-0.9V20Z" fill="#003050" stroke="white" stroke-width="0.2"/>
<path opacity="0.75" d="M74.1841 33C74.0775 33 73.9921 32.968 73.9281 32.904C73.8641 32.84 73.8321 32.7547 73.8321 32.648V27.848C73.8321 25.8107 72.8135 24.792 70.7761 24.792H68.0241C67.9175 24.792 67.8321 24.76 67.7681 24.696C67.7041 24.632 67.6721 24.5467 67.6721 24.44V24.216C67.6721 24.1093 67.7041 24.024 67.7681 23.96C67.8321 23.896 67.9175 23.864 68.0241 23.864H70.8561C72.1895 23.864 73.1815 24.2 73.8321 24.872C74.4828 25.5333 74.8081 26.4987 74.8081 27.768V32.648C74.8081 32.7547 74.7761 32.84 74.7121 32.904C74.6481 32.968 74.5628 33 74.4561 33H74.1841ZM68.0241 33C67.9175 33 67.8321 32.968 67.7681 32.904C67.7041 32.84 67.6721 32.7547 67.6721 32.648V27.032C67.6721 26.9253 67.7041 26.84 67.7681 26.776C67.8321 26.712 67.9175 26.68 68.0241 26.68H68.2961C68.4028 26.68 68.4881 26.712 68.5521 26.776C68.6161 26.84 68.6481 26.9253 68.6481 27.032V32.648C68.6481 32.7547 68.6161 32.84 68.5521 32.904C68.4881 32.968 68.4028 33 68.2961 33H68.0241ZM82.3283 33C82.2216 33 82.1363 32.968 82.0723 32.904C82.0083 32.84 81.9763 32.7547 81.9763 32.648V27.848C81.9763 25.8107 80.9576 24.792 78.9203 24.792H76.9683C76.8616 24.792 76.7763 24.76 76.7122 24.696C76.6483 24.632 76.6163 24.5467 76.6163 24.44V24.216C76.6163 24.1093 76.6483 24.024 76.7122 23.96C76.7763 23.896 76.8616 23.864 76.9683 23.864H79.0003C80.3336 23.864 81.3256 24.2 81.9763 24.872C82.6269 25.5333 82.9523 26.4987 82.9523 27.768V32.648C82.9523 32.7547 82.9203 32.84 82.8563 32.904C82.7923 32.968 82.7069 33 82.6003 33H82.3283ZM85.7711 29.32C85.6645 29.32 85.5791 29.288 85.5151 29.224C85.4511 29.16 85.4191 29.0747 85.4191 28.968V24.216C85.4191 24.1093 85.4511 24.024 85.5151 23.96C85.5791 23.896 85.6645 23.864 85.7711 23.864H86.0431C86.1498 23.864 86.2351 23.896 86.2991 23.96C86.3631 24.024 86.3951 24.1093 86.3951 24.216V28.968C86.3951 29.0747 86.3631 29.16 86.2991 29.224C86.2351 29.288 86.1498 29.32 86.0431 29.32H85.7711ZM95.3534 23.864C95.46 23.864 95.5454 23.896 95.6094 23.96C95.6734 24.024 95.7054 24.1093 95.7054 24.216V24.44C95.7054 24.5467 95.6734 24.632 95.6094 24.696C95.5454 24.76 95.46 24.792 95.3534 24.792H94.3294C94.1587 24.9413 94.0254 25.1867 93.9294 25.528C93.844 25.8587 93.8014 26.2427 93.8014 26.68V32.648C93.8014 32.7547 93.7694 32.84 93.7054 32.904C93.6414 32.968 93.556 33 93.4494 33H93.1774C93.0707 33 92.9854 32.968 92.9214 32.904C92.8574 32.84 92.8254 32.7547 92.8254 32.648V26.6C92.8254 26.184 92.8627 25.816 92.9374 25.496C93.0227 25.176 93.1294 24.9413 93.2574 24.792H88.6014C88.4947 24.792 88.4094 24.76 88.3454 24.696C88.2814 24.632 88.2494 24.5467 88.2494 24.44V24.216C88.2494 24.1093 88.2814 24.024 88.3454 23.96C88.4094 23.896 88.4947 23.864 88.6014 23.864H95.3534ZM105.274 23.864C106.607 23.864 107.599 24.2 108.25 24.872C108.901 25.5333 109.226 26.4987 109.226 27.768V32.648C109.226 32.7547 109.194 32.84 109.13 32.904C109.066 32.968 108.981 33 108.874 33H108.602C108.495 33 108.41 32.968 108.346 32.904C108.282 32.84 108.25 32.7547 108.25 32.648V27.848C108.25 25.8107 107.231 24.792 105.194 24.792H103.978C103.871 25.56 103.791 26.1787 103.738 26.648C103.695 27.1173 103.679 27.6507 103.69 28.248V32.648C103.69 32.7547 103.658 32.84 103.594 32.904C103.53 32.968 103.445 33 103.338 33L101.514 32.968C101.407 32.968 101.322 32.936 101.258 32.872C101.194 32.808 101.162 32.7227 101.162 32.616V32.392C101.162 32.2853 101.194 32.2 101.258 32.136C101.322 32.072 101.407 32.04 101.514 32.04L102.714 32.056V28.328V27.832C102.714 27.2453 102.735 26.7333 102.778 26.296C102.821 25.848 102.901 25.3467 103.018 24.792H102.202C102.095 24.792 102.01 24.76 101.946 24.696C101.882 24.632 101.85 24.5467 101.85 24.44V24.216C101.85 24.1093 101.882 24.024 101.946 23.96C102.01 23.896 102.095 23.864 102.202 23.864H105.274ZM112.805 26.312C112.805 26.8133 112.858 27.208 112.965 27.496C113.071 27.7733 113.258 27.944 113.525 28.008L114.181 28.168C114.362 28.2213 114.453 28.392 114.453 28.68V28.904C114.453 28.9893 114.415 29.0533 114.341 29.096C114.277 29.1387 114.191 29.16 114.085 29.16C114.031 29.16 113.989 29.1547 113.957 29.144L113.349 29C112.837 28.8827 112.458 28.6053 112.213 28.168C111.967 27.7307 111.845 27.112 111.845 26.312V24.216C111.845 24.1093 111.877 24.024 111.941 23.96C112.005 23.896 112.09 23.864 112.197 23.864H115.061C116.159 23.864 116.997 24.2053 117.573 24.888C118.159 25.56 118.469 26.52 118.501 27.768C118.511 27.8747 118.517 28.0933 118.517 28.424C118.517 28.7653 118.511 28.9893 118.501 29.096C118.469 30.344 118.159 31.3093 117.573 31.992C116.997 32.664 116.159 33 115.061 33H112.405C112.298 33 112.213 32.968 112.149 32.904C112.085 32.84 112.053 32.7547 112.053 32.648V32.424C112.053 32.3173 112.085 32.232 112.149 32.168C112.213 32.104 112.298 32.072 112.405 32.072H114.981C115.791 32.072 116.405 31.8107 116.821 31.288C117.247 30.7547 117.482 29.9973 117.525 29.016C117.535 28.9093 117.541 28.712 117.541 28.424C117.541 28.1467 117.535 27.9547 117.525 27.848C117.503 26.8773 117.274 26.1253 116.837 25.592C116.41 25.0587 115.791 24.792 114.981 24.792H112.805V26.312ZM124.524 33.16C123.255 33.16 122.306 32.824 121.676 32.152C121.047 31.4693 120.732 30.4773 120.732 29.176V24.216C120.732 24.1093 120.764 24.024 120.828 23.96C120.892 23.896 120.978 23.864 121.084 23.864H124.844C126.167 23.864 127.116 24.168 127.692 24.776C128.268 25.384 128.583 26.328 128.636 27.608C128.647 27.7147 128.652 28.0133 128.652 28.504C128.652 29.0053 128.647 29.3093 128.636 29.416C128.604 30.6853 128.263 31.6293 127.612 32.248C126.962 32.856 125.932 33.16 124.524 33.16ZM124.524 32.232C125.623 32.232 126.412 31.9973 126.892 31.528C127.383 31.048 127.639 30.3173 127.66 29.336C127.671 29.2293 127.676 28.952 127.676 28.504C127.676 28.0667 127.671 27.7947 127.66 27.688C127.639 26.7493 127.367 26.0347 126.844 25.544C126.322 25.0427 125.628 24.792 124.764 24.792H121.708V29.176C121.708 30.1573 121.943 30.9147 122.412 31.448C122.882 31.9707 123.586 32.232 124.524 32.232ZM131.305 33C131.199 33 131.113 32.968 131.049 32.904C130.985 32.84 130.953 32.7547 130.953 32.648V24.216C130.953 24.1093 130.985 24.024 131.049 23.96C131.113 23.896 131.199 23.864 131.305 23.864H131.577C131.684 23.864 131.769 23.896 131.833 23.96C131.897 24.024 131.929 24.1093 131.929 24.216V32.648C131.929 32.7547 131.897 32.84 131.833 32.904C131.769 32.968 131.684 33 131.577 33H131.305ZM141.122 33C141.015 33 140.93 32.968 140.866 32.904C140.802 32.84 140.77 32.7547 140.77 32.648V27.848C140.77 25.8107 139.751 24.792 137.714 24.792H134.962C134.855 24.792 134.77 24.76 134.706 24.696C134.642 24.632 134.61 24.5467 134.61 24.44V24.216C134.61 24.1093 134.642 24.024 134.706 23.96C134.77 23.896 134.855 23.864 134.962 23.864H137.794C139.127 23.864 140.119 24.2 140.77 24.872C141.42 25.5333 141.746 26.4987 141.746 27.768V32.648C141.746 32.7547 141.714 32.84 141.65 32.904C141.586 32.968 141.5 33 141.394 33H141.122ZM134.962 33C134.855 33 134.77 32.968 134.706 32.904C134.642 32.84 134.61 32.7547 134.61 32.648V27.032C134.61 26.9253 134.642 26.84 134.706 26.776C134.77 26.712 134.855 26.68 134.962 26.68H135.234C135.34 26.68 135.426 26.712 135.49 26.776C135.554 26.84 135.586 26.9253 135.586 27.032V32.648C135.586 32.7547 135.554 32.84 135.49 32.904C135.426 32.968 135.34 33 135.234 33H134.962Z" fill="white"/>
<g opacity="0.6" clip-path="url(#clip0)">
<path d="M51.8542 26.7083C49.0169 26.7083 46.7084 29.0168 46.7084 31.8542C46.7084 34.6915 49.0169 37 51.8542 37C54.6915 37 57 34.6915 57 31.8542C57 29.0168 54.6915 26.7083 51.8542 26.7083ZM53.8334 32.6458H52.6459V33.8333C52.6459 34.2703 52.2912 34.625 51.8542 34.625C51.4172 34.625 51.0625 34.2703 51.0625 33.8333V32.6458H49.875C49.438 32.6458 49.0834 32.2912 49.0834 31.8542C49.0834 31.4172 49.438 31.0625 49.875 31.0625H51.0625V29.875C51.0625 29.438 51.4172 29.0833 51.8542 29.0833C52.2912 29.0833 52.6459 29.438 52.6459 29.875V31.0625H53.8334C54.2704 31.0625 54.625 31.4172 54.625 31.8542C54.625 32.2912 54.2704 32.6458 53.8334 32.6458Z" fill="#1AD769"/>
<path d="M51.4583 22.7182V19.5848C51.4583 19.1478 51.1037 18.7931 50.6667 18.7931C50.2297 18.7931 49.875 19.1478 49.875 19.5848V21.1697L46.8659 18.2271C46.5579 17.9262 46.0663 17.927 45.7591 18.2271L38.3507 25.4692C38.1282 25.6917 38 26.0004 38 26.3139C38 26.9687 38.5328 27.5014 39.1875 27.5014H40.375V31.8556C40.375 32.9465 41.2632 33.8348 42.3542 33.8348H44.3333C44.7703 33.8348 45.125 33.4801 45.125 33.0431C45.125 32.6061 44.7703 32.2514 44.3333 32.2514H42.3542C42.1357 32.2514 41.9583 32.0741 41.9583 31.8556V26.7098C41.9583 26.2728 41.6037 25.9181 41.1667 25.9181H40.1565L46.3125 19.8999L51.4987 24.9713C51.8122 25.2777 52.3125 25.2713 52.6181 24.9586C52.9237 24.6459 52.9182 24.1448 52.6055 23.8392L51.4583 22.7182Z" fill="white"/>
</g>
<defs>
<clipPath id="clip0">
<rect width="19" height="19" fill="white" transform="translate(38 18)"/>
</clipPath>
</defs>
</svg>
