<svg width="181" height="56" viewBox="0 0 181 56" fill="none" xmlns="http://www.w3.org/2000/svg">
<path d="M-0.9 20C-0.9 9.00953 8.00953 0.1 19 0.1H180.9V55.9H-0.9V20Z" fill="#003050" stroke="white" stroke-width="0.2"/>
<path d="M72.4873 33C72.3806 33 72.2899 32.9627 72.2153 32.888C72.1406 32.8133 72.1033 32.7227 72.1033 32.616V27.848C72.1033 26.3333 71.3459 25.576 69.8313 25.576H66.5193C66.4126 25.576 66.3219 25.5387 66.2473 25.464C66.1726 25.3893 66.1353 25.2987 66.1353 25.192V24.248C66.1353 24.1307 66.1726 24.04 66.2473 23.976C66.3219 23.9013 66.4126 23.864 66.5193 23.864H69.9113C72.7379 23.864 74.1513 25.1867 74.1513 27.832V32.616C74.1513 32.7227 74.1139 32.8133 74.0393 32.888C73.9753 32.9627 73.8846 33 73.7673 33H72.4873ZM66.5193 33C66.4126 33 66.3219 32.9627 66.2473 32.888C66.1726 32.8133 66.1353 32.7227 66.1353 32.616V27.592C66.1353 27.4747 66.1726 27.384 66.2473 27.32C66.3219 27.2453 66.4126 27.208 66.5193 27.208H67.7993C67.9166 27.208 68.0073 27.2453 68.0713 27.32C68.1459 27.384 68.1833 27.4747 68.1833 27.592V32.616C68.1833 32.7227 68.1459 32.8133 68.0713 32.888C68.0073 32.9627 67.9166 33 67.7993 33H66.5193ZM80.9234 33C80.8167 33 80.726 32.9627 80.6514 32.888C80.5767 32.8133 80.5394 32.7227 80.5394 32.616V27.848C80.5394 26.3333 79.7767 25.576 78.2514 25.576H76.0114C75.9047 25.576 75.814 25.5387 75.7394 25.464C75.6647 25.3893 75.6274 25.2987 75.6274 25.192V24.248C75.6274 24.1307 75.6647 24.04 75.7394 23.976C75.814 23.9013 75.9047 23.864 76.0114 23.864H78.3474C79.766 23.864 80.8274 24.184 81.5314 24.824C82.2354 25.4533 82.5874 26.4347 82.5874 27.768V32.616C82.5874 32.7227 82.55 32.8133 82.4754 32.888C82.4114 32.9627 82.3207 33 82.2034 33H80.9234ZM84.9858 29.256C84.8791 29.256 84.7884 29.2187 84.7138 29.144C84.6391 29.0693 84.6018 28.9787 84.6018 28.872V24.248C84.6018 24.1307 84.6391 24.04 84.7138 23.976C84.7884 23.9013 84.8791 23.864 84.9858 23.864H86.3458C86.4524 23.864 86.5431 23.9013 86.6178 23.976C86.6924 24.0507 86.7298 24.1413 86.7298 24.248V28.872C86.7298 28.9787 86.6924 29.0693 86.6178 29.144C86.5431 29.2187 86.4524 29.256 86.3458 29.256H84.9858ZM95.6384 23.864C95.7557 23.864 95.8464 23.9013 95.9104 23.976C95.985 24.04 96.0224 24.1307 96.0224 24.248V25.192C96.0224 25.2987 95.985 25.3893 95.9104 25.464C95.8464 25.5387 95.7557 25.576 95.6384 25.576H94.7904C94.6517 25.7573 94.545 26.0187 94.4704 26.36C94.3957 26.7013 94.3584 27.08 94.3584 27.496V32.648C94.3584 32.744 94.3104 32.8293 94.2144 32.904C94.129 32.968 94.033 33 93.9264 33H92.6624C92.5557 33 92.4704 32.968 92.4064 32.904C92.3424 32.84 92.3104 32.7547 92.3104 32.648V27.352C92.3104 26.4987 92.433 25.9067 92.6784 25.576H88.6464C88.5397 25.576 88.449 25.5387 88.3744 25.464C88.2997 25.3893 88.2624 25.2987 88.2624 25.192V24.248C88.2624 24.1307 88.2997 24.04 88.3744 23.976C88.449 23.9013 88.5397 23.864 88.6464 23.864H95.6384ZM105.806 23.864C107.225 23.864 108.286 24.1893 108.99 24.84C109.694 25.48 110.046 26.456 110.046 27.768V32.616C110.046 32.7227 110.009 32.8133 109.934 32.888C109.87 32.9627 109.779 33 109.662 33H108.382C108.275 33 108.185 32.9627 108.11 32.888C108.035 32.8133 107.998 32.7227 107.998 32.616V27.848C107.998 26.3333 107.235 25.576 105.71 25.576H104.622C104.515 26.056 104.441 26.504 104.398 26.92C104.355 27.336 104.339 27.8053 104.35 28.328L104.43 32.616C104.43 32.7227 104.393 32.8133 104.318 32.888C104.243 32.9627 104.147 33 104.03 33L101.23 32.984C101.123 32.984 101.033 32.9467 100.958 32.872C100.883 32.7973 100.846 32.7067 100.846 32.6V31.72C100.846 31.6133 100.883 31.5227 100.958 31.448C101.033 31.3733 101.123 31.336 101.23 31.336L102.494 31.352V28.376C102.483 27.832 102.494 27.352 102.526 26.936C102.569 26.5093 102.649 26.056 102.766 25.576H101.854C101.747 25.576 101.657 25.5387 101.582 25.464C101.507 25.3893 101.47 25.2987 101.47 25.192V24.248C101.47 24.1307 101.507 24.04 101.582 23.976C101.657 23.9013 101.747 23.864 101.854 23.864H105.806ZM113.815 26.568C113.826 26.888 113.868 27.144 113.943 27.336C114.028 27.5173 114.162 27.6347 114.343 27.688L114.855 27.832C114.94 27.864 115.004 27.928 115.047 28.024C115.1 28.1093 115.127 28.2107 115.127 28.328L115.143 28.92C115.143 29.0587 115.079 29.1653 114.951 29.24C114.823 29.3147 114.674 29.3413 114.503 29.32L113.847 29.192C113.314 29.1067 112.887 28.824 112.567 28.344C112.247 27.8533 112.087 27.2187 112.087 26.44V24.248C112.098 24.1307 112.135 24.04 112.199 23.976C112.274 23.9013 112.364 23.864 112.471 23.864H115.559C116.85 23.864 117.82 24.216 118.471 24.92C119.122 25.624 119.468 26.616 119.511 27.896C119.522 28.0027 119.527 28.1787 119.527 28.424C119.527 28.68 119.522 28.8613 119.511 28.968C119.468 30.248 119.122 31.24 118.471 31.944C117.82 32.648 116.85 33 115.559 33H112.663C112.556 33 112.466 32.9627 112.391 32.888C112.316 32.8133 112.279 32.7227 112.279 32.616V31.608C112.279 31.5013 112.316 31.4107 112.391 31.336C112.466 31.2613 112.556 31.224 112.663 31.224H115.479C116.13 31.224 116.642 31.0267 117.015 30.632C117.388 30.2267 117.591 29.6613 117.623 28.936C117.634 28.8293 117.639 28.6587 117.639 28.424C117.639 28.2 117.634 28.0347 117.623 27.928C117.602 27.2027 117.399 26.6427 117.015 26.248C116.642 25.8427 116.13 25.64 115.479 25.64H113.815V26.568ZM125.417 33.16C124.041 33.16 123.007 32.8133 122.313 32.12C121.631 31.4267 121.289 30.44 121.289 29.16V24.248C121.289 24.1307 121.327 24.04 121.401 23.976C121.476 23.9013 121.567 23.864 121.673 23.864H125.641C127.092 23.864 128.132 24.184 128.761 24.824C129.391 25.4533 129.737 26.408 129.801 27.688C129.812 27.7947 129.817 28.0613 129.817 28.488C129.817 28.9253 129.812 29.1973 129.801 29.304C129.748 30.584 129.38 31.5493 128.697 32.2C128.025 32.84 126.932 33.16 125.417 33.16ZM125.417 31.384C126.281 31.384 126.889 31.2187 127.241 30.888C127.604 30.5467 127.796 29.992 127.817 29.224C127.828 29.1173 127.833 28.872 127.833 28.488C127.833 28.1147 127.828 27.8747 127.817 27.768C127.764 26.3067 127.012 25.576 125.561 25.576H123.193V29.128C123.193 29.8747 123.38 30.44 123.753 30.824C124.137 31.1973 124.692 31.384 125.417 31.384ZM132.051 33C131.944 33 131.853 32.9627 131.779 32.888C131.704 32.8133 131.667 32.7227 131.667 32.616V24.248C131.667 24.1307 131.704 24.04 131.779 23.976C131.853 23.9013 131.944 23.864 132.051 23.864H133.395C133.512 23.864 133.603 23.9013 133.667 23.976C133.741 24.04 133.779 24.1307 133.779 24.248V32.616C133.779 32.7227 133.741 32.8133 133.667 32.888C133.603 32.9627 133.512 33 133.395 33H132.051ZM142.331 33C142.224 33 142.134 32.9627 142.059 32.888C141.984 32.8133 141.947 32.7227 141.947 32.616V27.848C141.947 26.3333 141.19 25.576 139.675 25.576H136.363C136.256 25.576 136.166 25.5387 136.091 25.464C136.016 25.3893 135.979 25.2987 135.979 25.192V24.248C135.979 24.1307 136.016 24.04 136.091 23.976C136.166 23.9013 136.256 23.864 136.363 23.864H139.755C142.582 23.864 143.995 25.1867 143.995 27.832V32.616C143.995 32.7227 143.958 32.8133 143.883 32.888C143.819 32.9627 143.728 33 143.611 33H142.331ZM136.363 33C136.256 33 136.166 32.9627 136.091 32.888C136.016 32.8133 135.979 32.7227 135.979 32.616V27.592C135.979 27.4747 136.016 27.384 136.091 27.32C136.166 27.2453 136.256 27.208 136.363 27.208H137.643C137.76 27.208 137.851 27.2453 137.915 27.32C137.99 27.384 138.027 27.4747 138.027 27.592V32.616C138.027 32.7227 137.99 32.8133 137.915 32.888C137.851 32.9627 137.76 33 137.643 33H136.363Z" fill="white"/>
<g clip-path="url(#clip0)">
<path d="M51.8542 26.7083C49.0169 26.7083 46.7084 29.0168 46.7084 31.8541C46.7084 34.6915 49.0169 37 51.8542 37C54.6915 37 57 34.6915 57 31.8541C57 29.0168 54.6915 26.7083 51.8542 26.7083ZM53.8334 32.6458H52.6459V33.8333C52.6459 34.2703 52.2912 34.625 51.8542 34.625C51.4172 34.625 51.0625 34.2703 51.0625 33.8333V32.6458H49.875C49.438 32.6458 49.0834 32.2911 49.0834 31.8541C49.0834 31.4171 49.438 31.0625 49.875 31.0625H51.0625V29.875C51.0625 29.438 51.4172 29.0833 51.8542 29.0833C52.2912 29.0833 52.6459 29.438 52.6459 29.875V31.0625H53.8334C54.2704 31.0625 54.625 31.4171 54.625 31.8541C54.625 32.2911 54.2704 32.6458 53.8334 32.6458Z" fill="#1AD769"/>
<path d="M51.4583 22.7182V19.5848C51.4583 19.1478 51.1037 18.7931 50.6667 18.7931C50.2297 18.7931 49.875 19.1478 49.875 19.5848V21.1697L46.8659 18.2271C46.5579 17.9263 46.0663 17.9271 45.7591 18.2271L38.3507 25.4693C38.1282 25.6917 38 26.0005 38 26.314C38 26.9687 38.5328 27.5015 39.1875 27.5015H40.375V31.8556C40.375 32.9466 41.2632 33.8348 42.3542 33.8348H44.3333C44.7703 33.8348 45.125 33.4801 45.125 33.0431C45.125 32.6061 44.7703 32.2515 44.3333 32.2515H42.3542C42.1357 32.2515 41.9583 32.0741 41.9583 31.8556V26.7098C41.9583 26.2728 41.6037 25.9181 41.1667 25.9181H40.1565L46.3125 19.8999L51.4987 24.9713C51.8122 25.2777 52.3125 25.2713 52.6181 24.9586C52.9237 24.6459 52.9182 24.1448 52.6055 23.8392L51.4583 22.7182Z" fill="white"/>
</g>
<defs>
<clipPath id="clip0">
<rect width="19" height="19" fill="white" transform="translate(38 18)"/>
</clipPath>
</defs>
</svg>
