<svg width="274" height="152" viewBox="0 0 274 152" fill="none" xmlns="http://www.w3.org/2000/svg">
<g clip-path="url(#clip0)">
<path d="M263.303 59.1976C263.303 60.3651 262.341 60.8916 261.448 60.8916C260.989 60.8916 260.577 60.7542 260.302 60.5253C260.005 60.2735 259.844 59.9073 259.844 59.4494C259.844 58.4651 260.669 58.2591 261.356 58.2591C262.387 58.2362 263.303 58.7627 263.303 59.1976Z" fill="#1AD769" fill-opacity="0.79"/>
<path d="M204.068 103.241C203.083 103.241 202.03 103.974 202.03 105.072C202.03 106.354 203.083 107.155 204.068 107.155C205.053 107.155 205.626 106.423 205.626 105.141C205.626 104.477 205.466 103.974 205.145 103.653C204.801 103.31 204.389 103.241 204.068 103.241Z" fill="#1AD769" fill-opacity="0.79"/>
<path d="M213.574 103.218C213.093 103.218 212.658 103.378 212.337 103.676C211.971 103.996 211.788 104.477 211.788 105.118C211.788 106.583 212.979 106.995 213.689 106.995C214.536 106.995 215.544 106.514 215.544 105.141C215.544 103.859 214.536 103.218 213.574 103.218Z" fill="#1AD769" fill-opacity="0.79"/>
<path d="M224.569 103.607C224.203 103.378 223.79 103.287 223.378 103.287C223.034 103.287 222.691 103.378 222.416 103.539C221.798 103.882 221.477 104.592 221.477 105.553C221.477 106.606 222.599 107.247 223.699 107.247C224.157 107.247 225.623 107.11 225.623 105.461C225.623 104.386 224.981 103.836 224.569 103.607Z" fill="#1AD769" fill-opacity="0.79"/>
<path d="M86.1489 2.1976C85.3243 7.71446 85.1869 11.5602 85.0953 14.1012C84.9349 18.588 84.8204 18.588 82.9192 18.588C82.003 18.588 81.8655 18.3819 80.2392 10.988C79.804 9.06507 79.2772 6.66145 78.6129 3.73133C78.59 3.61687 78.6587 3.47952 78.7732 3.45663C81.1555 2.74699 83.5377 2.22049 85.897 1.9229H85.9199C86.0115 1.9229 86.0573 1.96868 86.0802 1.99157C86.1031 2.03736 86.1489 2.10603 86.1489 2.1976Z" fill="#1AD769" fill-opacity="0.79"/>
<path d="M84.3394 26.2795C84.179 26.5771 83.9042 26.7144 83.4918 26.7144C82.7589 26.7144 82.6443 25.959 82.6214 25.6385C82.5756 25.0205 82.8276 24.4024 83.1483 24.3795C83.5835 24.3337 83.9271 24.4711 84.179 24.8373C84.4997 25.2494 84.5684 25.8674 84.3394 26.2795Z" fill="#1AD769" fill-opacity="0.79"/>
<path d="M43.3378 26.8289L42.078 26.1422C41.7573 25.959 41.5283 25.6843 41.4138 25.3181C41.2992 24.9518 41.345 24.5855 41.5283 24.2651L42.2155 23.0289C42.6278 22.2735 42.3529 21.2892 41.597 20.8771L40.6808 20.3735C39.9249 19.9614 38.9399 20.2361 38.5276 20.9916L37.8404 22.2277C37.6572 22.5482 37.3823 22.7771 37.0158 22.8916C36.6722 22.9831 36.2828 22.9602 35.9622 22.7771L34.7252 22.0904C33.9464 21.6783 32.9844 21.953 32.5721 22.7084L32.0682 23.6241C31.6559 24.4024 31.9307 25.3639 32.6866 25.7759L33.9235 26.4627C34.2442 26.6458 34.4733 26.9205 34.5878 27.2867C34.7023 27.653 34.6565 28.0193 34.4733 28.3398L33.7861 29.5759C33.3738 30.3313 33.6487 31.3157 34.4046 31.7277L35.3208 32.2313C36.0996 32.6434 37.0616 32.3687 37.4739 31.6133L38.1611 30.3771C38.3444 30.0566 38.6192 29.8277 38.9857 29.7133C39.3293 29.6217 39.7187 29.6446 40.0394 29.8277L41.2763 30.5145C42.0322 30.9265 43.0172 30.6518 43.4295 29.8964L43.9334 28.9807C44.3915 28.2024 44.0937 27.241 43.3378 26.8289Z" fill="#1AD769" fill-opacity="0.79"/>
<path d="M21.9209 95.9157C22.2416 96.9916 22.5394 97.9759 22.9517 99.1205C22.9059 99.0976 22.883 99.0518 22.8372 99.0289C21.9209 98.2735 21.0734 97.5868 20.2488 96.8771C19.8136 96.5109 19.1951 96.5109 18.7828 96.8771C17.7062 97.7928 16.6068 98.6398 15.576 99.3952C15.6905 99.0289 15.828 98.6627 15.9425 98.2964C16.3548 97.0602 16.7671 95.8699 17.042 94.9313C17.2023 94.4048 16.9733 93.8325 16.4922 93.5807C15.1637 92.8711 13.9497 92.3675 13.0334 92.0012C13.881 91.8868 15.0263 91.7494 16.3319 91.6121L17.3627 91.4976C17.8437 91.4289 18.256 91.0855 18.3476 90.6048C18.8515 88.2699 19.218 87.1711 19.4471 86.6675C19.6532 87.1482 19.951 88.1096 20.3404 90.1012C20.455 90.6735 21.0047 91.0856 21.6002 91.0169C22.9288 90.8566 24.2573 90.6964 25.5859 90.5133C24.578 91.9096 23.4556 93.4205 22.1958 94.8169C21.898 95.1145 21.8064 95.5265 21.9209 95.9157Z" fill="#1AD769" fill-opacity="0.79"/>
<path d="M169.641 28.9578C169.641 29.8964 169.366 30.6518 168.862 31.1325C168.427 31.5446 167.831 31.7964 167.167 31.7964C165.93 31.7964 164.693 30.9952 164.693 29.4385C164.693 27.8132 166.365 27.0578 167.556 27.0578C168.152 27.0578 168.702 27.218 169.068 27.5385C169.435 27.859 169.641 28.3397 169.641 28.9578Z" fill="#1AD769" fill-opacity="0.79"/>
<path d="M182.376 24.288C182.079 24.7458 181.506 24.8831 181.025 24.6084L179.445 23.6928C178.986 23.4181 178.414 23.441 177.979 23.7386C177.612 23.9904 176.994 24.4024 176.467 24.7687C176.1 25.0205 175.619 24.9976 175.276 24.7L175.161 24.6084C174.703 24.2193 174.68 23.5097 175.138 23.0976L177.681 20.7856C178.024 20.4651 178.551 20.4422 178.918 20.694L182.102 22.9145C182.537 23.235 182.674 23.8301 182.376 24.288Z" fill="#1AD769" fill-opacity="0.79"/>
<path d="M58.9367 69.2699C58.4557 72.5434 57.0814 80.5097 54.8137 84.035C54.6533 84.2868 54.3785 84.447 54.0578 84.4699L52.6834 84.5615C52.5918 84.5615 52.5231 84.5615 52.4315 84.5615C52.3627 84.5615 52.294 84.5615 52.2253 84.5615C51.9963 84.1952 51.6298 82.6844 51.0342 80.235C50.5074 78.0145 49.6828 74.6494 48.4229 69.8422C48.3771 69.659 48.4 69.453 48.5146 69.2699C48.5833 69.1783 48.7436 69.0181 48.9956 68.9952C50.4616 68.8807 52.0192 68.8121 53.6684 68.7434C55.1573 68.6747 56.6691 68.606 58.1579 68.5145C58.3641 68.4916 58.5702 68.5831 58.7077 68.7205C58.8451 68.8121 58.9596 68.9952 58.9367 69.2699Z" fill="#1AD769" fill-opacity="0.79"/>
<path d="M56.0278 90.4675C56.0278 91.8181 54.9283 92.5506 53.8975 92.5506C53.4165 92.5506 52.9584 92.3904 52.6606 92.0699C52.2941 91.7036 52.088 91.1313 52.088 90.4446C52.088 89.9639 52.2254 89.6205 52.5232 89.3916C52.798 89.1627 53.2103 89.0482 53.7143 89.0482C54.7908 89.0253 56.0278 89.6663 56.0278 90.4675Z" fill="#1AD769" fill-opacity="0.79"/>
<path d="M150.56 9.01928C151.385 9.70603 151.935 10.5988 152.347 11.5831C152.37 11.5145 152.393 11.4458 152.393 11.3771C152.393 11.3084 152.393 11.2398 152.393 11.1711C152.393 5.37952 145.223 4.53253 142.154 4.16627C141.741 4.12049 141.352 4.41808 141.306 4.83012C141.26 5.24217 141.558 5.63133 141.971 5.67711C145.177 6.06627 148.43 6.73012 149.965 8.58434C150.125 8.67591 150.262 8.79036 150.4 8.88193C150.446 8.92771 150.492 8.9735 150.56 9.01928Z" fill="#1AD769" fill-opacity="0.79"/>
<path d="M114.69 28.5C113.384 28.5 112.01 29.4843 112.01 30.9265C112.01 32.6205 113.407 33.6506 114.69 33.6506C115.079 33.6506 115.652 33.559 116.11 33.0783C116.545 32.6205 116.774 31.9108 116.774 30.9952C116.774 30.1482 116.545 29.4614 116.133 29.0494C115.652 28.5916 115.079 28.5 114.69 28.5Z" fill="#1AD769" fill-opacity="0.79"/>
<path d="M128.616 29.0265C127.975 29.0265 127.402 29.2325 126.99 29.6217C126.509 30.0566 126.28 30.6976 126.28 31.5217C126.28 32.2771 126.555 32.9181 127.036 33.353C127.494 33.7422 128.112 33.9711 128.777 33.9711C129.991 33.9711 131.228 33.2157 131.228 31.5217C131.205 29.8964 129.899 29.0265 128.616 29.0265Z" fill="#1AD769" fill-opacity="0.79"/>
<path d="M144.582 29.5988C144.101 29.3241 143.551 29.1867 143.047 29.1867C142.589 29.1867 142.154 29.3012 141.787 29.5072C140.986 29.965 140.55 30.8807 140.55 32.1397C140.55 33.5361 142.016 34.3831 143.437 34.3831C144.651 34.3831 145.956 33.7651 145.979 32.0024C145.979 30.606 145.109 29.8964 144.582 29.5988Z" fill="#1AD769" fill-opacity="0.79"/>
<path d="M213.803 38.3892C213.07 39.0988 210.459 39.5795 206.955 39.694C206.703 39.694 206.473 39.5567 206.382 39.3277C205.855 37.9771 204.549 34.6121 203.816 32.3229C203.702 32.0024 203.748 31.6591 203.931 31.3844C204.114 31.0868 204.389 30.9036 204.733 30.835C206.473 30.5374 208.283 30.3771 210.047 30.2398C210.39 30.2169 210.711 30.194 211.055 30.1711C211.078 30.1711 211.123 30.1711 211.146 30.1711C211.581 30.1711 211.948 30.4458 212.085 30.8579C212.246 31.3157 212.406 31.7964 212.566 32.2771C213.185 34.2 214.399 37.8169 213.803 38.3892Z" fill="#1AD769" fill-opacity="0.79"/>
<path d="M138.145 96.6253C138.145 99.5097 136.519 101.158 134.618 103.035C132.236 105.416 129.51 108.117 129.51 113.84C129.51 113.908 129.51 114.023 129.258 114.137C128.158 114.664 125.524 114.229 124.768 113.863C124.104 105.667 126.715 104.294 129.052 103.081C130.701 102.211 132.396 101.341 132.35 98.388C132.327 96.9687 131.663 95.9386 130.472 95.4579C128.342 94.6109 125.112 95.7783 123.554 97.3579C123.508 97.4036 123.463 97.4265 123.417 97.4036C123.417 97.4036 123.371 97.4036 123.371 97.3807C121.882 95.435 121.768 94.588 121.768 94.3591V94.3133C124.058 92.1844 127.609 91.1085 132.304 91.1085C138.077 91.1085 138.145 96.3964 138.145 96.6253Z" fill="#1AD769" fill-opacity="0.79"/>
<path d="M128.25 122.928C127.425 123.454 126.372 123.546 125.684 123.18C125.181 122.905 124.929 122.401 124.929 121.692C124.929 119.631 126.899 119.471 127.288 119.448C127.334 119.448 127.357 119.448 127.402 119.448C128.342 119.448 129.349 119.883 129.395 120.707C129.487 121.943 128.708 122.63 128.25 122.928Z" fill="#1AD769" fill-opacity="0.79"/>
<path d="M27.3725 89.4374C27.1435 89.0482 26.7083 88.8422 26.2501 88.888C24.7384 89.094 23.2495 89.2771 21.7606 89.4603C21.0505 85.9578 20.4779 84.8133 19.47 84.8133C18.3934 84.8133 17.775 86.0723 16.9046 90.0325L16.1487 90.1241C14.2475 90.3301 12.8731 90.4904 12.0027 90.6277C11.0636 90.7651 10.1931 90.9024 10.1015 91.6807C9.98698 92.4591 10.6742 92.7338 12.1401 93.3289C13.0106 93.6723 14.1788 94.153 15.5073 94.8169C15.2324 95.6868 14.8659 96.7398 14.4994 97.8157C14.2475 98.5711 13.9955 99.3265 13.7435 100.082C13.5832 100.563 13.7435 101.066 14.1559 101.364C14.362 101.501 14.5911 101.593 14.8201 101.593C15.0492 101.593 15.2782 101.524 15.4844 101.364C16.6984 100.471 18.1415 99.4181 19.5158 98.2506C20.2717 98.8916 21.0505 99.5325 21.8751 100.219C22.2645 100.54 22.6768 100.86 23.0891 101.204C23.5014 101.547 24.0512 101.57 24.4635 101.249C24.8987 100.952 25.059 100.425 24.8758 99.9217C24.2573 98.2506 23.8908 97.0374 23.4785 95.6639C24.9445 94.0157 26.2501 92.2301 27.3496 90.6506C27.5787 90.3072 27.6016 89.8265 27.3725 89.4374ZM22.1729 94.8169C21.898 95.1145 21.8064 95.5265 21.9209 95.9157C22.2416 96.9916 22.5394 97.9759 22.9517 99.1205C22.9059 99.0976 22.883 99.0518 22.8372 99.0289C21.9209 98.2735 21.0734 97.5868 20.2488 96.8771C19.8136 96.5109 19.1951 96.5109 18.7828 96.8771C17.7063 97.7928 16.6068 98.6398 15.576 99.3952C15.6905 99.0289 15.828 98.6627 15.9425 98.2964C16.3548 97.0603 16.7671 95.8699 17.042 94.9313C17.2023 94.4048 16.9733 93.8325 16.4922 93.5807C15.1637 92.8711 13.9497 92.3675 13.0335 92.0012C13.881 91.8868 15.0263 91.7494 16.3319 91.6121L17.3627 91.4976C17.8437 91.4289 18.256 91.0856 18.3476 90.6048C18.8516 88.2699 19.218 87.1711 19.4471 86.6675C19.6533 87.1482 19.951 88.1097 20.3404 90.1012C20.455 90.6735 21.0047 91.0856 21.6003 91.0169C22.9288 90.8566 24.2573 90.6964 25.5859 90.5133C24.5551 91.9097 23.4098 93.4434 22.1729 94.8169Z" fill="#393B3D"/>
<path d="M19.0577 58.1217C19.0806 58.5338 19.4241 58.8542 19.8135 58.8542C19.8365 58.8542 19.8364 58.8542 19.8594 58.8542C20.2717 58.8313 20.6153 58.4651 20.5923 58.053C20.5007 55.947 20.3862 54.1615 20.2717 52.4217C20.2259 51.5976 20.18 50.7735 20.1342 49.9265C20.1113 49.5145 19.7448 49.1711 19.3325 49.194C18.9202 49.2169 18.5766 49.5831 18.5995 49.9952C18.6453 50.8422 18.6912 51.6663 18.7599 52.4904C18.8515 54.2301 18.966 56.0386 19.0577 58.1217Z" fill="#393B3D"/>
<path d="M17.0191 59.9759C17.1336 60.0446 17.2482 60.0675 17.3627 60.0675C17.6376 60.0675 17.9124 59.9072 18.0499 59.6554C18.2331 59.2892 18.0957 58.8084 17.7292 58.6253C14.9576 57.206 13.4687 55.9928 12.2547 54.2072C12.0256 53.8639 11.5446 53.7723 11.201 54.0012C10.8574 54.2301 10.7658 54.7108 10.9949 55.0542C12.3463 57.0687 14.0184 58.4422 17.0191 59.9759Z" fill="#393B3D"/>
<path d="M8.24613 62.7687C9.64339 62.8145 11.0865 62.9747 12.4608 63.1349C14.0642 63.3181 15.7134 63.5241 17.3856 63.5241C17.7979 63.5241 18.1415 63.1807 18.1415 62.7687C18.1415 62.3566 17.7979 62.0132 17.3856 62.0132C15.8051 62.0132 14.2017 61.8301 12.6441 61.6241C11.2239 61.4638 9.75792 61.2807 8.26903 61.2349C7.83382 61.2349 7.49023 61.5554 7.49023 61.9903C7.49023 62.4024 7.81092 62.7458 8.24613 62.7687Z" fill="#393B3D"/>
<path d="M74.5357 122.905C74.9251 122.996 75.3374 122.767 75.4519 122.378V122.355C75.5436 121.943 75.3145 121.531 74.9022 121.417C72.8636 120.913 71.0998 120.501 69.4048 120.089C68.6031 119.906 67.8014 119.723 66.9768 119.517C66.5645 119.425 66.1522 119.677 66.0605 120.089C65.9689 120.501 66.2209 120.913 66.6332 121.005C67.4578 121.211 68.2595 121.394 69.0612 121.577C70.7562 121.966 72.52 122.378 74.5357 122.905Z" fill="#393B3D"/>
<path d="M75.7269 125.377C75.8185 125.286 75.8643 125.171 75.9101 125.057C75.9789 124.782 75.9331 124.484 75.704 124.278C75.4062 123.981 74.9023 124.004 74.6274 124.301C72.4514 126.545 70.8938 127.62 68.8322 128.261C68.4199 128.376 68.1908 128.811 68.3283 129.223C68.4428 129.635 68.878 129.864 69.2903 129.727C71.5809 129.04 73.3905 127.804 75.7269 125.377Z" fill="#393B3D"/>
<path d="M75.8642 134.602C76.2994 133.275 76.8721 131.947 77.4447 130.665C78.0861 129.2 78.7504 127.666 79.2314 126.064C79.3459 125.652 79.1168 125.24 78.7275 125.102C78.3151 124.988 77.9028 125.217 77.7654 125.606C77.3073 127.117 76.6659 128.605 76.0475 130.024C75.4748 131.329 74.8793 132.68 74.4212 134.099C74.3066 134.511 74.5128 134.923 74.9022 135.06C75.3145 135.22 75.7268 134.992 75.8642 134.602Z" fill="#393B3D"/>
<path d="M273.977 91.3831C273.977 90.147 273.954 88.8193 273.954 87.4C273.954 78.4036 273.588 72.7494 268.663 69.9108C265.571 68.1253 260.806 67.4843 253.316 67.2783C253.293 35.9626 251.186 22.8 245.322 17.1687C240.993 13.0024 234.877 13.2313 226.402 13.5518C223.951 13.6434 221.179 13.7578 218.247 13.7578C199.212 13.7578 189.546 16.253 189.546 29.8277C189.546 32.1398 189.615 35.4132 189.752 38.0229C183.98 36.2145 177.291 35.9855 170.03 35.9855C166.365 35.9855 163.067 36.1687 160.089 36.5578C159.356 17.9241 157.615 9.68313 153.446 5.21927C147.56 -1.0988 110.704 -0.640971 104.405 3.27349C99.3428 6.40963 98.3578 12.8651 98.3578 22.9373C98.3578 24.8373 98.4036 26.7602 98.4723 28.6145C98.5181 30.4687 98.5869 32.3687 98.5869 34.2458C98.5869 34.6349 98.5869 35.0241 98.5639 35.4132C93.1353 33.8795 86.8362 32.8723 79.7353 32.8723C74.7877 32.8723 68.9467 34.4518 63.3347 37.3132C63.1286 37.4277 62.8537 37.359 62.6934 37.1759C60.2195 34.3602 59.2117 30.5602 58.7994 27.859C58.7077 27.1952 58.2038 26.6916 57.5624 26.5542C56.8982 26.4169 56.2568 26.7145 55.9132 27.2867C53.1645 31.9566 53.9891 37.4048 55.1802 42.1205C55.226 42.3265 55.1573 42.5325 54.997 42.6699C48.7208 47.6831 44.6894 53.5205 43.6815 59.106C42.4217 59.2205 41.1618 59.3349 39.9249 59.4494C26.1127 60.9145 19.4013 63.8217 19.4013 68.3084C19.4013 70.0253 20.1343 71.8566 20.8214 73.6422C21.1192 74.3747 21.3941 75.0843 21.6231 75.7711C16.3548 76.0916 11.2697 77.9458 7.53603 80.9904C2.58836 84.9964 0 90.7879 0 97.747C0 104.271 5.70356 111.596 15.2782 112.512C15.3927 112.535 15.4844 112.581 15.5302 112.649C17.8666 116.564 22.1271 119.677 26.1585 120.41C26.273 120.433 26.3876 120.433 26.4792 120.433C26.9831 120.433 27.4641 120.227 27.8077 119.86C28.2429 119.402 28.4262 118.784 28.2887 118.166C28.0368 116.999 27.8993 115.694 27.8993 114.229C27.8993 113.245 27.9452 112.214 28.0826 110.933C28.1055 110.795 28.1742 110.681 28.2887 110.635C33.0074 108.666 35.9851 105.439 37.8176 101.913C42.6736 102.234 47.8045 102.531 52.8896 102.646C52.2941 104.431 50.5532 109.033 47.2319 113.245C46.8196 113.748 46.7967 114.435 47.1403 115.007C47.4151 115.465 47.8962 115.717 48.423 115.717C48.5375 115.717 48.6521 115.694 48.7437 115.694C54.1266 114.527 58.9597 110.131 63.1286 102.692C67.1371 102.577 70.8478 102.28 74.4212 101.845C74.7418 109.765 77.2844 116.312 82.0259 121.302C86.4697 125.995 92.9978 129.475 101.427 131.627C101.977 131.764 102.343 132.245 102.343 132.817C102.321 134.122 102.321 135.472 102.321 136.754C102.321 140.783 102.321 144.949 101.839 148.955C101.702 150.1 102.275 151.176 103.305 151.702C103.718 151.908 104.153 152.023 104.565 152.023C105.23 152.023 105.871 151.771 106.398 151.313C106.856 150.901 107.314 150.512 107.795 150.1C110.658 147.628 114.254 144.537 120.668 134.923C120.897 134.58 121.309 134.373 121.745 134.396C124.929 134.534 128.387 134.602 131.984 134.557C134.664 134.534 137.137 133.87 139.382 132.68C139.68 135.449 140.94 137.739 143.139 139.455C152.645 146.895 176.352 141.561 181.002 140.417C181.071 140.394 181.163 140.417 181.231 140.463C185.973 143.759 191.63 144.469 195.524 144.469C200.266 144.469 201.159 144.308 201.411 143.439C201.663 142.592 200.862 142.088 199.418 141.127C197.907 140.142 195.616 138.631 193.829 136.411C193.761 136.319 193.761 136.228 193.784 136.159C193.807 136.113 193.829 136.022 193.944 135.953C201.617 132.313 205.924 127.758 206.794 122.401C207.39 122.676 208.008 122.928 208.672 123.18C208.695 123.18 208.718 123.202 208.718 123.225C209.451 128.307 212.635 130.482 217.193 132.176C217.377 132.245 217.56 132.267 217.766 132.267C218.178 132.267 218.591 132.107 218.911 131.787C219.37 131.329 219.507 130.665 219.278 130.07C218.133 127.048 218.843 124.599 219.209 123.683C219.232 123.66 219.255 123.637 219.278 123.637C227.547 122.539 232.976 118.372 235.335 111.459C236.984 111.573 238.679 111.619 240.489 111.619C241.107 111.619 241.703 111.619 242.275 111.619C242.825 111.619 243.306 111.917 243.535 112.398C246.101 117.548 248.025 119.769 249.88 119.769C249.926 119.769 249.972 119.769 250.018 119.769C252.194 119.631 253.408 116.701 255.011 112.214C255.194 111.688 255.698 111.322 256.271 111.276C274.16 110.108 274.115 105.393 273.977 91.3831ZM197.334 18.1072C201.365 16.1157 207.619 15.2687 218.27 15.2687C221.225 15.2687 224.019 15.1542 226.47 15.0626C234.556 14.7651 240.42 14.5361 244.268 18.2446C249.697 23.4638 251.758 36.7639 251.781 67.1867C248.574 67.1181 244.91 67.1181 240.695 67.1181C217.789 67.1181 216.14 72.3373 216.14 80.9217C216.14 81.7229 216.163 82.5012 216.186 83.2566C216.208 83.806 216.208 84.3325 216.208 84.8361C214.674 84.8361 213.162 84.9964 211.673 85.2711C210.574 63.547 206.542 50.1554 199.006 43.2193C196.716 41.1133 194.15 39.6024 191.333 38.5494C191.172 35.8711 191.081 32.3 191.081 29.8048C191.081 23.853 193.005 20.2361 197.334 18.1072ZM105.207 4.57831C110.75 1.14457 146.895 0.434933 152.347 6.27228C156.195 10.3928 157.89 18.7024 158.6 36.7867C154.615 37.4048 151.247 38.412 148.453 39.8084C141.902 43.0819 138.581 48.553 138.581 56.0614C138.581 57.7783 138.695 59.4952 138.878 61.2349C136.244 59.4952 133.358 58.1675 130.22 57.2518C128.891 54.3446 124.15 48.4386 115.766 43.059C111.918 40.5867 106.673 37.8626 100.099 35.8482C100.099 35.2988 100.122 34.7723 100.122 34.2229C100.122 32.3458 100.076 30.4229 100.007 28.5687C99.9612 26.7145 99.8925 24.7916 99.8925 22.9373C99.8925 11.812 101.29 7.00481 105.207 4.57831ZM55.9132 43.8831C56.5546 43.3795 56.8295 42.5554 56.6233 41.7771C55.5238 37.359 54.7221 32.2771 57.196 28.0879C57.196 28.0879 57.2189 28.0879 57.2418 28.1108C57.677 31.0181 58.7765 35.1157 61.5023 38.206C62.1436 38.9157 63.1515 39.1217 63.999 38.7096C69.4048 35.9626 74.9938 34.4289 79.7124 34.4289C107.749 34.4289 124.241 50.2241 128.181 56.7482C125.478 56.1301 122.592 55.8325 119.569 55.8325C103.305 55.8325 92.4023 58.9687 85.2785 65.6988C84.3165 66.5916 83.4232 67.5759 82.5986 68.606C82.6215 68.1482 82.6215 67.6675 82.6215 67.2096C82.6215 62.6084 81.4533 58.3277 72.9323 58.3277H71.787C65.1901 58.3277 54.8596 58.3277 45.2162 59.0145C46.3157 53.9096 50.0722 48.553 55.9132 43.8831ZM27.6932 109.284C27.0518 109.559 26.6166 110.154 26.5479 110.841C26.4334 112.169 26.3647 113.245 26.3647 114.275C26.3647 115.854 26.5021 117.251 26.7999 118.533C26.8228 118.693 26.7541 118.784 26.7082 118.83C26.6624 118.876 26.5708 118.945 26.4334 118.922C22.883 118.281 18.9432 115.373 16.8587 111.871C16.5609 111.367 16.0341 111.047 15.4386 110.978C6.73433 110.154 1.53469 103.607 1.53469 97.747C1.53469 83.6687 12.7357 77.259 23.1578 77.259C27.487 77.259 31.4727 78.3578 34.4046 80.3494C36.5807 81.8145 39.169 84.4928 39.169 88.8651C39.1461 94.7253 37.6572 105.118 27.6932 109.284ZM74.3983 100.311C70.8249 100.769 67.1142 101.043 63.0828 101.158C62.5559 101.181 62.0749 101.455 61.8 101.936C57.8373 109.01 53.3249 113.13 48.423 114.229C51.8818 109.834 53.7143 105.027 54.3327 103.172C54.4931 102.714 54.4014 102.211 54.1266 101.822C53.8517 101.433 53.4165 101.181 52.9126 101.181C48.0565 101.066 43.1547 100.769 38.5048 100.471C40.2685 96.3506 40.6808 92.0012 40.6808 88.8879C40.6808 84.8819 38.8025 81.5169 35.2521 79.0904C32.0911 76.9386 27.7848 75.7482 23.1578 75.7482C22.9059 74.8783 22.5394 73.9855 22.1958 73.1157C21.5544 71.4675 20.8902 69.7735 20.8902 68.3542C20.8902 65.9277 24.2115 62.6771 40.0395 61.006C50.9197 59.8614 63.9761 59.8614 71.787 59.8614H72.9323C80.4683 59.8614 81.0868 63.341 81.0868 67.2096C81.0868 67.7361 81.0639 68.2626 81.0639 68.7663C81.041 69.453 81.041 70.1169 81.041 70.7578C76.5056 77.6482 74.3754 87.194 74.3754 100.173C74.3754 100.219 74.3983 100.265 74.3983 100.311ZM131.961 133C128.387 133.046 124.974 132.977 121.813 132.84C120.851 132.794 119.935 133.252 119.408 134.053C113.109 143.484 109.765 146.369 106.81 148.91C106.329 149.322 105.871 149.734 105.39 150.146C104.932 150.558 104.382 150.512 104.016 150.329C103.855 150.237 103.283 149.894 103.374 149.116C103.855 145.041 103.855 140.829 103.855 136.754C103.855 135.472 103.855 134.122 103.878 132.817C103.901 131.558 103.054 130.436 101.817 130.139C84.4081 125.675 75.933 115.877 75.933 100.151C75.933 84.1036 79.2543 73.5048 86.3551 66.7747C93.1811 60.3193 103.741 57.3205 119.592 57.3205C127.792 57.3205 134.251 59.6096 139.245 63.341C139.313 63.4096 139.382 63.4554 139.451 63.5012C149.507 71.147 153.515 84.6301 153.584 96.7626C153.63 105.965 151.477 115.099 147.674 121.829C143.666 128.971 138.077 132.931 131.961 133ZM193.303 134.557C192.799 134.808 192.432 135.243 192.295 135.793C192.18 136.342 192.295 136.892 192.661 137.327C194.608 139.73 197.013 141.31 198.617 142.363C198.846 142.5 199.052 142.66 199.258 142.798C198.136 142.889 196.349 142.889 195.547 142.889C191.86 142.889 186.545 142.248 182.125 139.158C181.689 138.86 181.14 138.746 180.636 138.883C168.106 141.973 151.018 143.645 144.078 138.219C142.016 136.594 140.963 134.488 140.848 131.787C149.988 125.835 155.187 111.07 155.096 96.7626C155.05 85.912 152.072 75.9771 146.758 68.7892C144.925 66.3169 142.841 64.188 140.505 62.4253C140.276 60.2735 140.092 58.1675 140.092 56.0614C140.092 49.0795 143.047 44.2036 149.117 41.1819C154.042 38.7325 160.868 37.5193 170.03 37.5193C193.394 37.5193 207.848 39.8542 210.138 85.6145C208.169 86.1181 206.267 86.8506 204.527 87.8578C198.686 91.2 195.479 96.8771 195.479 103.813C195.479 109.284 196.67 113.496 199.121 116.701C200.632 118.693 202.671 120.318 205.351 121.692C204.778 126.728 200.724 131.054 193.303 134.557ZM219.072 122.104C218.499 122.172 217.995 122.561 217.789 123.111C217.354 124.187 216.506 127.094 217.858 130.619C217.858 130.642 217.881 130.665 217.835 130.711C217.812 130.734 217.766 130.734 217.766 130.734C213.597 129.2 210.894 127.346 210.276 122.996C210.184 122.424 209.795 121.943 209.245 121.737C202.9 119.357 197.036 115.557 197.036 103.836C197.036 97.4723 199.968 92.2759 205.328 89.2084C207.115 88.1783 209.085 87.4458 211.146 86.988H211.169C212.864 86.5988 214.628 86.4157 216.369 86.4157C220.286 86.4157 224.18 87.3542 227.432 89.2542C232.449 92.1843 235.175 96.9687 235.129 102.783C235.037 114.183 229.654 120.684 219.072 122.104ZM270.587 105.278C268.64 107.934 264.609 109.17 256.202 109.719C255.011 109.788 254.003 110.566 253.591 111.665C252.675 114.229 251.277 118.12 249.949 118.212C249.307 118.258 247.796 117.457 244.91 111.688C244.406 110.681 243.398 110.063 242.275 110.063C241.68 110.063 241.084 110.063 240.489 110.063C238.839 110.063 237.305 110.017 235.793 109.925C236.366 107.773 236.663 105.37 236.663 102.737C236.709 96.3735 233.709 91.0855 228.188 87.8807C225.096 86.0723 221.454 85.0879 217.743 84.8819C217.743 84.3554 217.72 83.806 217.72 83.2337C217.697 82.4783 217.697 81.7229 217.697 80.9446C217.697 74.0771 217.697 68.6747 240.718 68.6747C245.23 68.6747 249.17 68.6976 252.56 68.7663C260.096 68.9723 264.998 69.5446 267.907 71.2157C271.801 73.459 272.442 77.8313 272.442 87.4C272.442 88.8193 272.465 90.147 272.465 91.406C272.511 98.1361 272.557 102.577 270.587 105.278Z" fill="#393B3D"/>
<path d="M45.9263 26.2795C45.8117 25.9132 45.5827 25.6385 45.262 25.4554L42.6278 24.0132L44.0709 21.3807C44.2541 21.0602 44.3 20.694 44.1854 20.3277C44.0938 19.9843 43.8418 19.6867 43.5212 19.5036L39.5584 17.3289C38.8942 16.9626 38.0467 17.2144 37.6802 17.8783L36.2371 20.5108L33.6029 19.0687C32.9386 18.7024 32.0911 18.9542 31.7246 19.6181L29.5486 23.5783C29.1821 24.2421 29.434 25.0891 30.0983 25.4554L32.7325 26.8976L31.2894 29.5301C30.9229 30.194 31.1749 31.0409 31.8392 31.4072L35.8019 33.5819C36.008 33.6964 36.2371 33.7421 36.4661 33.7421C36.6036 33.7421 36.7181 33.7193 36.8555 33.6735C37.1991 33.5819 37.4969 33.3301 37.6802 33.0096L39.1232 30.3771L41.7574 31.8193C42.4217 32.1855 43.2692 31.9337 43.6357 31.2699L45.8117 27.3096C45.995 27.012 46.0408 26.6458 45.9263 26.2795ZM42.3759 30.4229L39.7417 28.9807C39.421 28.7976 39.0545 28.7518 38.688 28.8662C38.3215 28.9807 38.0467 29.2096 37.8634 29.5301L36.4203 32.1626L32.7325 30.1482L34.1756 27.5156C34.3588 27.1952 34.4046 26.8289 34.2901 26.4626C34.1985 26.1193 33.9465 25.8217 33.6258 25.6385L30.9916 24.1964L33.0074 20.5108L35.6415 21.953C35.9622 22.1361 36.3287 22.1819 36.6952 22.0674C37.0617 21.953 37.3366 21.7241 37.5198 21.4036L38.9629 18.7711L42.6507 20.7855L41.2077 23.4181C41.0244 23.7385 40.9786 24.1048 41.0931 24.4711C41.1848 24.8144 41.4367 25.112 41.7574 25.2952L44.3916 26.7373L42.3759 30.4229Z" fill="#393B3D"/>
<path d="M53.5998 132.382L52.4774 132.794C52.1796 132.908 51.8589 132.886 51.5841 132.748C51.3092 132.611 51.0801 132.382 50.9885 132.084L50.5762 130.963C50.3242 130.276 49.5683 129.91 48.8583 130.161L48.0337 130.459C47.3465 130.711 46.98 131.466 47.2319 132.176L47.6443 133.298C47.7588 133.595 47.7359 133.916 47.5984 134.19C47.461 134.465 47.2319 134.694 46.9342 134.785L45.8118 135.198C45.1246 135.449 44.7581 136.205 45.0101 136.914L45.3078 137.739C45.5598 138.425 46.3157 138.792 47.0258 138.54L48.1482 138.128C48.446 138.013 48.7666 138.036 49.0415 138.173C49.3164 138.311 49.5454 138.54 49.6371 138.837L50.0494 139.959C50.3013 140.646 51.0572 141.012 51.7673 140.76L52.5919 140.463C53.2791 140.211 53.6456 139.455 53.3936 138.746L52.9813 137.624C52.8668 137.326 52.8897 137.006 53.0271 136.731C53.1646 136.457 53.3936 136.228 53.6914 136.136L54.8138 135.724C55.501 135.472 55.8675 134.717 55.6155 134.007L55.3177 133.183C55.0658 132.496 54.3099 132.13 53.5998 132.382Z" fill="#1AD769" fill-opacity="0.79"/>
<path d="M54.7222 130.436C54.4473 130.299 54.1266 130.299 53.8288 130.39L51.4466 131.26L50.5762 128.879C50.4617 128.582 50.2555 128.353 49.9807 128.216C49.7058 128.078 49.3851 128.078 49.0873 128.17L45.514 129.452C44.9185 129.681 44.5978 130.345 44.8268 130.94L45.6744 133.32L43.2921 134.19C42.6966 134.419 42.3759 135.083 42.5821 135.678L43.8648 139.249C44.0709 139.845 44.7581 140.165 45.3537 139.959L47.7359 139.089L48.6063 141.47C48.8125 142.065 49.4996 142.386 50.0952 142.18L53.6685 140.898C53.8518 140.829 54.0121 140.714 54.1495 140.577C54.2182 140.486 54.287 140.394 54.3328 140.302C54.4702 140.028 54.4702 139.707 54.3786 139.41L53.5082 137.029L55.8904 136.182C56.4859 135.953 56.8066 135.289 56.5775 134.694L55.2948 131.123C55.2032 130.802 54.997 130.573 54.7222 130.436ZM55.3406 134.992L52.9584 135.861C52.6606 135.976 52.4316 136.182 52.2942 136.457C52.1567 136.731 52.1567 137.052 52.2483 137.349L53.1188 139.73L49.7745 140.92L48.9041 138.54C48.7896 138.242 48.5834 138.013 48.3085 137.876C48.0337 137.739 47.713 137.739 47.4152 137.83L45.033 138.7L43.819 135.358L46.2012 134.488C46.499 134.373 46.728 134.167 46.8655 133.893C47.0029 133.618 47.0029 133.298 46.9113 133L46.0409 130.619L49.3851 129.406L50.2555 131.787C50.3701 132.084 50.5762 132.313 50.8511 132.451C51.126 132.588 51.4466 132.588 51.7444 132.496L54.1266 131.626L55.3406 134.992Z" fill="#393B3D"/>
<path d="M86.4009 0.526508C86.0115 0.137351 85.4618 -0.0457813 84.912 0.0228934C82.484 0.343375 80.0102 0.869881 77.5592 1.60241C76.6659 1.87711 76.1391 2.79277 76.3452 3.68554C77.0095 6.61566 77.5363 9.01928 77.9715 10.9422C78.7962 14.6964 79.2543 16.7795 79.7353 17.947C80.2621 19.2518 80.9035 19.7325 82.1404 19.7325C85.645 19.7325 85.7137 17.9928 85.8512 13.7578C85.9428 11.2398 86.0802 7.46265 86.8819 2.03735C86.9736 1.46506 86.7903 0.915664 86.4009 0.526508ZM85.3702 1.80844C84.5455 7.3253 84.4081 11.1711 84.3165 13.7121C84.1561 18.1988 84.0416 18.1988 82.1404 18.1988C81.2242 18.1988 81.0867 17.9928 79.4604 10.5988C79.0252 8.67591 78.4984 6.27229 77.8341 3.34217C77.8112 3.22771 77.8799 3.09036 77.9945 3.06747C80.3767 2.35783 82.7589 1.83133 85.1182 1.53374H85.1411C85.2327 1.53374 85.2785 1.57952 85.3014 1.60241C85.3473 1.6253 85.3931 1.69398 85.3702 1.80844Z" fill="#393B3D"/>
<path d="M84.683 23.5325C84.1104 22.7084 83.1942 22.2964 82.2092 22.4337C80.8807 22.594 80.2622 24.0362 80.3538 25.3181C80.4455 26.8289 81.4075 27.8362 82.759 27.8362C83.7439 27.8362 84.5456 27.3783 84.9579 26.5771C85.416 25.6615 85.3015 24.4482 84.683 23.5325ZM83.5836 25.8904C83.4232 26.188 83.1484 26.3253 82.7361 26.3253C82.0031 26.3253 81.8885 25.5699 81.8656 25.2494C81.8198 24.6313 82.0718 24.0133 82.3925 23.9904C82.8277 23.9446 83.1713 24.0819 83.4232 24.4482C83.721 24.8374 83.7897 25.4783 83.5836 25.8904Z" fill="#393B3D"/>
<path d="M169.481 25.5699C168.839 25.0433 167.969 24.7458 167.007 24.7458C164.854 24.7458 162.609 26.2108 162.609 28.6602C162.609 31.1783 164.67 32.5518 166.617 32.5518C167.671 32.5518 168.656 32.1626 169.389 31.453C169.962 30.9036 170.626 29.8964 170.626 28.1795C170.626 27.1036 170.237 26.1879 169.481 25.5699ZM168.312 30.3542C167.877 30.7663 167.282 31.0181 166.617 31.0181C165.38 31.0181 164.143 30.2169 164.143 28.6602C164.143 27.0349 165.816 26.2795 167.007 26.2795C167.602 26.2795 168.152 26.4397 168.519 26.7602C168.908 27.0807 169.114 27.5614 169.114 28.1795C169.091 29.1181 168.816 29.8735 168.312 30.3542Z" fill="#393B3D"/>
<path d="M183.545 21.7012L178.712 18.3361C178.185 17.9699 177.475 18.0156 176.994 18.4506L172.779 22.2735C172.481 22.5482 172.321 22.9373 172.321 23.3265C172.321 23.7385 172.504 24.1048 172.825 24.3566L174.611 25.8446C174.863 26.0506 175.184 26.165 175.505 26.165C175.78 26.165 176.032 26.0964 176.261 25.9361C176.833 25.5699 177.864 24.8602 178.437 24.494L180.888 25.9132C181.529 26.2795 182.354 26.0964 182.743 25.4554L183.934 23.6012C184.324 22.9373 184.163 22.1132 183.545 21.7012ZM181.529 24.494L179.124 23.0976C178.666 22.8229 178.093 22.8458 177.658 23.1434C177.154 23.4867 176.123 24.1735 175.528 24.5855L173.947 23.2807L177.933 19.6638L182.56 22.8687L181.529 24.494Z" fill="#393B3D"/>
<path d="M41.0473 119.242C41.0473 120.181 40.7725 120.936 40.2685 121.417C39.8333 121.829 39.2378 122.081 38.5735 122.081C37.3366 122.081 36.0997 121.28 36.0997 119.723C36.0997 118.098 37.7718 117.342 38.9629 117.342C39.5585 117.342 40.1082 117.502 40.4747 117.823C40.8412 118.143 41.0473 118.624 41.0473 119.242Z" fill="#1AD769" fill-opacity="0.79"/>
<path d="M82.6673 143.324C82.5528 142.798 82.8735 142.271 83.3774 142.134L85.1411 141.653C85.668 141.516 86.0345 141.104 86.149 140.577C86.2406 140.142 86.3781 139.432 86.4926 138.792C86.5842 138.357 86.9507 138.036 87.3859 137.99L87.5233 137.967C88.1189 137.922 88.6457 138.402 88.6228 139.02L88.4625 142.454C88.4396 142.912 88.096 143.301 87.6379 143.393L83.8126 144.08C83.2858 144.194 82.7818 143.851 82.6673 143.324Z" fill="#1AD769" fill-opacity="0.79"/>
<path d="M40.887 115.854C40.2456 115.328 39.3752 115.03 38.4131 115.03C36.26 115.03 34.0152 116.495 34.0152 118.945C34.0152 121.463 36.0767 122.836 38.0237 122.836C39.0774 122.836 40.0623 122.447 40.7953 121.737C41.368 121.188 42.0322 120.181 42.0322 118.464C42.0322 117.388 41.6428 116.472 40.887 115.854ZM39.7188 120.661C39.2835 121.074 38.688 121.325 38.0237 121.325C36.7868 121.325 35.5499 120.524 35.5499 118.967C35.5499 117.342 37.222 116.587 38.4131 116.587C39.0087 116.587 39.5584 116.747 39.9249 117.067C40.3143 117.388 40.5205 117.869 40.5205 118.487C40.4976 119.402 40.2227 120.158 39.7188 120.661Z" fill="#393B3D"/>
<path d="M83.6751 146.002L89.4932 144.972C90.1345 144.858 90.5927 144.331 90.6385 143.667L90.9133 137.99C90.9363 137.578 90.7759 137.189 90.4781 136.914C90.1804 136.64 89.791 136.502 89.3787 136.548L87.0652 136.754C86.7216 136.777 86.4238 136.937 86.2176 137.143C86.0344 137.327 85.897 137.578 85.8511 137.83C85.7137 138.494 85.4617 139.707 85.3472 140.394L82.5985 141.127C81.8655 141.31 81.4303 142.042 81.6135 142.775L82.0946 144.926C82.2549 145.659 82.9421 146.117 83.6751 146.002ZM83.1253 142.592L85.8282 141.882C86.3551 141.745 86.7216 141.333 86.8361 140.806C86.9506 140.188 87.2026 138.998 87.34 138.288L89.3787 138.105L89.1267 143.484L83.5835 144.469L83.1253 142.592Z" fill="#393B3D"/>
<path d="M260.669 56.2446C259.867 56.2446 259.157 56.4506 258.63 56.8398C258.172 57.1831 257.622 57.8241 257.622 58.9458C257.622 59.8614 257.989 60.6626 258.63 61.212C259.203 61.6928 259.959 61.9446 260.76 61.9446C262.41 61.9446 264.15 60.8229 264.15 58.7169C264.15 57.206 262.341 56.2446 260.669 56.2446ZM260.76 60.4337C260.302 60.4337 259.89 60.2964 259.615 60.0675C259.317 59.8157 259.157 59.4494 259.157 58.9916C259.157 58.0072 259.982 57.8012 260.669 57.8012C261.7 57.8012 262.616 58.3277 262.616 58.7398C262.616 59.8843 261.654 60.4337 260.76 60.4337Z" fill="#393B3D"/>
<path d="M31.0146 65.8132C28.4262 66.3169 25.3797 67.7361 25.3797 70.0482C25.3797 70.5976 25.5401 71.2157 25.8837 71.8566C26.0669 72.2229 25.9295 72.7036 25.5401 72.8867C25.4255 72.9325 25.311 72.9783 25.1965 72.9783C24.9216 72.9783 24.6467 72.8181 24.5093 72.5663C24.0741 71.7193 23.845 70.8723 23.845 70.0711C23.845 66.8434 27.3954 64.9891 30.7168 64.3482C31.1291 64.2566 31.5414 64.5313 31.6101 64.9434C31.7017 65.3325 31.4269 65.7217 31.0146 65.8132Z" fill="#393B3D"/>
<path d="M59.876 67.6675C59.4179 67.1638 58.7536 66.912 58.0893 66.9578C56.6234 67.0723 55.1116 67.141 53.6456 67.1867C51.9964 67.2554 50.4159 67.3241 48.927 67.4614C48.2856 67.5072 47.6901 67.8506 47.3236 68.3771C46.9571 68.9036 46.8196 69.5675 46.98 70.2084C48.2398 75.0157 49.0415 78.3578 49.5912 80.5783C50.7824 85.4771 50.9198 86.0723 52.317 86.0723C52.3858 86.0723 52.4316 86.0723 52.5003 86.0723C52.569 86.0723 52.6377 86.0723 52.7294 86.0723L54.1953 85.9807C54.997 85.9349 55.73 85.5 56.1423 84.859C58.4787 81.2193 59.8531 73.6651 60.4715 69.4988C60.5403 68.8349 60.3341 68.1711 59.876 67.6675ZM58.9368 69.2699C58.4558 72.5434 57.0815 80.5096 54.8138 84.0349C54.6535 84.2867 54.3786 84.447 54.0579 84.4699L52.6835 84.5614C52.5919 84.5614 52.5232 84.5614 52.4316 84.5614C52.3629 84.5614 52.2941 84.5614 52.2254 84.5614C51.9964 84.1952 51.6299 82.6843 51.0343 80.2349C50.5075 78.0144 49.6829 74.6494 48.423 69.8422C48.3772 69.659 48.4001 69.453 48.5147 69.2699C48.5834 69.1783 48.7437 69.0181 48.9957 68.9952C50.4617 68.8807 52.0193 68.812 53.6685 68.7434C55.1574 68.6747 56.6692 68.606 58.158 68.5144C58.3642 68.4916 58.5704 68.5831 58.7078 68.7205C58.8452 68.812 58.9598 68.9952 58.9368 69.2699Z" fill="#393B3D"/>
<path d="M53.7142 87.4916C52.8667 87.4916 52.1337 87.7205 51.584 88.1554C51.1259 88.5217 50.5761 89.2084 50.5761 90.4217C50.5761 91.841 51.1259 92.6879 51.6069 93.1458C52.2024 93.7409 53.027 94.0614 53.9204 94.0614C55.707 94.0614 57.5853 92.7108 57.5853 90.4446C57.5624 88.6361 55.5696 87.4916 53.7142 87.4916ZM53.8975 92.5506C53.4164 92.5506 52.9583 92.3904 52.6605 92.0699C52.2941 91.7036 52.0879 91.1313 52.0879 90.4446C52.0879 89.9639 52.2253 89.6205 52.5231 89.3916C52.798 89.1627 53.2103 89.0482 53.7142 89.0482C54.7908 89.0482 56.0277 89.6663 56.0277 90.4675C56.0277 91.8181 54.9282 92.5506 53.8975 92.5506Z" fill="#393B3D"/>
<path d="M59.8301 50.1096C59.3262 49.7663 58.6848 49.5602 58.0664 49.5602C56.8982 49.5602 55.5238 50.3157 55.5238 52.4217C55.5238 53.5205 56.4629 54.2759 57.8373 54.2759C58.5474 54.2759 59.2346 54.047 59.7614 53.6807C60.4257 53.2 60.7922 52.4904 60.7922 51.6892C60.7693 51.094 60.4257 50.5217 59.8301 50.1096ZM58.8452 52.4446C58.5703 52.6277 58.2038 52.7422 57.8144 52.7422C57.4479 52.7422 57.0356 52.6277 57.0356 52.4217C57.0356 51.5289 57.3563 51.094 58.0435 51.094C58.7077 51.094 59.2346 51.5289 59.2346 51.6892C59.2346 52.0096 59.12 52.2615 58.8452 52.4446Z" fill="#393B3D"/>
<path d="M81.27 42.6699C81.2929 43.0819 80.9722 43.4482 80.5599 43.494C76.0016 43.7916 65.0297 46.9277 62.762 48.553C62.6246 48.6446 62.4643 48.6903 62.3039 48.6903C62.0749 48.6903 61.8229 48.5759 61.6855 48.3699C61.4335 48.0265 61.5251 47.5458 61.8687 47.294C64.5716 45.3253 75.8871 42.235 80.4683 41.9374C80.8806 41.9145 81.2471 42.235 81.27 42.6699Z" fill="#393B3D"/>
<path d="M96.9606 42.4181C96.9377 42.8301 96.5941 43.1277 96.2047 43.1277C96.1818 43.1277 96.1589 43.1277 96.136 43.1277C94.3264 42.9675 92.1962 42.8072 90.0888 42.8072C88.5083 42.8072 87.0881 42.8988 85.7367 43.0819C85.3244 43.1277 84.935 42.8301 84.8892 42.4181C84.8434 42.006 85.1411 41.6169 85.5534 41.5711C86.9736 41.388 88.4625 41.2964 90.1117 41.2964C92.2878 41.2964 94.4638 41.4566 96.2963 41.6169C96.6857 41.6169 97.0064 42.006 96.9606 42.4181Z" fill="#393B3D"/>
<path d="M107.177 14.6964C105.985 17.8096 105.344 21.1747 105.344 24.4253C105.344 24.8373 105 25.1807 104.588 25.1807C104.176 25.1807 103.832 24.8373 103.832 24.4253C103.832 20.9687 104.497 17.4205 105.779 14.147C105.94 13.7578 106.375 13.5518 106.764 13.7121C107.131 13.8494 107.337 14.2843 107.177 14.6964Z" fill="#393B3D"/>
<path d="M108.94 9.7289C108.94 10.0036 108.826 10.2096 108.757 10.3241L108.734 10.347C108.597 10.5988 108.322 10.759 108.047 10.759C107.932 10.759 107.818 10.7361 107.703 10.6675C107.337 10.4843 107.177 10.0265 107.36 9.66023C107.383 9.61445 107.406 9.56866 107.428 9.54577C107.497 9.2024 107.818 8.95059 108.184 8.95059C108.597 8.97348 108.94 9.31686 108.94 9.7289Z" fill="#393B3D"/>
<path d="M152.37 11.1482C152.37 11.2169 152.37 11.2856 152.37 11.3542C152.347 11.7663 152.003 12.0868 151.614 12.0868H151.591C151.179 12.0639 150.835 11.7205 150.858 11.2856C150.858 11.2398 150.858 11.1711 150.858 11.1253C150.858 7.23375 146.368 6.15784 141.971 5.63134C141.558 5.58555 141.26 5.1964 141.306 4.78435C141.352 4.3723 141.741 4.07471 142.154 4.12049C145.2 4.50965 152.37 5.37953 152.37 11.1482Z" fill="#393B3D"/>
<path d="M114.69 26.9663C112.674 26.9663 110.475 28.4771 110.475 30.9265C110.475 32.1398 110.956 33.2386 111.826 34.0398C112.605 34.7723 113.659 35.1843 114.69 35.1843C116.476 35.1843 118.286 33.8795 118.286 30.9952C118.286 28.9807 117.163 26.9663 114.69 26.9663ZM116.087 33.0783C115.629 33.559 115.079 33.6506 114.667 33.6506C113.384 33.6506 111.987 32.5976 111.987 30.9265C111.987 29.4843 113.361 28.5 114.667 28.5C115.079 28.5 115.652 28.5916 116.087 29.0494C116.499 29.4615 116.728 30.1482 116.728 30.9952C116.751 31.9109 116.522 32.6205 116.087 33.0783Z" fill="#393B3D"/>
<path d="M128.616 27.4928C127.586 27.4928 126.647 27.8361 125.936 28.5C125.387 29.0036 124.722 29.9422 124.722 31.5217C124.722 34.1542 126.761 35.5277 128.754 35.5277C130.724 35.5277 132.74 34.1542 132.74 31.5446C132.74 28.912 130.609 27.4928 128.616 27.4928ZM128.777 33.9711C128.113 33.9711 127.494 33.7422 127.036 33.353C126.532 32.9181 126.28 32.2771 126.28 31.5217C126.28 30.6976 126.532 30.0795 126.99 29.6217C127.402 29.2325 127.998 29.0265 128.616 29.0265C129.899 29.0265 131.205 29.8735 131.205 31.5217C131.205 33.2157 129.991 33.9711 128.777 33.9711Z" fill="#393B3D"/>
<path d="M145.361 28.2711C143.986 27.4699 142.291 27.447 141.009 28.1795C139.726 28.9349 139.016 30.3313 139.016 32.1398C139.016 34.4976 141.261 35.9169 143.437 35.9169C146.231 35.9169 147.491 33.9482 147.514 32.0253C147.514 30.4229 146.735 29.0723 145.361 28.2711ZM143.437 34.3831C142.016 34.3831 140.55 33.5362 140.55 32.1398C140.55 30.8807 140.986 29.9651 141.787 29.5072C142.154 29.3012 142.612 29.1868 143.047 29.1868C143.574 29.1868 144.101 29.3241 144.582 29.5988C145.086 29.8964 145.956 30.606 145.956 32.0024C145.956 33.7651 144.651 34.3831 143.437 34.3831Z" fill="#393B3D"/>
<path d="M204.068 101.707C202.35 101.707 200.495 102.989 200.495 105.072C200.495 106.102 200.907 107.041 201.64 107.728C202.305 108.346 203.198 108.689 204.068 108.689C205.603 108.689 207.161 107.59 207.161 105.141C207.161 102.76 205.603 101.707 204.068 101.707ZM204.068 107.155C203.083 107.155 202.03 106.354 202.03 105.072C202.03 103.974 203.083 103.241 204.068 103.241C204.366 103.241 204.801 103.31 205.122 103.653C205.443 103.974 205.603 104.477 205.603 105.141C205.626 106.423 205.053 107.155 204.068 107.155Z" fill="#393B3D"/>
<path d="M213.574 101.684C212.704 101.684 211.902 101.982 211.307 102.531C210.826 102.966 210.276 103.767 210.276 105.095C210.276 106.125 210.665 107.018 211.375 107.636C211.994 108.186 212.841 108.483 213.712 108.483C215.384 108.483 217.102 107.316 217.102 105.095C217.079 102.875 215.269 101.684 213.574 101.684ZM213.689 106.972C212.979 106.972 211.788 106.583 211.788 105.095C211.788 104.477 211.971 103.996 212.337 103.653C212.658 103.355 213.093 103.195 213.574 103.195C214.559 103.195 215.544 103.836 215.544 105.072C215.544 106.492 214.536 106.972 213.689 106.972Z" fill="#393B3D"/>
<path d="M225.348 102.28C224.203 101.616 222.737 101.57 221.66 102.211C220.561 102.852 219.965 104.042 219.965 105.553C219.965 107.567 221.866 108.781 223.699 108.781C225.371 108.781 227.158 107.751 227.158 105.461C227.158 104.111 226.516 102.943 225.348 102.28ZM223.699 107.247C222.599 107.247 221.477 106.606 221.477 105.553C221.477 104.592 221.798 103.882 222.416 103.539C222.691 103.378 223.034 103.287 223.378 103.287C223.767 103.287 224.18 103.401 224.569 103.607C224.959 103.836 225.623 104.386 225.623 105.439C225.623 107.11 224.157 107.247 223.699 107.247Z" fill="#393B3D"/>
<path d="M186.362 45.394C186.316 45.7831 185.973 46.0578 185.606 46.0578C185.561 46.0578 185.538 46.0578 185.492 46.0578C184.117 45.8518 182.697 45.7603 181.185 45.7603C180.132 45.7603 179.009 45.806 177.841 45.9205C177.429 45.9663 177.039 45.6458 177.017 45.2338C176.971 44.8217 177.291 44.4326 177.704 44.4097C178.895 44.2952 180.086 44.2494 181.185 44.2494C182.743 44.2494 184.278 44.3639 185.698 44.5699C186.133 44.5928 186.408 44.9819 186.362 45.394Z" fill="#393B3D"/>
<path d="M201.847 59.7928C201.801 59.7928 201.755 59.8157 201.709 59.8157C201.343 59.8157 201.022 59.5639 200.953 59.1976C199.831 53.0855 195.066 48.0952 189.363 47.0651C188.951 46.9964 188.676 46.5843 188.744 46.1723C188.813 45.7602 189.225 45.4855 189.638 45.5542C196.051 46.7217 201.182 52.1012 202.465 58.9229C202.534 59.312 202.259 59.7241 201.847 59.7928Z" fill="#393B3D"/>
<path d="M179.628 61.7386C179.17 61.2121 178.505 60.9145 177.795 60.9145H177.612C168.152 60.9145 165.357 61.1205 164.602 61.8988C164.327 62.1735 164.029 62.4711 164.212 67.4157C164.327 70.3 164.579 74.0084 164.945 77.8542C165.266 81.3795 166.48 93.1916 168.015 96.9C168.175 97.2892 168.61 98.3422 169.503 98.3422H170.007C172.023 98.3422 173.466 98.2735 173.924 96.3964C176.627 85.5229 178.689 74.8325 180.201 63.7072C180.292 62.9976 180.086 62.288 179.628 61.7386ZM178.689 63.5241C177.177 74.6036 175.138 85.2253 172.435 96.053C172.275 96.7398 172.069 96.8313 169.778 96.8313H169.664C168.954 95.9386 167.74 90.3988 166.686 80.006C165.838 71.6506 165.495 64.3711 165.747 62.9747C167.098 62.4711 174.268 62.4711 177.795 62.4711C178.047 62.4711 178.299 62.5855 178.46 62.7687C178.643 62.9518 178.712 63.2494 178.689 63.5241Z" fill="#393B3D"/>
<path d="M172.596 106.057C172.046 105.507 171.29 105.187 170.466 105.187C168.793 105.187 167.075 106.446 167.075 108.552C167.075 110.887 168.977 112.512 170.695 112.512C171.519 112.512 172.229 112.146 172.733 111.482C173.237 110.795 173.512 109.834 173.512 108.621C173.535 107.27 173.031 106.492 172.596 106.057ZM171.519 110.543C171.313 110.818 171.038 110.955 170.695 110.955C169.733 110.955 168.61 109.902 168.61 108.529C168.61 107.384 169.549 106.698 170.466 106.698C170.763 106.698 171.176 106.766 171.496 107.11C171.817 107.43 171.977 107.957 171.977 108.598C172 109.696 171.748 110.269 171.519 110.543Z" fill="#393B3D"/>
<path d="M210.734 90.9711C206.955 92.5277 204.023 95.0458 202.488 98.0446C202.35 98.3193 202.076 98.4567 201.801 98.4567C201.686 98.4567 201.572 98.4338 201.457 98.3651C201.091 98.182 200.93 97.7012 201.136 97.335C202.854 94.0157 206.061 91.2458 210.161 89.5518C210.551 89.3916 211.009 89.5747 211.169 89.9638C211.307 90.3759 211.123 90.8108 210.734 90.9711Z" fill="#393B3D"/>
<path d="M216.048 89.0253C216.002 89.4374 215.613 89.7578 215.201 89.6892C214.972 89.6663 214.743 89.735 214.445 89.8036C214.353 89.8265 214.284 89.8494 214.193 89.8723C214.124 89.8952 214.078 89.8952 214.01 89.8952C213.666 89.8952 213.345 89.6663 213.277 89.3229C213.185 88.9108 213.414 88.4988 213.826 88.3843C213.895 88.3614 213.964 88.3385 214.055 88.3156C214.422 88.2012 214.88 88.0867 215.384 88.1554C215.796 88.2241 216.094 88.6132 216.048 89.0253Z" fill="#393B3D"/>
<path d="M268.8 95.4578C268.64 96.694 268.571 97.7241 268.48 98.6398C268.09 103.355 267.77 104.386 261.585 105.164C261.562 105.164 261.516 105.164 261.493 105.164C261.104 105.164 260.783 104.889 260.738 104.5C260.692 104.088 260.99 103.699 261.402 103.653C263.876 103.333 265.433 103.035 266.097 102.348C266.693 101.73 266.785 100.586 266.968 98.5024C267.037 97.5639 267.128 96.5337 267.289 95.2518C267.334 94.8398 267.724 94.5422 268.136 94.588C268.548 94.6566 268.846 95.0458 268.8 95.4578Z" fill="#393B3D"/>
<path d="M263.28 77.053C263.28 77.4651 262.936 77.8084 262.524 77.8084H262.501C253.018 77.6711 242.642 77.6024 230.777 77.6024C230.364 77.6024 230.021 77.259 230.021 76.847C230.021 76.4349 230.364 76.0916 230.777 76.0916C242.665 76.0916 253.041 76.1602 262.524 76.2976C262.959 76.2747 263.303 76.6181 263.28 77.053Z" fill="#393B3D"/>
<path d="M263.28 84.035C263.28 84.447 262.936 84.7904 262.524 84.7904C259.065 84.7675 255.561 84.6759 252.148 84.5615C248.368 84.447 244.451 84.3326 240.603 84.3326C239.206 84.3326 237.923 84.3554 236.663 84.3783C236.251 84.4012 235.885 84.0578 235.885 83.6229C235.885 83.2108 236.205 82.8446 236.641 82.8446C237.923 82.8217 239.206 82.7988 240.626 82.7988C244.497 82.7988 248.414 82.9133 252.217 83.0277C255.607 83.1193 259.111 83.2337 262.547 83.2566C262.959 83.2795 263.28 83.6229 263.28 84.035Z" fill="#393B3D"/>
<path d="M263.28 91.0169C263.28 91.4289 262.936 91.7952 262.524 91.7952C262.135 91.7952 261.745 91.7952 261.333 91.7952C257.622 91.7952 253.866 91.635 250.224 91.4747C249.078 91.4289 247.933 91.3832 246.788 91.3374C246.375 91.3145 246.032 90.9711 246.055 90.5362C246.078 90.1241 246.421 89.7807 246.856 89.8036C248.002 89.8494 249.147 89.8952 250.292 89.941C254.301 90.1241 258.447 90.3073 262.501 90.2615C262.936 90.2615 263.28 90.6048 263.28 91.0169Z" fill="#393B3D"/>
<path d="M202.763 20.5108C202.763 20.9229 202.419 21.2662 201.984 21.2662H201.915C201.159 21.2662 197.403 21.5867 197.403 28.065C197.403 28.3626 197.403 28.6602 197.426 28.9349C197.449 29.347 197.128 29.7132 196.716 29.759C196.693 29.759 196.67 29.759 196.647 29.759C196.258 29.759 195.914 29.4614 195.891 29.0494C195.868 28.7289 195.868 28.4084 195.868 28.065C195.868 24.2193 197.449 19.7325 201.915 19.7325H201.984C202.442 19.7325 202.763 20.0759 202.763 20.5108Z" fill="#393B3D"/>
<path d="M243.054 26.4627C242.963 26.5084 242.848 26.5313 242.733 26.5313C242.436 26.5313 242.161 26.3711 242.023 26.0735C241.794 25.547 241.611 25.0205 241.428 24.494C240.626 22.159 240.008 20.3048 235.404 20.3048C234.968 20.3048 234.533 20.3277 234.121 20.3277C233.938 20.3277 233.732 20.3506 233.548 20.3506C233.113 20.3735 232.769 20.0301 232.769 19.5952C232.769 19.1831 233.09 18.8169 233.525 18.8169C233.709 18.8169 233.892 18.8169 234.098 18.794C234.533 18.7711 234.991 18.7711 235.427 18.7711C241.13 18.7711 242.069 21.541 242.894 24.0133C243.054 24.5169 243.237 24.9976 243.421 25.4554C243.604 25.8217 243.444 26.2795 243.054 26.4627Z" fill="#393B3D"/>
<path d="M245.688 35.6422C245.597 35.6879 245.482 35.7108 245.391 35.7108C245.093 35.7108 244.818 35.5277 244.68 35.253C244.222 34.1771 243.902 33.0325 243.581 31.9337C243.489 31.6361 243.398 31.3157 243.306 31.0181C243.192 30.606 243.421 30.194 243.833 30.0566C244.245 29.9422 244.658 30.1711 244.795 30.5831C244.887 30.8807 244.978 31.2012 245.07 31.4988C245.368 32.5518 245.688 33.6277 246.101 34.6349C246.261 35.047 246.078 35.4819 245.688 35.6422Z" fill="#393B3D"/>
<path d="M236.87 28.7289C236.893 29.1409 236.572 29.5072 236.137 29.5301C234.579 29.6217 233.044 29.6903 231.487 29.759C227.432 29.9421 223.264 30.1482 219.141 30.5602C219.118 30.5602 219.095 30.5602 219.072 30.5602C218.682 30.5602 218.362 30.2626 218.316 29.8735C218.27 29.4614 218.591 29.0723 219.003 29.0265C223.149 28.6144 227.364 28.4084 231.418 28.2253C232.953 28.1566 234.51 28.0879 236.045 27.9964C236.48 27.9735 236.847 28.294 236.87 28.7289Z" fill="#393B3D"/>
<path d="M238.129 36.0313C238.152 36.4434 237.809 36.8097 237.396 36.8325C232.792 37.0157 227.547 37.4964 222.92 37.9084L220.835 38.0916C220.813 38.0916 220.79 38.0916 220.767 38.0916C220.377 38.0916 220.034 37.794 220.011 37.4048C219.965 36.9928 220.286 36.6036 220.698 36.5807L222.782 36.3976C227.432 35.9627 232.701 35.4819 237.328 35.2988C237.763 35.2759 238.106 35.6193 238.129 36.0313Z" fill="#393B3D"/>
<path d="M239.527 43.7915C233.8 44.4096 228.669 45.0506 223.699 45.6915C218.705 46.3325 213.529 46.9964 207.733 47.6144C207.71 47.6144 207.687 47.6144 207.665 47.6144C207.275 47.6144 206.955 47.3168 206.909 46.9277C206.863 46.5156 207.161 46.1265 207.596 46.0807C213.368 45.4626 218.545 44.7988 223.515 44.1578C228.486 43.5168 233.617 42.853 239.366 42.2578C239.779 42.212 240.168 42.5096 240.214 42.9446C240.26 43.3795 239.962 43.7458 239.527 43.7915Z" fill="#393B3D"/>
<path d="M240.993 50.1554C234.716 50.8193 229.723 51.4602 223.974 52.1928C223.951 52.1928 223.905 52.1928 223.882 52.1928C223.493 52.1928 223.172 51.9181 223.126 51.5289C223.08 51.1169 223.378 50.7277 223.79 50.6819C229.563 49.9494 234.533 49.3084 240.832 48.6446C241.245 48.5988 241.634 48.8964 241.68 49.3313C241.726 49.7434 241.405 50.1096 240.993 50.1554Z" fill="#393B3D"/>
<path d="M241.703 56.4735C235.243 57.435 228.417 58.1446 221.797 58.8313C219.713 59.0374 217.652 59.2663 215.636 59.4723C215.613 59.4723 215.59 59.4723 215.544 59.4723C215.155 59.4723 214.834 59.1747 214.788 58.7856C214.743 58.3735 215.04 57.9844 215.476 57.9386C217.514 57.7097 219.576 57.5036 221.66 57.2976C228.257 56.6109 235.06 55.9012 241.496 54.9627C241.909 54.894 242.298 55.1916 242.367 55.6036C242.413 56.0157 242.115 56.4048 241.703 56.4735Z" fill="#393B3D"/>
<path d="M213.987 31.7735C213.826 31.2928 213.666 30.812 213.529 30.3771C213.162 29.2554 212.108 28.5458 210.917 28.6373C210.597 28.6602 210.253 28.6831 209.932 28.706C208.146 28.8434 206.29 28.9807 204.481 29.3012C203.725 29.4386 203.038 29.8964 202.648 30.5602C202.236 31.2241 202.144 32.0253 202.396 32.7578C203.152 35.0928 204.458 38.5036 204.985 39.8542C205.305 40.6554 206.084 41.2048 206.955 41.2048H207.023C209.864 41.1362 213.551 40.7699 214.88 39.488C216.186 38.2518 215.155 35.2301 213.987 31.7735ZM213.803 38.3892C213.07 39.0988 210.459 39.5795 206.955 39.694C206.703 39.694 206.474 39.5566 206.382 39.3277C205.855 37.9771 204.549 34.612 203.816 32.3229C203.702 32.0024 203.748 31.659 203.931 31.3843C204.114 31.0867 204.389 30.9036 204.733 30.8349C206.474 30.5373 208.283 30.3771 210.047 30.2398C210.39 30.2169 210.711 30.194 211.055 30.1711C211.078 30.1711 211.123 30.1711 211.146 30.1711C211.582 30.1711 211.948 30.4458 212.085 30.8578C212.246 31.3157 212.406 31.7964 212.566 32.2771C213.185 34.2 214.399 37.8169 213.803 38.3892Z" fill="#393B3D"/>
<path d="M141.581 72.2229C141.444 72.3145 141.283 72.3831 141.123 72.3831C140.894 72.3831 140.665 72.2687 140.505 72.0627C137.115 67.4843 131.525 64.5084 125.914 64.3024C125.501 64.2795 125.158 63.9362 125.181 63.5012C125.203 63.0892 125.547 62.7458 125.982 62.7687C132.052 62.9976 138.077 66.2253 141.741 71.147C141.993 71.4904 141.925 71.9711 141.581 72.2229Z" fill="#393B3D"/>
<path d="M146.117 79.388C146.025 79.4337 145.91 79.4566 145.796 79.4566C145.498 79.4566 145.223 79.2964 145.086 78.9988C144.971 78.7241 144.788 78.4494 144.628 78.1518C144.307 77.6253 143.986 77.0988 143.826 76.4121C143.734 76 143.963 75.588 144.376 75.4735C144.788 75.3819 145.2 75.6109 145.315 76.0229C145.429 76.4807 145.681 76.8928 145.956 77.3506C146.139 77.6711 146.346 77.9916 146.506 78.3578C146.666 78.7699 146.506 79.2277 146.117 79.388Z" fill="#393B3D"/>
<path d="M145.956 118.304C145.452 118.967 144.971 119.7 144.513 120.41C142.841 122.905 141.123 125.492 138.145 126.751C138.054 126.796 137.939 126.819 137.848 126.819C137.55 126.819 137.275 126.636 137.137 126.361C136.977 125.972 137.16 125.514 137.55 125.354C140.115 124.255 141.627 121.989 143.253 119.563C143.734 118.853 144.238 118.098 144.742 117.388C144.994 117.045 145.475 116.976 145.819 117.228C146.139 117.48 146.208 117.96 145.956 118.304Z" fill="#393B3D"/>
<path d="M129.097 76.8699C129.097 77.2819 128.754 77.6253 128.342 77.6253C116.705 77.5566 104.107 77.1904 88.6686 76.4807C88.2563 76.4579 87.9127 76.0916 87.9357 75.6795C87.9586 75.2675 88.3251 74.9241 88.7374 74.947C104.153 75.6566 116.728 76.0229 128.342 76.0916C128.754 76.0916 129.097 76.435 129.097 76.8699Z" fill="#393B3D"/>
<path d="M118.423 85.7747C118.423 86.1868 118.08 86.5302 117.645 86.5302C113.567 86.4386 109.261 86.3928 104.886 86.3928C99.3886 86.3928 93.6164 86.4615 87.1798 86.5988H87.1569C86.7446 86.5988 86.401 86.2784 86.401 85.8434C86.401 85.4314 86.7217 85.0651 87.1569 85.0651C93.5934 84.9277 99.4115 84.8591 104.909 84.8591C109.307 84.8591 113.613 84.9048 117.713 84.9964C118.103 84.9964 118.446 85.3398 118.423 85.7747Z" fill="#393B3D"/>
<path d="M110.612 96.9687C110.59 97.3807 110.246 97.7012 109.857 97.7012H109.811C106.627 97.541 103.397 97.4723 100.259 97.4036C95.7694 97.3121 91.1195 97.2205 86.5384 96.8542C86.1261 96.8313 85.8054 96.4422 85.8283 96.0301C85.8512 95.6181 86.2406 95.2976 86.6529 95.3205C91.1883 95.6868 95.8152 95.7783 100.282 95.8699C103.42 95.9386 106.673 96.0072 109.879 96.1675C110.315 96.1904 110.635 96.5566 110.612 96.9687Z" fill="#393B3D"/>
<path d="M111.689 105.942C111.689 106.354 111.345 106.698 110.933 106.698C108.459 106.675 105.985 106.698 103.512 106.72C101.885 106.743 100.236 106.743 98.6097 106.743C95.6778 106.743 91.8296 106.698 87.8898 106.423C87.4775 106.4 87.1568 106.034 87.1797 105.599C87.2026 105.187 87.5691 104.866 88.0043 104.889C91.8983 105.164 95.7236 105.187 98.6097 105.187C100.236 105.187 101.862 105.164 103.512 105.164C105.985 105.141 108.482 105.118 110.956 105.141C111.345 105.187 111.689 105.53 111.689 105.942Z" fill="#393B3D"/>
<path d="M110.544 115.099C110.544 115.511 110.2 115.877 109.765 115.854C109.284 115.854 108.803 115.831 108.345 115.831C105.94 115.831 103.489 115.946 101.129 116.06C98.7242 116.175 96.2504 116.289 93.8224 116.289C91.8754 116.289 90.1345 116.22 88.4853 116.06C88.073 116.014 87.7523 115.648 87.7981 115.213C87.8439 114.801 88.2104 114.481 88.6456 114.527C90.2262 114.687 91.9212 114.755 93.8224 114.755C96.2275 114.755 98.6784 114.641 101.061 114.527C103.924 114.389 106.902 114.229 109.811 114.298C110.2 114.343 110.544 114.687 110.544 115.099Z" fill="#393B3D"/>
<path d="M132.258 89.5747C127.128 89.5747 123.234 90.788 120.645 93.2145C120.508 93.3289 120.279 93.5807 120.21 93.9928C120.027 94.9771 120.645 96.3735 122.088 98.3193C122.363 98.6856 122.798 98.9145 123.256 98.9374C123.76 98.9603 124.241 98.7771 124.585 98.4338C125.891 97.106 128.479 96.3506 129.83 96.8771C130.449 97.1289 130.747 97.6097 130.747 98.4109C130.77 100.402 129.83 100.906 128.273 101.73C125.776 103.035 122.363 104.821 123.211 114.275C123.325 115.694 126.83 115.923 127.883 115.923C127.952 115.923 128.021 115.923 128.067 115.923C130.701 115.808 130.976 114.435 130.976 113.863C130.976 108.781 133.335 106.423 135.626 104.157C137.596 102.211 139.611 100.174 139.611 96.6482C139.657 94.1988 138.122 89.5747 132.258 89.5747ZM134.595 103.035C132.213 105.416 129.487 108.117 129.487 113.84C129.487 113.908 129.487 114.023 129.235 114.137C128.135 114.664 125.501 114.229 124.745 113.863C124.081 105.667 126.692 104.294 129.029 103.081C130.678 102.211 132.373 101.341 132.327 98.388C132.304 96.9687 131.64 95.9386 130.449 95.4578C128.319 94.6109 125.089 95.7783 123.531 97.3578C123.486 97.4036 123.44 97.4265 123.394 97.4036C123.394 97.4036 123.348 97.4036 123.348 97.3807C121.859 95.435 121.745 94.588 121.745 94.3591V94.3133C124.035 92.1844 127.586 91.1084 132.281 91.1084C138.099 91.1084 138.168 96.3964 138.168 96.6253C138.145 99.5097 136.496 101.158 134.595 103.035Z" fill="#393B3D"/>
<path d="M130.93 120.593C130.838 119.196 129.533 117.823 127.242 117.914C125.387 117.983 123.417 119.196 123.417 121.692C123.417 122.973 123.966 123.981 124.974 124.53C125.478 124.805 126.074 124.942 126.692 124.942C127.517 124.942 128.364 124.69 129.12 124.233C130.357 123.408 131.021 122.081 130.93 120.593ZM128.25 122.928C127.425 123.454 126.372 123.546 125.684 123.18C125.181 122.905 124.929 122.401 124.929 121.692C124.929 119.631 126.898 119.471 127.288 119.448C127.334 119.448 127.357 119.448 127.402 119.448C128.342 119.448 129.349 119.883 129.395 120.707C129.487 121.943 128.708 122.63 128.25 122.928Z" fill="#393B3D"/>
<path d="M177.795 62.4482C174.291 62.4482 167.121 62.4482 165.747 62.9518C165.495 64.3482 165.816 71.6277 166.686 79.9831C167.74 90.3759 168.954 95.8928 169.664 96.8084H169.778C172.092 96.8084 172.275 96.7169 172.435 96.0301C175.138 85.2253 177.177 74.5807 178.689 63.5012C178.734 63.2265 178.643 62.9518 178.46 62.7458C178.299 62.5626 178.047 62.4482 177.795 62.4482Z" fill="#1AD769" fill-opacity="0.79"/>
<path d="M170.488 106.72C169.572 106.72 168.633 107.407 168.633 108.552C168.633 109.925 169.755 110.978 170.717 110.978C171.061 110.978 171.313 110.841 171.542 110.566C171.748 110.292 172 109.719 172 108.643C172 107.98 171.84 107.476 171.519 107.155C171.176 106.789 170.763 106.72 170.488 106.72Z" fill="#1AD769" fill-opacity="0.79"/>
<path d="M235.427 20.3048C235.427 20.3048 235.404 20.3048 235.427 20.3048C237.145 20.5337 238.885 20.9229 240.26 21.953C239.458 20.9458 238.129 20.3048 235.427 20.3048Z" fill="#1AD769" fill-opacity="0.79"/>
</g>
<defs>
<clipPath id="clip0">
<rect width="274" height="152" fill="white"/>
</clipPath>
</defs>
</svg>
