<svg width="10" height="14" viewBox="0 0 10 14" fill="none" xmlns="http://www.w3.org/2000/svg">
<path d="M5.4309 1.61115L4.84496 1.23254L1.17188 3.60591V13.2153H2.34375V3.60591L5.4309 1.61115Z" fill="#DEDFE0"/>
<path d="M3.65004 5.12646H2.34766C2.2855 5.12646 2.22588 5.14774 2.18193 5.18561C2.13797 5.22348 2.11328 5.27483 2.11328 5.32839V6.82457C2.11328 6.87812 2.13797 6.92948 2.18193 6.96735C2.22588 7.00522 2.2855 7.02649 2.34766 7.02649H3.65012C3.71228 7.02649 3.77189 7.00522 3.81585 6.96735C3.8598 6.92948 3.88449 6.87812 3.88449 6.82457V5.32839C3.88449 5.30187 3.87843 5.2756 3.86665 5.2511C3.85486 5.2266 3.83759 5.20433 3.81582 5.18558C3.79405 5.16683 3.7682 5.15196 3.73976 5.14182C3.71131 5.13167 3.68083 5.12646 3.65004 5.12646ZM3.41567 6.62265H2.58203V5.53031H3.41574L3.41567 6.62265Z" fill="#003050"/>
<path d="M6.03992 7.02649H7.34242C7.40458 7.02649 7.46419 7.00522 7.50814 6.96735C7.5521 6.92948 7.57679 6.87812 7.57679 6.82457V5.32839C7.57679 5.27483 7.5521 5.22348 7.50814 5.18561C7.46419 5.14774 7.40458 5.12646 7.34242 5.12646H6.03992C5.97776 5.12646 5.91814 5.14774 5.87419 5.18561C5.83023 5.22348 5.80554 5.27483 5.80554 5.32839V6.82457C5.80554 6.87812 5.83023 6.92948 5.87419 6.96735C5.91814 7.00522 5.97776 7.02649 6.03992 7.02649ZM6.27429 5.53031H7.10804V6.62265H6.27429V5.53031Z" fill="#1AD769" fill-opacity="0.79"/>
<path d="M3.65004 7.81958H2.34766C2.2855 7.81958 2.22588 7.84085 2.18193 7.87872C2.13797 7.91659 2.11328 7.96795 2.11328 8.0215V9.51768C2.11328 9.57124 2.13797 9.6226 2.18193 9.66047C2.22588 9.69833 2.2855 9.71961 2.34766 9.71961H3.65012C3.71228 9.71961 3.77189 9.69833 3.81585 9.66047C3.8598 9.6226 3.88449 9.57124 3.88449 9.51768V8.0215C3.88449 7.99498 3.87843 7.96872 3.86665 7.94422C3.85486 7.91971 3.83759 7.89745 3.81582 7.8787C3.79405 7.85995 3.7682 7.84507 3.73976 7.83493C3.71131 7.82479 3.68083 7.81957 3.65004 7.81958ZM3.41567 9.31576H2.58203V8.22343H3.41574L3.41567 9.31576Z" fill="#003050"/>
<path d="M6.03992 9.71961H7.34242C7.40458 9.71961 7.46419 9.69833 7.50814 9.66047C7.5521 9.6226 7.57679 9.57124 7.57679 9.51768V8.0215C7.57679 7.96795 7.5521 7.91659 7.50814 7.87872C7.46419 7.84085 7.40458 7.81958 7.34242 7.81958H6.03992C5.97776 7.81958 5.91814 7.84085 5.87419 7.87872C5.83023 7.91659 5.80554 7.96795 5.80554 8.0215V9.51768C5.80554 9.57124 5.83023 9.6226 5.87419 9.66047C5.91814 9.69833 5.97776 9.71961 6.03992 9.71961ZM6.27429 8.22343H7.10804V9.31576H6.27429V8.22343Z" fill="#003050"/>
<path d="M3.65004 10.5128H2.34766C2.2855 10.5128 2.22588 10.5341 2.18193 10.572C2.13797 10.6098 2.11328 10.6612 2.11328 10.7147V12.2109C2.11328 12.2645 2.13797 12.3158 2.18193 12.3537C2.22588 12.3916 2.2855 12.4128 2.34766 12.4128H3.65012C3.71228 12.4128 3.77189 12.3916 3.81585 12.3537C3.8598 12.3158 3.88449 12.2645 3.88449 12.2109V10.7147C3.88449 10.6882 3.87843 10.662 3.86665 10.6375C3.85486 10.6129 3.83759 10.5907 3.81582 10.5719C3.79405 10.5532 3.7682 10.5383 3.73976 10.5282C3.71131 10.518 3.68083 10.5128 3.65004 10.5128ZM3.41567 12.009H2.58203V10.9167H3.41574L3.41567 12.009Z" fill="#003050"/>
<path d="M6.03992 12.4128H7.34242C7.40458 12.4128 7.46419 12.3916 7.50814 12.3537C7.5521 12.3158 7.57679 12.2645 7.57679 12.2109V10.7147C7.57679 10.6612 7.5521 10.6098 7.50814 10.572C7.46419 10.5341 7.40458 10.5128 7.34242 10.5128H6.03992C5.97776 10.5128 5.91814 10.5341 5.87419 10.572C5.83023 10.6098 5.80554 10.6612 5.80554 10.7147V12.2109C5.80554 12.2645 5.83023 12.3158 5.87419 12.3537C5.91814 12.3916 5.97776 12.4128 6.03992 12.4128ZM6.27429 10.9167H7.10804V12.009H6.27429V10.9167Z" fill="#003050"/>
<path d="M8.9868 6.43565V3.50493C8.9868 3.47359 8.97832 3.44267 8.96205 3.41463C8.94578 3.38659 8.92215 3.3622 8.89304 3.3434L4.98559 0.818583C4.94502 0.792369 4.89567 0.778198 4.84496 0.778198C4.79425 0.778198 4.7449 0.792369 4.70434 0.818583L0.796875 3.34343C0.767767 3.36224 0.744141 3.38663 0.727869 3.41466C0.711597 3.4427 0.703125 3.47362 0.703125 3.50497V13.4172C0.703125 13.4708 0.727818 13.5222 0.771772 13.56C0.815726 13.5979 0.87534 13.6192 0.9375 13.6192H8.98699V13.2153L8.9868 6.43565L8.95521 6.43418C8.95521 6.43418 7.93839 6.38683 8.9868 6.43565C9.08625 6.43565 9.01525 6.44578 8.9868 6.43565C8.95834 6.42551 9.13482 6.44254 8.9868 6.43565ZM8.51805 13.2153H1.17187V3.6059L4.84496 1.23253L8.51805 3.6059V13.2153Z" fill="#003050"/>
</svg>
