<svg width="18" height="18" viewBox="0 0 18 18" fill="none" xmlns="http://www.w3.org/2000/svg">
<g clip-path="url(#clip0)">
<path d="M3.05178 3.58397V3.06029C3.05248 2.59672 3.34522 2.18393 3.78255 2.03016C3.66659 1.98924 3.54442 1.96837 3.4214 1.96851C2.81858 1.96907 2.33017 2.45762 2.32947 3.06044V3.58411C2.32933 3.93807 2.50088 4.27016 2.78966 4.47501C3.07844 4.67971 3.44848 4.73162 3.78255 4.61439C3.34522 4.46048 3.05234 4.04755 3.05178 3.58397Z" fill="#F0F0F0"/>
<path d="M1.16292 10.2255C1.16292 10.1925 1.156 6.9239 1.156 6.87876C1.15614 6.24758 1.66783 5.7359 2.299 5.7359H1.57669C0.945376 5.73576 0.433552 6.24744 0.433411 6.87876C0.433411 6.9239 0.440323 10.1925 0.440323 10.2255C0.440606 10.5044 0.666609 10.7306 0.945517 10.7308H0.950878C1.08476 10.7289 1.21215 10.6726 1.30385 10.575C1.21342 10.4811 1.16292 10.3559 1.16292 10.2255Z" fill="#F0F0F0"/>
<path d="M2.80429 17.0339L2.61059 10.4841L2.60636 10.2024C2.60551 10.0828 2.50774 9.9864 2.38811 9.98725C2.26834 9.98824 2.17212 10.086 2.17297 10.2056C2.17396 10.4014 2.0666 10.5817 1.89392 10.6743L2.08183 17.0339C2.09383 17.1285 2.17438 17.1993 2.26975 17.1989H2.99206C2.89683 17.1992 2.81628 17.1284 2.80429 17.0339Z" fill="#F0F0F0"/>
<path d="M4.94669 3.58395V3.06028C4.9426 2.22073 4.26092 1.5423 3.42137 1.5423C2.58183 1.5423 1.90015 2.22073 1.89606 3.06028V3.58395C1.90015 4.42349 2.58183 5.10179 3.42137 5.10179C4.26092 5.10179 4.9426 4.42349 4.94669 3.58395ZM2.32944 3.58395V3.06028C2.33029 2.4576 2.81884 1.96933 3.42137 1.96863C4.02405 1.96933 4.5126 2.45774 4.5133 3.06042V3.58409C4.50991 4.18465 4.02207 4.66981 3.42137 4.66981C2.82081 4.66981 2.33297 4.18465 2.32944 3.58409V3.58395Z" fill="#003050"/>
<path d="M0.945916 11.1643H0.956355C1.14018 11.1621 1.31906 11.1047 1.46987 10.9995L1.6489 17.0555C1.6489 17.0604 1.64932 17.0653 1.64974 17.0701C1.68008 17.3897 1.94897 17.6335 2.26992 17.6323H4.68443C5.00581 17.6335 5.27498 17.389 5.30461 17.069C5.30503 17.0641 5.30531 17.0591 5.30545 17.0542L5.4722 11.0101C5.76056 11.1998 6.13004 11.216 6.43392 11.0521C6.73794 10.8883 6.9274 10.5708 6.92726 10.2254V7.02664C7.00852 6.16424 6.37862 5.39792 5.51693 5.31059C5.47968 5.30692 5.07592 5.30424 4.31679 5.30269C4.2392 5.30312 4.16753 5.34445 4.12845 5.41146L3.47203 6.55573L2.85087 5.41555C2.81292 5.346 2.73998 5.30255 2.66056 5.30255H1.57653C0.705945 5.30255 0.000141076 6.00821 0 6.8788C0 6.92436 0.00663059 10.0917 0.00691272 10.2261C0.00761813 10.744 0.427461 11.1637 0.945493 11.1643H0.945916ZM0.440581 10.2255C0.440581 10.1925 0.433668 6.92394 0.433668 6.8788C0.433809 6.24762 0.945493 5.73594 1.57667 5.73594H2.53175L3.27678 7.10339C3.31444 7.17223 3.38625 7.21554 3.46469 7.21639C3.54327 7.21724 3.61606 7.17562 3.655 7.10748L4.44164 5.73636C4.85316 5.73735 5.41013 5.73961 5.47728 5.74229C6.10338 5.80803 6.55849 6.36782 6.49501 6.9942C6.49416 7.00139 6.49388 7.00859 6.49388 7.01606V10.2254C6.49176 10.4997 6.2714 10.7223 5.99715 10.7272C5.7229 10.7323 5.49464 10.5177 5.48264 10.2437L5.48222 10.222C5.48123 10.1024 5.38347 10.0062 5.26369 10.0072C5.14406 10.0081 5.04785 10.1061 5.04883 10.2257C5.04883 10.2354 5.04883 10.2452 5.04926 10.2549L5.05307 10.4864L4.87249 17.0337C4.86064 17.1285 4.77994 17.1996 4.68443 17.1992H2.26992C2.17455 17.1995 2.09399 17.1287 2.082 17.0342L1.8883 10.4843L1.88407 10.2027C1.88323 10.0829 1.78546 9.9867 1.66583 9.98755C1.54605 9.98854 1.44984 10.0862 1.45069 10.2059C1.45069 10.4925 1.2268 10.7281 0.950994 10.7312H0.945634C0.666726 10.7307 0.440722 10.5045 0.440581 10.2255Z" fill="#003050"/>
<path d="M16.5934 13.0682L15.4285 12.22V10.3542C15.4285 10.2345 15.3316 10.1375 15.2118 10.1375H14.2503C14.1305 10.1375 14.0336 10.2345 14.0336 10.3542V11.2046L12.3117 9.95096C12.2358 9.89566 12.1327 9.89566 12.0567 9.95096L7.77488 13.0682C7.67993 13.1393 7.65976 13.2734 7.72945 13.3692C7.79928 13.4652 7.93316 13.487 8.02994 13.4185L8.93988 12.7561V17.4156C8.93988 17.5354 9.0368 17.6323 9.15658 17.6323H15.2118C15.3316 17.6323 15.4285 17.5354 15.4285 17.4156V12.7561L16.3385 13.4185C16.4353 13.487 16.5691 13.4652 16.639 13.3692C16.7087 13.2734 16.6885 13.1393 16.5935 13.0682H16.5934ZM14.467 10.5709H14.9952V11.9046L14.4671 11.52L14.467 10.5709ZM11.9801 17.1989H11.096V15.257H11.9801V17.1989ZM14.995 17.1989H12.4135V15.0403C12.4135 14.9207 12.3164 14.8236 12.1968 14.8236H10.8793C10.7596 14.8236 10.6626 14.9207 10.6626 15.0403V17.1989H9.37327V12.4405L12.1842 10.3941L14.9952 12.4405L14.995 17.1989Z" fill="#003050"/>
<path d="M13.1593 15.1508H14.4767C14.5965 15.1508 14.6934 15.0539 14.6934 14.9341V13.946C14.6934 13.8264 14.5965 13.7293 14.4767 13.7293H13.1593C13.0395 13.7293 12.9426 13.8264 12.9426 13.946V14.9341C12.9426 15.0539 13.0395 15.1508 13.1593 15.1508ZM13.376 14.1628H14.26V14.7174H13.376V14.1628Z" fill="#003050"/>
<path d="M12.1752 9.19537C12.0554 9.19537 11.9585 9.29243 11.9585 9.41207V9.42194C11.9585 9.54158 12.0554 9.63864 12.1752 9.63864C12.2948 9.63864 12.3919 9.54158 12.3919 9.42194V9.41207C12.3919 9.29243 12.2948 9.19537 12.1752 9.19537Z" fill="#1AD769"/>
<path d="M12.3919 7.86928C12.3919 7.74951 12.2948 7.65259 12.1752 7.65259C12.0554 7.65259 11.9585 7.74951 11.9585 7.86928V8.92876C11.9585 9.04854 12.0554 9.14546 12.1752 9.14546C12.2948 9.14546 12.3919 9.04854 12.3919 8.92876V7.86928Z" fill="#1AD769"/>
<path d="M12.3919 6.23445C12.3919 6.11468 12.2948 6.01776 12.1752 6.01776C12.0554 6.01776 11.9585 6.11468 11.9585 6.23445V7.28251C11.9585 7.40228 12.0554 7.4992 12.1752 7.4992C12.2948 7.4992 12.3919 7.40228 12.3919 7.28251V6.23445Z" fill="#1AD769"/>
<path d="M11.1856 8.84857C11.0659 8.84857 10.9689 8.94563 10.9689 9.06527V9.12395C10.9689 9.24373 11.0659 9.34065 11.1856 9.34065C11.3053 9.34065 11.4023 9.24373 11.4023 9.12395V9.06527C11.4023 8.94563 11.3053 8.84857 11.1856 8.84857Z" fill="#1AD769"/>
<path d="M11.4023 6.73329C11.4023 6.61366 11.3053 6.5166 11.1856 6.5166C11.0659 6.5166 10.9689 6.61366 10.9689 6.73329V8.45259C10.9689 8.57236 11.0659 8.66928 11.1856 8.66928C11.3053 8.66928 11.4023 8.57236 11.4023 8.45259V6.73329Z" fill="#1AD769"/>
<path d="M13.0991 7.80902C12.9794 7.80902 12.8824 7.90608 12.8824 8.02571V8.70288C12.8824 8.82251 12.9794 8.91957 13.0991 8.91957C13.2189 8.91957 13.3158 8.82251 13.3158 8.70288V8.02571C13.3158 7.90608 13.2189 7.80902 13.0991 7.80902Z" fill="#1AD769"/>
<path d="M13.3158 6.45876C13.3158 6.33898 13.2189 6.24207 13.0991 6.24207C12.9794 6.24207 12.8824 6.33898 12.8824 6.45876V7.40679C12.8824 7.52642 12.9794 7.62348 13.0991 7.62348C13.2189 7.62348 13.3158 7.52642 13.3158 7.40679V6.45876Z" fill="#1AD769"/>
<path d="M10.3399 4.45649C10.3759 4.53634 10.4566 4.5867 10.5442 4.58374L10.9542 4.57076L10.969 6.26396C10.97 6.38289 11.0668 6.47882 11.1857 6.47882H11.1875C11.3073 6.47769 11.4034 6.37978 11.4024 6.26015L11.3856 4.34532C11.385 4.28692 11.3611 4.23133 11.319 4.19085C11.277 4.1505 11.2204 4.12877 11.162 4.13061L11.0535 4.13413L12.1418 2.97463L13.3014 4.06275L13.0923 4.06938C12.9754 4.07319 12.8824 4.16912 12.8824 4.28607V5.92693C12.8824 6.04656 12.9795 6.14362 13.0991 6.14362C13.2189 6.14362 13.3158 6.04656 13.3158 5.92693V4.49599L13.8379 4.47949C13.9255 4.47667 14.0028 4.4215 14.0339 4.3394C14.0648 4.25743 14.0433 4.16489 13.9794 4.10493L12.2803 2.5102C12.193 2.42824 12.0559 2.43261 11.974 2.51994L10.3793 4.21892C10.3193 4.28283 10.3038 4.37664 10.3399 4.45649Z" fill="#1AD769"/>
<path d="M15.9109 11.0687C15.9109 11.1884 16.0078 11.2854 16.1276 11.2854C16.2472 11.2854 16.3443 11.1884 16.3443 11.0687V10.7427C16.3443 10.6229 16.2472 10.526 16.1276 10.526C16.0078 10.526 15.9109 10.6229 15.9109 10.7427V11.0687Z" fill="#1AD769"/>
<path d="M15.9109 10.0112C15.9109 10.1308 16.0078 10.2279 16.1276 10.2279C16.2472 10.2279 16.3443 10.1308 16.3443 10.0112V7.37239C16.3443 7.25262 16.2472 7.1557 16.1276 7.1557C16.0078 7.1557 15.9109 7.25262 15.9109 7.37239V10.0112Z" fill="#1AD769"/>
<path d="M15.9109 6.88903C15.9109 7.00866 16.0078 7.10572 16.1276 7.10572C16.2472 7.10572 16.3443 7.00866 16.3443 6.88903V6.55172C16.3443 6.43208 16.2472 6.33502 16.1276 6.33502C16.0078 6.33502 15.9109 6.43208 15.9109 6.55172V6.88903Z" fill="#1AD769"/>
<path d="M16.1276 6.18184C16.2472 6.18184 16.3443 6.08478 16.3443 5.96515V4.91695C16.3443 4.79732 16.2472 4.70026 16.1276 4.70026C16.0078 4.70026 15.9109 4.79732 15.9109 4.91695V5.96515C15.9109 6.08478 16.0078 6.18184 16.1276 6.18184Z" fill="#1AD769"/>
<path d="M14.9212 8.8315C14.9212 8.95113 15.0183 9.04819 15.1379 9.04819C15.2575 9.04819 15.3546 8.95113 15.3546 8.8315V8.79482C15.3546 8.67504 15.2575 8.57812 15.1379 8.57812C15.0183 8.57812 14.9212 8.67504 14.9212 8.79482V8.8315Z" fill="#1AD769"/>
<path d="M15.1379 8.43537C15.2575 8.43537 15.3546 8.33831 15.3546 8.21867V5.41591C15.3546 5.29614 15.2575 5.19922 15.1379 5.19922C15.0183 5.19922 14.9212 5.29614 14.9212 5.41591V8.21867C14.9212 8.33831 15.0183 8.43537 15.1379 8.43537Z" fill="#1AD769"/>
<path d="M17.0513 6.49164C16.9317 6.49164 16.8347 6.58856 16.8347 6.70833V8.81446C16.8347 8.93409 16.9317 9.03115 17.0513 9.03115C17.1711 9.03115 17.268 8.93409 17.268 8.81446V6.70833C17.268 6.58856 17.1711 6.49164 17.0513 6.49164Z" fill="#1AD769"/>
<path d="M17.0513 9.37537C16.9317 9.37537 16.8347 9.47243 16.8347 9.59206V11.4273C16.8347 11.547 16.9317 11.644 17.0513 11.644C17.1711 11.644 17.268 11.547 17.268 11.4273V9.59206C17.268 9.47243 17.1711 9.37537 17.0513 9.37537Z" fill="#1AD769"/>
<path d="M17.0513 11.9943C16.9317 11.9943 16.8347 12.0914 16.8347 12.211V12.3257C16.8347 12.4453 16.9317 12.5424 17.0513 12.5424C17.1711 12.5424 17.268 12.4453 17.268 12.3257V12.211C17.268 12.0914 17.1711 11.9943 17.0513 11.9943Z" fill="#1AD769"/>
<path d="M17.0513 4.92456C16.9317 4.92456 16.8347 5.02162 16.8347 5.14125V6.08943C16.8347 6.20906 16.9317 6.30612 17.0513 6.30612C17.1711 6.30612 17.268 6.20906 17.268 6.08943V5.14125C17.268 5.02162 17.1711 4.92456 17.0513 4.92456Z" fill="#1AD769"/>
<path d="M16.2325 0.470365C16.1453 0.388541 16.0082 0.392914 15.9262 0.480099L14.3316 2.17908C14.2717 2.24299 14.2562 2.3368 14.2923 2.41651C14.3284 2.49636 14.4089 2.54658 14.4966 2.5439L14.906 2.53092L14.9212 4.68248C14.922 4.80154 15.0188 4.89762 15.1379 4.89762H15.1394C15.2591 4.89677 15.3554 4.79915 15.3546 4.67951L15.3378 2.30577C15.3374 2.24736 15.3135 2.19163 15.2713 2.15115C15.2293 2.11066 15.1726 2.08893 15.1143 2.09077L15.0057 2.09415L16.094 0.934646L17.2536 2.02291L17.0445 2.02954C16.9276 2.03321 16.8346 2.12914 16.8348 2.24623V4.6094C16.8348 4.72903 16.9317 4.82609 17.0514 4.82609C17.1711 4.82609 17.2681 4.72903 17.2681 4.6094V2.45615L17.7901 2.43965C17.8777 2.43697 17.955 2.38166 17.9861 2.2997C18.017 2.21759 17.9955 2.12505 17.9316 2.06509L16.2325 0.470365Z" fill="#1AD769"/>
<path d="M8.58651 10.7787C8.46687 10.7787 8.36981 10.8757 8.36981 10.9954V11.0687C8.36981 11.1884 8.46687 11.2854 8.58651 11.2854C8.70614 11.2854 8.8032 11.1884 8.8032 11.0687V10.9954C8.8032 10.8757 8.70614 10.7787 8.58651 10.7787Z" fill="#1AD769"/>
<path d="M8.58651 8.96991C8.46687 8.96991 8.36981 9.06697 8.36981 9.1866V10.1826C8.36981 10.3022 8.46687 10.3993 8.58651 10.3993C8.70614 10.3993 8.8032 10.3022 8.8032 10.1826V9.1866C8.8032 9.06697 8.70614 8.96991 8.58651 8.96991Z" fill="#1AD769"/>
<path d="M8.58651 7.99384C8.46687 7.99384 8.36981 8.0909 8.36981 8.21053V8.60004C8.36981 8.71967 8.46687 8.81673 8.58651 8.81673C8.70614 8.81673 8.8032 8.71967 8.8032 8.60004V8.21053C8.8032 8.0909 8.70614 7.99384 8.58651 7.99384Z" fill="#1AD769"/>
<path d="M7.59694 12.0877C7.47717 12.0877 7.38025 12.1846 7.38025 12.3044V12.4178C7.38025 12.5375 7.47717 12.6345 7.59694 12.6345C7.71657 12.6345 7.81364 12.5375 7.81364 12.4178V12.3044C7.81364 12.1846 7.71657 12.0877 7.59694 12.0877Z" fill="#1AD769"/>
<path d="M7.59694 10.1663C7.47717 10.1663 7.38025 10.2633 7.38025 10.383V11.6713C7.38025 11.7909 7.47717 11.8879 7.59694 11.8879C7.71657 11.8879 7.81364 11.7909 7.81364 11.6713V10.383C7.81364 10.2633 7.71657 10.1663 7.59694 10.1663Z" fill="#1AD769"/>
<path d="M7.59694 7.07654C7.47717 7.07654 7.38025 7.1736 7.38025 7.29323V9.77011C7.38025 9.88974 7.47717 9.9868 7.59694 9.9868C7.71657 9.9868 7.81364 9.88974 7.81364 9.77011V7.29323C7.81364 7.1736 7.71657 7.07654 7.59694 7.07654Z" fill="#1AD769"/>
<path d="M9.51039 9.78522C9.39062 9.78522 9.2937 9.88228 9.2937 10.0019V10.0204C9.2937 10.14 9.39062 10.2371 9.51039 10.2371C9.63003 10.2371 9.72709 10.14 9.72709 10.0204V10.0019C9.72709 9.88228 9.63003 9.78522 9.51039 9.78522Z" fill="#1AD769"/>
<path d="M9.51039 6.73615C9.39062 6.73615 9.2937 6.83306 9.2937 6.95284V9.38302C9.2937 9.50265 9.39062 9.59971 9.51039 9.59971C9.63003 9.59971 9.72709 9.50265 9.72709 9.38302V6.95284C9.72709 6.83306 9.63003 6.73615 9.51039 6.73615Z" fill="#1AD769"/>
<path d="M10.445 2.29956C10.4759 2.21759 10.4545 2.12505 10.3906 2.06495L8.69158 0.470365C8.60426 0.388541 8.46713 0.392914 8.38531 0.480099L6.79058 2.17908C6.73077 2.24299 6.71525 2.3368 6.75122 2.41651C6.78734 2.49636 6.86789 2.54658 6.9555 2.5439L7.36434 2.53092L7.38028 6.59208C7.38071 6.71143 7.47762 6.80793 7.59698 6.80793H7.59782C7.71745 6.80751 7.81409 6.71016 7.81367 6.59039L7.79688 2.30647C7.7966 2.24792 7.77276 2.19206 7.73072 2.15143C7.68853 2.1108 7.63182 2.08893 7.57327 2.09077L7.46465 2.09415L8.55305 0.934647L9.71255 2.02291L9.50348 2.02954C9.38653 2.03321 9.2937 2.12914 9.2937 2.24623V6.25618C9.2937 6.37581 9.39076 6.47287 9.51039 6.47287C9.63002 6.47287 9.72708 6.37581 9.72708 6.25618V2.45615L10.2492 2.43965C10.3368 2.43683 10.4141 2.38152 10.445 2.29956Z" fill="#1AD769"/>
</g>
<defs>
<clipPath id="clip0">
<rect width="18" height="18" fill="white"/>
</clipPath>
</defs>
</svg>
