<svg width="20" height="20" viewBox="0 0 20 20" fill="none" xmlns="http://www.w3.org/2000/svg">
<g clip-path="url(#clip0)">
<path d="M3.49042 4.00391H4.43227V17.6686H3.49042V4.00391Z" fill="#F0F0F0"/>
<path d="M11.7111 7.33508H12.653V18.0522H11.7111V7.33508Z" fill="#F0F0F0"/>
<path d="M19.5535 15.7544C19.4156 15.7544 19.3038 15.866 19.3038 16.0041V16.2954C19.3036 16.5012 19.1373 16.6684 18.9315 16.6699H18.9216V15.8486C19.4091 15.7324 19.7533 15.2973 19.7539 14.7961V13.6865C19.7539 13.0888 19.2695 12.6045 18.6719 12.6045C18.0744 12.6045 17.59 13.0888 17.59 13.6865V14.7961C17.5908 15.2973 17.9349 15.7324 18.4223 15.8486V17.9248C18.4223 18.0627 18.5341 18.1745 18.6719 18.1745C18.8098 18.1745 18.9216 18.0627 18.9216 17.9248V17.1693H18.9324C19.4135 17.1667 19.8024 16.7764 19.8032 16.2954V16.0041C19.8032 15.866 19.6915 15.7544 19.5535 15.7544ZM18.0893 14.7961V13.6865C18.0893 13.3646 18.3502 13.1039 18.6719 13.1039C18.9938 13.1039 19.2546 13.3646 19.2546 13.6865V14.7961C19.2542 15.0209 19.1247 15.2254 18.9216 15.3216V15.1136C18.9216 14.9757 18.8098 14.8639 18.6719 14.8639C18.5341 14.8639 18.4223 14.9757 18.4223 15.1136V15.3216C18.2192 15.2254 18.0897 15.0209 18.0893 14.7961Z" fill="#1AD769" fill-opacity="0.79"/>
<path d="M17.3242 16.4529V7.48443C17.3242 7.34642 17.2124 7.23474 17.0745 7.23474H11.7687C11.6307 7.23474 11.519 7.34642 11.519 7.48443V17.9365H12.0184V14.8086H13.2876V17.9365H13.787V14.8086H15.0562V16.4356C14.6305 16.5164 14.3285 16.897 14.3463 17.3297C14.3642 17.7626 14.697 18.1168 15.1278 18.162C15.5587 18.2072 15.9574 17.9295 16.0647 17.5098C16.172 17.0901 15.9553 16.6551 15.5556 16.488V14.8086H16.8248V16.4618C16.4107 16.5933 16.1558 17.0087 16.2262 17.4375C16.2965 17.8662 16.6709 18.1784 17.1054 18.1705C17.5398 18.1627 17.9026 17.8374 17.9575 17.4063C18.0125 16.9753 17.7428 16.5693 17.3242 16.4529ZM15.218 17.6686C15.0112 17.6686 14.8434 17.5009 14.8434 17.2941C14.8434 17.0872 15.0112 16.9196 15.218 16.9196C15.4249 16.9196 15.5925 17.0872 15.5925 17.2941C15.5923 17.5009 15.4247 17.6683 15.218 17.6686ZM16.8248 12.5406H15.5556V11.2714H16.8248V12.5406ZM15.0562 9.50274V10.772H13.787V9.50274H15.0562ZM13.787 9.00336V7.73412H15.0562V9.00336H13.787ZM13.2876 10.772H12.0184V9.50274H13.2876V10.772ZM13.2876 11.2714V12.5406H12.0184V11.2714H13.2876ZM13.787 11.2714H15.0562V12.5406H13.787V11.2714ZM16.8248 10.772H15.5556V9.50274H16.8248V10.772ZM16.8248 9.00336H15.5556V7.73412H16.8248V9.00336ZM13.2876 7.73412V9.00336H12.0184V7.73412H13.2876ZM12.0184 14.3092V13.04H13.2876V14.3092H12.0184ZM13.787 14.3092V13.04H15.0562V14.3092H13.787ZM15.5556 14.3092V13.04H16.8248V14.3092H15.5556ZM17.0906 17.6686C16.8839 17.6686 16.7161 17.5009 16.7161 17.2941C16.7161 17.0872 16.8839 16.9196 17.0906 16.9196C17.2976 16.9196 17.4652 17.0872 17.4652 17.2941C17.465 17.5009 17.2974 17.6683 17.0906 17.6686Z" fill="#1AD769" fill-opacity="0.79"/>
<path d="M19.7504 17.6869H10.6659V3.9472C10.6659 3.80919 10.554 3.69752 10.4162 3.69752H9.48684V3.49286H9.82658C9.96443 3.49286 10.0763 3.38102 10.0763 3.24317V2.06414C10.0763 1.92613 9.96443 1.81445 9.82658 1.81445H3.93128C3.79327 1.81445 3.6816 1.92613 3.6816 2.06414V3.24317C3.6816 3.38102 3.79327 3.49286 3.93128 3.49286H4.27103V3.69752H3.34169C3.20368 3.69752 3.092 3.80919 3.092 3.9472V16.4558C2.84264 16.528 2.63863 16.7076 2.53524 16.9458C2.43202 17.1838 2.44015 17.4555 2.55768 17.6869H2.2441C2.43023 17.3193 2.33448 16.8715 2.01392 16.6124C1.69352 16.3532 1.23543 16.3532 0.915035 16.6124C0.594472 16.8715 0.498726 17.3193 0.685016 17.6869H0.249688C0.111839 17.6869 0 17.7987 0 17.9366C0 18.0746 0.111839 18.1862 0.249688 18.1862H19.7504C19.8882 18.1862 20.0001 18.0746 20.0001 17.9366C20.0001 17.7987 19.8882 17.6869 19.7504 17.6869ZM1.46448 16.9196C1.67141 16.9196 1.83901 17.0872 1.83901 17.2941C1.83901 17.5009 1.67141 17.6687 1.46448 17.6687C1.25771 17.6687 1.08995 17.5009 1.08995 17.2941C1.09027 17.0874 1.25771 16.9198 1.46448 16.9196ZM5.2098 16.9196C5.41673 16.9196 5.58433 17.0872 5.58433 17.2941C5.58433 17.5009 5.41673 17.6687 5.2098 17.6687C5.00302 17.6687 4.83526 17.5009 4.83526 17.2941C4.83559 17.0874 5.00302 16.9198 5.2098 16.9196ZM5.36 16.434V14.8086H6.62925V17.6869H5.98942C6.11459 17.4403 6.11524 17.1488 5.99105 16.9016C5.86685 16.6543 5.63261 16.4807 5.36 16.434ZM6.62925 4.19689V5.46614H5.36V4.19689H6.62925ZM10.1665 14.3093H8.89724V13.04H10.1665V14.3093ZM7.12862 9.00338V7.73414H8.39787V9.00338H7.12862ZM8.39787 9.50276V10.772H7.12862V9.50276H8.39787ZM6.62925 9.00338H5.36V7.73414H6.62925V9.00338ZM6.62925 9.50276V10.772H5.36V9.50276H6.62925ZM6.62925 11.2714V12.5406H5.36V11.2714H6.62925ZM7.12862 11.2714H8.39787V12.5406H7.12862V11.2714ZM8.39787 13.04V14.3093H7.12862V13.04H8.39787ZM10.1665 12.5406H8.89724V11.2714H10.1665V12.5406ZM10.1665 10.772H8.89724V9.50276H10.1665V10.772ZM10.1665 9.00338H8.89724V7.73414H10.1665V9.00338ZM10.1665 7.23476H8.89724V5.96551H10.1665V7.23476ZM8.39787 7.23476H7.12862V5.96551H8.39787V7.23476ZM7.12862 5.46614V4.19689H8.39787V5.46614H7.12862ZM6.62925 5.96551V7.23476H5.36V5.96551H6.62925ZM4.86062 7.23476H3.59138V5.96551H4.86062V7.23476ZM4.86062 7.73414V9.00338H3.59138V7.73414H4.86062ZM4.86062 9.50276V10.772H3.59138V9.50276H4.86062ZM4.86062 11.2714V12.5406H3.59138V11.2714H4.86062ZM4.86062 13.04V14.3093H3.59138V13.04H4.86062ZM5.36 13.04H6.62925V14.3093H5.36V13.04ZM7.12862 14.8086H8.39787V17.6869H7.12862V14.8086ZM8.89724 14.8086H10.1665V17.6869H8.89724V14.8086ZM10.1665 5.46614H8.89724V4.19689H10.1665V5.46614ZM4.18097 2.31383H9.5769V2.99348H4.18097V2.31383ZM4.7704 3.49286H8.98746V3.69752H4.7704V3.49286ZM4.86062 4.19689V5.46614H3.59138V4.19689H4.86062ZM3.33714 16.9196C3.54407 16.9196 3.71167 17.0872 3.71167 17.2941C3.71167 17.5009 3.54407 17.6687 3.33714 17.6687C3.13036 17.6687 2.96261 17.5009 2.96261 17.2941C2.96293 17.0874 3.13036 16.9198 3.33714 16.9196ZM3.59138 16.4581V14.8086H4.86062V16.4935C4.6402 16.589 4.46902 16.7712 4.38758 16.9971C4.30614 17.2231 4.32158 17.4728 4.43033 17.6869H4.11676C4.23348 17.4568 4.24226 17.187 4.14098 16.9498C4.03955 16.7127 3.8383 16.5327 3.59138 16.4581Z" fill="#003050" fill-opacity="0.7"/>
</g>
<defs>
<clipPath id="clip0">
<rect width="20" height="20" fill="white"/>
</clipPath>
</defs>
</svg>
