<svg width="275" height="50" viewBox="0 0 275 50" fill="none" xmlns="http://www.w3.org/2000/svg">
<path d="M1.16208 16C1.01541 16 0.898078 15.956 0.810078 15.868C0.722078 15.78 0.678078 15.6627 0.678078 15.516V3.922C0.678078 3.77533 0.722078 3.658 0.810078 3.57C0.898078 3.482 1.01541 3.438 1.16208 3.438H5.05608C6.88941 3.438 8.25341 3.9 9.14808 4.824C10.0427 5.73333 10.4901 7.06067 10.4901 8.806V15.516C10.4901 15.6627 10.4461 15.78 10.3581 15.868C10.2701 15.956 10.1527 16 10.0061 16H1.16208ZM9.14808 14.724V8.916C9.14808 6.11467 7.74741 4.714 4.94608 4.714H1.99808V14.724H9.14808ZM14.3708 10.94C14.2242 10.94 14.1068 10.896 14.0188 10.808C13.9308 10.72 13.8868 10.6027 13.8868 10.456V3.922C13.8868 3.77533 13.9308 3.658 14.0188 3.57C14.1068 3.482 14.2242 3.438 14.3708 3.438H14.7448C14.8915 3.438 15.0088 3.482 15.0968 3.57C15.1848 3.658 15.2288 3.77533 15.2288 3.922V10.456C15.2288 10.6027 15.1848 10.72 15.0968 10.808C15.0088 10.896 14.8915 10.94 14.7448 10.94H14.3708ZM26.0724 16C25.9258 16 25.8084 15.956 25.7204 15.868C25.6324 15.78 25.5884 15.6627 25.5884 15.516V8.916C25.5884 6.11467 24.1878 4.714 21.3864 4.714H18.7024C18.5558 4.714 18.4384 4.67 18.3504 4.582C18.2624 4.494 18.2184 4.37667 18.2184 4.23V3.922C18.2184 3.77533 18.2624 3.658 18.3504 3.57C18.4384 3.482 18.5558 3.438 18.7024 3.438H21.4964C23.3298 3.438 24.6938 3.9 25.5884 4.824C26.4831 5.73333 26.9304 7.06067 26.9304 8.806V15.516C26.9304 15.6627 26.8864 15.78 26.7984 15.868C26.7104 15.956 26.5931 16 26.4464 16H26.0724ZM30.8064 10.94C30.6597 10.94 30.5424 10.896 30.4544 10.808C30.3664 10.72 30.3224 10.6027 30.3224 10.456V3.922C30.3224 3.77533 30.3664 3.658 30.4544 3.57C30.5424 3.482 30.6597 3.438 30.8064 3.438H31.1804C31.3271 3.438 31.4444 3.482 31.5324 3.57C31.6204 3.658 31.6644 3.77533 31.6644 3.922V10.456C31.6644 10.6027 31.6204 10.72 31.5324 10.808C31.4444 10.896 31.3271 10.94 31.1804 10.94H30.8064ZM35.49 10.94C35.3433 10.94 35.226 10.896 35.138 10.808C35.05 10.72 35.006 10.6027 35.006 10.456V3.922C35.006 3.77533 35.05 3.658 35.138 3.57C35.226 3.482 35.3433 3.438 35.49 3.438H35.864C36.0107 3.438 36.128 3.482 36.216 3.57C36.304 3.658 36.348 3.77533 36.348 3.922V10.456C36.348 10.6027 36.304 10.72 36.216 10.808C36.128 10.896 36.0107 10.94 35.864 10.94H35.49ZM48.6656 3.438C48.8122 3.438 48.9296 3.482 49.0176 3.57C49.1056 3.658 49.1496 3.77533 49.1496 3.922V4.23C49.1496 4.37667 49.1056 4.494 49.0176 4.582C48.9296 4.67 48.8122 4.714 48.6656 4.714H47.2576C47.0229 4.91933 46.8396 5.25667 46.7076 5.726C46.5902 6.18067 46.5316 6.70867 46.5316 7.31V15.516C46.5316 15.6627 46.4876 15.78 46.3996 15.868C46.3116 15.956 46.1942 16 46.0476 16H45.6736C45.5269 16 45.4096 15.956 45.3216 15.868C45.2336 15.78 45.1896 15.6627 45.1896 15.516V7.2C45.1896 6.628 45.2409 6.122 45.3436 5.682C45.4609 5.242 45.6076 4.91933 45.7836 4.714H39.3816C39.2349 4.714 39.1176 4.67 39.0296 4.582C38.9416 4.494 38.8976 4.37667 38.8976 4.23V3.922C38.8976 3.77533 38.9416 3.658 39.0296 3.57C39.1176 3.482 39.2349 3.438 39.3816 3.438H48.6656ZM66.2004 16C66.0538 16 65.9364 15.956 65.8484 15.868C65.7604 15.78 65.7164 15.6627 65.7164 15.516V8.916C65.7164 6.11467 64.3158 4.714 61.5144 4.714H57.7304C57.5838 4.714 57.4664 4.67 57.3784 4.582C57.2904 4.494 57.2464 4.37667 57.2464 4.23V3.922C57.2464 3.77533 57.2904 3.658 57.3784 3.57C57.4664 3.482 57.5838 3.438 57.7304 3.438H61.6244C63.4578 3.438 64.8218 3.9 65.7164 4.824C66.6111 5.73333 67.0584 7.06067 67.0584 8.806V15.516C67.0584 15.6627 67.0144 15.78 66.9264 15.868C66.8384 15.956 66.7211 16 66.5744 16H66.2004ZM57.7304 16C57.5838 16 57.4664 15.956 57.3784 15.868C57.2904 15.78 57.2464 15.6627 57.2464 15.516V7.794C57.2464 7.64733 57.2904 7.53 57.3784 7.442C57.4664 7.354 57.5838 7.31 57.7304 7.31H58.1044C58.2511 7.31 58.3684 7.354 58.4564 7.442C58.5444 7.53 58.5884 7.64733 58.5884 7.794V15.516C58.5884 15.6627 58.5444 15.78 58.4564 15.868C58.3684 15.956 58.2511 16 58.1044 16H57.7304ZM75.7352 3.438C76.6152 3.438 77.3999 3.658 78.0892 4.098C78.7785 4.538 79.3139 5.16867 79.6952 5.99C80.0912 6.79667 80.2892 7.73533 80.2892 8.806V15.516C80.2892 15.6627 80.2452 15.78 80.1572 15.868C80.0692 15.956 79.9519 16 79.8052 16H74.2392C74.0925 16 73.9752 15.956 73.8872 15.868C73.7992 15.78 73.7552 15.6627 73.7552 15.516V15.208C73.7552 15.0613 73.7992 14.944 73.8872 14.856C73.9752 14.768 74.0925 14.724 74.2392 14.724H78.9472V8.916C78.9472 8.10933 78.8005 7.38333 78.5072 6.738C78.2285 6.09267 77.8325 5.594 77.3192 5.242C76.8205 4.89 76.2559 4.714 75.6252 4.714H73.0732L71.4452 15.494C71.4305 15.6407 71.3645 15.7653 71.2472 15.868C71.1445 15.956 71.0272 16 70.8952 16H70.4992C70.3672 16 70.2645 15.956 70.1912 15.868C70.1179 15.7653 70.0885 15.6407 70.1032 15.494L71.7092 4.714H70.7192C70.5725 4.714 70.4552 4.67 70.3672 4.582C70.2792 4.494 70.2352 4.37667 70.2352 4.23V3.922C70.2352 3.77533 70.2792 3.658 70.3672 3.57C70.4552 3.482 70.5725 3.438 70.7192 3.438H75.7352ZM90 16C89.8533 16 89.736 15.956 89.648 15.868C89.56 15.78 89.516 15.6627 89.516 15.516V3.922C89.516 3.77533 89.56 3.658 89.648 3.57C89.736 3.482 89.8533 3.438 90 3.438H90.374C90.5206 3.438 90.638 3.482 90.726 3.57C90.814 3.658 90.858 3.77533 90.858 3.922V15.516C90.858 15.6627 90.814 15.78 90.726 15.868C90.638 15.956 90.5206 16 90.374 16H90ZM98.8333 16.176C98.7893 16.1907 98.7306 16.198 98.6573 16.198C98.4226 16.198 98.3053 16.0807 98.3053 15.846V15.296C98.3053 15.0467 98.4593 14.8633 98.7673 14.746L99.6693 14.394C100.799 13.954 101.657 13.3453 102.243 12.568C102.845 11.7907 103.145 10.632 103.145 9.092C103.145 7.992 103.013 7.12667 102.749 6.496C102.485 5.86533 102.045 5.41067 101.429 5.132C100.828 4.85333 99.9993 4.714 98.9433 4.714H95.0273C94.8806 4.714 94.7633 4.67 94.6753 4.582C94.5873 4.494 94.5433 4.37667 94.5433 4.23V3.922C94.5433 3.77533 94.5873 3.658 94.6753 3.57C94.7633 3.482 94.8806 3.438 95.0273 3.438H99.0533C100.417 3.438 101.488 3.62867 102.265 4.01C103.057 4.37667 103.622 4.978 103.959 5.814C104.311 6.65 104.487 7.794 104.487 9.246C104.487 11.138 104.055 12.5827 103.189 13.58C102.339 14.5773 101.195 15.3327 99.7573 15.846L98.8333 16.176ZM95.0273 20.202C94.8806 20.202 94.7633 20.158 94.6753 20.07C94.5873 19.982 94.5433 19.8647 94.5433 19.718V7.794C94.5433 7.64733 94.5873 7.53 94.6753 7.442C94.7633 7.354 94.8806 7.31 95.0273 7.31H95.4013C95.548 7.31 95.6653 7.354 95.7533 7.442C95.8413 7.53 95.8853 7.64733 95.8853 7.794V19.718C95.8853 19.8647 95.8413 19.982 95.7533 20.07C95.6653 20.158 95.548 20.202 95.4013 20.202H95.0273ZM116.771 3.438C116.918 3.438 117.035 3.482 117.123 3.57C117.211 3.658 117.255 3.77533 117.255 3.922V4.23C117.255 4.37667 117.211 4.494 117.123 4.582C117.035 4.67 116.918 4.714 116.771 4.714H115.363C115.128 4.91933 114.945 5.25667 114.813 5.726C114.696 6.18067 114.637 6.70867 114.637 7.31V15.516C114.637 15.6627 114.593 15.78 114.505 15.868C114.417 15.956 114.3 16 114.153 16H113.779C113.632 16 113.515 15.956 113.427 15.868C113.339 15.78 113.295 15.6627 113.295 15.516V7.2C113.295 6.628 113.346 6.122 113.449 5.682C113.566 5.242 113.713 4.91933 113.889 4.714H107.487C107.34 4.714 107.223 4.67 107.135 4.582C107.047 4.494 107.003 4.37667 107.003 4.23V3.922C107.003 3.77533 107.047 3.658 107.135 3.57C107.223 3.482 107.34 3.438 107.487 3.438H116.771ZM120.108 16C119.961 16 119.844 15.956 119.756 15.868C119.668 15.78 119.624 15.6627 119.624 15.516V15.208C119.624 15.0613 119.668 14.944 119.756 14.856C119.844 14.768 119.961 14.724 120.108 14.724H126.73V8.916C126.73 6.11467 125.329 4.714 122.528 4.714H120.328C120.181 4.714 120.064 4.67 119.976 4.582C119.888 4.494 119.844 4.37667 119.844 4.23V3.922C119.844 3.77533 119.888 3.658 119.976 3.57C120.064 3.482 120.181 3.438 120.328 3.438H122.638C124.471 3.438 125.835 3.9 126.73 4.824C127.624 5.748 128.072 7.07533 128.072 8.806V14.724H128.908C129.054 14.724 129.172 14.768 129.26 14.856C129.348 14.944 129.392 15.0613 129.392 15.208V15.516C129.392 15.6627 129.348 15.78 129.26 15.868C129.172 15.956 129.054 16 128.908 16H120.108ZM140.709 12.392C140.577 12.392 140.467 12.348 140.379 12.26C140.291 12.172 140.247 12.062 140.247 11.93V11.05C140.277 10.2727 140.475 9.60533 140.841 9.048C141.208 8.49067 141.743 7.85267 142.447 7.134C143.019 6.54733 143.437 6.06333 143.701 5.682C143.965 5.30067 144.097 4.88267 144.097 4.428C144.097 3.75333 143.811 3.218 143.239 2.822C142.682 2.426 142.029 2.228 141.281 2.228C139.536 2.228 138.509 3.108 138.201 4.868C138.128 5.19067 137.937 5.352 137.629 5.352H136.573C136.427 5.352 136.309 5.308 136.221 5.22C136.133 5.132 136.089 5.01467 136.089 4.868C136.119 4.06133 136.346 3.32067 136.771 2.646C137.211 1.95667 137.827 1.40667 138.619 0.995999C139.411 0.585332 140.321 0.379999 141.347 0.379999C142.433 0.379999 143.342 0.570666 144.075 0.952C144.823 1.31867 145.373 1.80267 145.725 2.404C146.077 2.99067 146.253 3.62133 146.253 4.296C146.253 5.044 146.085 5.68933 145.747 6.232C145.41 6.77467 144.904 7.40533 144.229 8.124C143.672 8.71067 143.254 9.20933 142.975 9.62C142.697 10.016 142.535 10.4633 142.491 10.962C142.462 11.3727 142.447 11.6807 142.447 11.886C142.374 12.2233 142.191 12.392 141.897 12.392H140.709ZM140.533 16C140.387 16 140.262 15.956 140.159 15.868C140.071 15.7653 140.027 15.6407 140.027 15.494V14.152C140.027 14.0053 140.071 13.888 140.159 13.8C140.262 13.6973 140.387 13.646 140.533 13.646H141.963C142.11 13.646 142.235 13.6973 142.337 13.8C142.44 13.888 142.491 14.0053 142.491 14.152V15.494C142.491 15.6407 142.44 15.7653 142.337 15.868C142.235 15.956 142.11 16 141.963 16H140.533ZM149.273 16C149.126 16 149.001 15.956 148.899 15.868C148.811 15.7653 148.767 15.6407 148.767 15.494V3.944C148.767 3.78267 148.811 3.658 148.899 3.57C149.001 3.482 149.126 3.438 149.273 3.438H153.431C157.141 3.438 158.997 5.22733 158.997 8.806V15.494C158.997 15.6407 158.945 15.7653 158.843 15.868C158.755 15.956 158.637 16 158.491 16H149.273ZM157.105 14.306V8.916C157.105 6.39333 155.843 5.132 153.321 5.132H150.571V14.306H157.105ZM162.654 10.896C162.507 10.896 162.383 10.852 162.28 10.764C162.192 10.676 162.148 10.5587 162.148 10.412V3.944C162.148 3.78267 162.192 3.658 162.28 3.57C162.383 3.482 162.507 3.438 162.654 3.438H163.6C163.747 3.438 163.864 3.48933 163.952 3.592C164.055 3.68 164.106 3.79733 164.106 3.944V10.412C164.106 10.5587 164.055 10.676 163.952 10.764C163.864 10.852 163.747 10.896 163.6 10.896H162.654ZM172.806 16.22C170.884 16.22 169.484 15.7653 168.604 14.856C167.724 13.932 167.284 12.59 167.284 10.83V3.944C167.284 3.78267 167.328 3.658 167.416 3.57C167.518 3.482 167.643 3.438 167.79 3.438H168.626C168.772 3.438 168.89 3.48933 168.978 3.592C169.08 3.68 169.132 3.79733 169.132 3.944V10.72C169.132 11.9373 169.432 12.8687 170.034 13.514C170.65 14.1593 171.574 14.482 172.806 14.482C174.023 14.482 174.918 14.1887 175.49 13.602C176.076 13.0153 176.384 12.1133 176.414 10.896V10.214V8.608C176.399 7.42 176.142 6.53267 175.644 5.946C175.16 5.35933 174.5 5.066 173.664 5.066C173.4 5.066 173.099 5.11733 172.762 5.22C172.439 5.308 172.168 5.42533 171.948 5.572C171.889 5.616 171.816 5.638 171.728 5.638C171.625 5.638 171.53 5.60133 171.442 5.528C171.368 5.44 171.332 5.34467 171.332 5.242V4.604C171.332 4.428 171.346 4.296 171.376 4.208C171.405 4.10533 171.478 4.01733 171.596 3.944C171.918 3.73867 172.256 3.58467 172.608 3.482C172.96 3.37933 173.392 3.328 173.906 3.328C175.328 3.328 176.406 3.746 177.14 4.582C177.888 5.40333 178.276 6.67933 178.306 8.41C178.32 8.55667 178.328 8.98933 178.328 9.708C178.328 10.4267 178.32 10.8593 178.306 11.006C178.262 12.766 177.814 14.0787 176.964 14.944C176.113 15.7947 174.727 16.22 172.806 16.22ZM180.971 16C180.824 16 180.707 15.956 180.619 15.868C180.531 15.7653 180.487 15.6407 180.487 15.494V14.812C180.487 14.6653 180.531 14.548 180.619 14.46C180.707 14.3573 180.824 14.306 180.971 14.306H187.329V8.916C187.329 6.39333 186.067 5.132 183.545 5.132H181.191C181.044 5.132 180.927 5.088 180.839 5C180.751 4.89733 180.707 4.77267 180.707 4.626V3.944C180.707 3.79733 180.751 3.68 180.839 3.592C180.927 3.48933 181.044 3.438 181.191 3.438H183.655C187.409 3.438 189.287 5.23467 189.287 8.828V14.306H190.101C190.262 14.306 190.387 14.35 190.475 14.438C190.563 14.526 190.607 14.6507 190.607 14.812V15.494C190.607 15.6407 190.563 15.7653 190.475 15.868C190.387 15.956 190.262 16 190.101 16H180.971ZM195.484 3.438C196.833 3.438 197.896 3.62867 198.674 4.01C199.451 4.39133 200.016 5 200.368 5.836C200.72 6.65733 200.896 7.772 200.896 9.18C200.896 11.0573 200.434 12.524 199.51 13.58C198.6 14.6213 197.405 15.3913 195.924 15.89L195 16.198C194.97 16.2127 194.919 16.22 194.846 16.22C194.743 16.22 194.648 16.1833 194.56 16.11C194.486 16.0367 194.45 15.934 194.45 15.802V14.856C194.45 14.592 194.611 14.394 194.934 14.262L195.792 13.932C196.818 13.536 197.603 12.9787 198.146 12.26C198.688 11.5413 198.96 10.4853 198.96 9.092C198.96 8.10933 198.842 7.33933 198.608 6.782C198.373 6.21 197.984 5.79933 197.442 5.55C196.899 5.30067 196.158 5.176 195.22 5.176H194.538H194.472L192.448 5.154C192.301 5.154 192.176 5.11 192.074 5.022C191.986 4.934 191.942 4.81667 191.942 4.67V0.885999C191.942 0.739333 191.986 0.622 192.074 0.534C192.176 0.431333 192.301 0.379999 192.448 0.379999H193.306C193.452 0.379999 193.57 0.431333 193.658 0.534C193.76 0.622 193.812 0.739333 193.812 0.885999V3.438H195.484ZM209.397 3.438C213.123 3.438 214.985 5.22733 214.985 8.806V15.494C214.985 15.6407 214.941 15.7653 214.853 15.868C214.765 15.956 214.641 16 214.479 16H213.577C213.431 16 213.306 15.956 213.203 15.868C213.115 15.7653 213.071 15.6407 213.071 15.494V8.916C213.071 6.39333 211.81 5.132 209.287 5.132H207.681C207.535 6.056 207.425 6.826 207.351 7.442C207.293 8.04333 207.271 8.73267 207.285 9.51L207.329 15.494C207.329 15.6407 207.285 15.7653 207.197 15.868C207.109 15.956 206.985 16 206.823 16L203.787 15.956C203.641 15.956 203.516 15.912 203.413 15.824C203.325 15.736 203.281 15.6187 203.281 15.472V14.812C203.281 14.6653 203.325 14.548 203.413 14.46C203.516 14.3573 203.641 14.306 203.787 14.306L205.481 14.328V9.598C205.467 8.674 205.481 7.89667 205.525 7.266C205.584 6.62067 205.709 5.90933 205.899 5.132H204.711C204.565 5.132 204.44 5.088 204.337 5C204.249 4.89733 204.205 4.77267 204.205 4.626V3.944C204.205 3.78267 204.249 3.658 204.337 3.57C204.44 3.482 204.565 3.438 204.711 3.438H209.397ZM223.944 3.438C224.854 3.438 225.66 3.658 226.364 4.098C227.068 4.52333 227.618 5.13933 228.014 5.946C228.425 6.75267 228.63 7.706 228.63 8.806V15.494C228.63 15.6407 228.586 15.7653 228.498 15.868C228.41 15.956 228.293 16 228.146 16H222.47C222.324 16 222.199 15.956 222.096 15.868C222.008 15.7653 221.964 15.6407 221.964 15.494V14.812C221.964 14.6653 222.008 14.548 222.096 14.46C222.199 14.3573 222.324 14.306 222.47 14.306H226.716V8.938C226.716 8.19 226.584 7.53 226.32 6.958C226.071 6.386 225.719 5.946 225.264 5.638C224.81 5.31533 224.296 5.154 223.724 5.154H221.37L219.676 15.472C219.662 15.6187 219.603 15.7433 219.5 15.846C219.398 15.9487 219.273 16 219.126 16H218.224C218.078 16 217.96 15.9487 217.872 15.846C217.799 15.7433 217.77 15.6187 217.784 15.472L219.544 5.176H218.422C218.276 5.176 218.151 5.132 218.048 5.044C217.96 4.94133 217.916 4.81667 217.916 4.67V3.944C217.916 3.79733 217.96 3.68 218.048 3.592C218.151 3.48933 218.276 3.438 218.422 3.438H223.944ZM237.831 18.728C237.685 18.728 237.56 18.684 237.457 18.596C237.369 18.508 237.325 18.3833 237.325 18.222V3.944C237.325 3.78267 237.369 3.658 237.457 3.57C237.56 3.482 237.685 3.438 237.831 3.438H238.755C238.902 3.438 239.019 3.48933 239.107 3.592C239.195 3.68 239.239 3.79733 239.239 3.944V18.222C239.239 18.3687 239.195 18.486 239.107 18.574C239.019 18.6767 238.902 18.728 238.755 18.728H237.831ZM243.027 10.896C242.88 10.896 242.756 10.852 242.653 10.764C242.565 10.676 242.521 10.5587 242.521 10.412V3.944C242.521 3.78267 242.565 3.658 242.653 3.57C242.756 3.482 242.88 3.438 243.027 3.438H243.973C244.12 3.438 244.237 3.48933 244.325 3.592C244.428 3.68 244.479 3.79733 244.479 3.944V10.412C244.479 10.5587 244.428 10.676 244.325 10.764C244.237 10.852 244.12 10.896 243.973 10.896H243.027ZM248.119 10.896C247.972 10.896 247.847 10.852 247.745 10.764C247.657 10.676 247.613 10.5587 247.613 10.412V3.944C247.613 3.78267 247.657 3.658 247.745 3.57C247.847 3.482 247.972 3.438 248.119 3.438H249.065C249.211 3.438 249.329 3.48933 249.417 3.592C249.519 3.68 249.571 3.79733 249.571 3.944V10.412C249.571 10.5587 249.519 10.676 249.417 10.764C249.329 10.852 249.211 10.896 249.065 10.896H248.119ZM261.879 3.438C262.025 3.438 262.143 3.48933 262.231 3.592C262.333 3.68 262.385 3.79733 262.385 3.944V4.626C262.385 4.77267 262.333 4.89733 262.231 5C262.143 5.088 262.025 5.132 261.879 5.132H260.537C260.331 5.36667 260.17 5.71133 260.053 6.166C259.935 6.62067 259.877 7.14867 259.877 7.75V15.516C259.877 15.6627 259.825 15.78 259.723 15.868C259.635 15.956 259.517 16 259.371 16H258.447C258.3 16 258.183 15.956 258.095 15.868C258.007 15.78 257.963 15.6627 257.963 15.516V7.618C257.963 7.03133 258.007 6.52533 258.095 6.1C258.197 5.67467 258.337 5.352 258.513 5.132H252.463C252.316 5.132 252.191 5.088 252.089 5C252.001 4.89733 251.957 4.77267 251.957 4.626V3.944C251.957 3.79733 252.001 3.68 252.089 3.592C252.191 3.48933 252.316 3.438 252.463 3.438H261.879ZM273.928 3.438C274.074 3.438 274.192 3.48933 274.28 3.592C274.368 3.68 274.412 3.79733 274.412 3.944V10.016C274.412 11.3067 273.986 12.4653 273.136 13.492C272.3 14.5187 271.163 15.252 269.726 15.692L264.952 17.21C264.908 17.2247 264.849 17.232 264.776 17.232C264.658 17.232 264.556 17.1953 264.468 17.122C264.38 17.0487 264.336 16.9533 264.336 16.836V16.154C264.336 15.8167 264.453 15.6113 264.688 15.538L267.57 14.57L264.71 4.318C264.636 4.06867 264.6 3.922 264.6 3.878C264.6 3.76067 264.644 3.658 264.732 3.57C264.82 3.482 264.922 3.438 265.04 3.438H266.052C266.184 3.438 266.294 3.47467 266.382 3.548C266.47 3.60667 266.528 3.68 266.558 3.768L269.374 13.976C270.532 13.58 271.339 13.008 271.794 12.26C272.263 11.4973 272.498 10.5513 272.498 9.422V3.944C272.498 3.79733 272.542 3.68 272.63 3.592C272.732 3.48933 272.857 3.438 273.004 3.438H273.928ZM42.1056 45C41.959 45 41.8416 44.956 41.7536 44.868C41.6656 44.78 41.6216 44.6627 41.6216 44.516V43.46C41.6216 43.3133 41.6656 43.196 41.7536 43.108C41.8416 43.0053 41.959 42.954 42.1056 42.954H43.1616C43.3083 42.954 43.4256 43.0053 43.5136 43.108C43.6163 43.196 43.6676 43.3133 43.6676 43.46V44.516C43.6676 44.6627 43.6163 44.78 43.5136 44.868C43.4256 44.956 43.3083 45 43.1616 45H42.1056ZM47.3478 45C47.2011 45 47.0838 44.956 46.9958 44.868C46.9078 44.78 46.8638 44.6627 46.8638 44.516V43.46C46.8638 43.3133 46.9078 43.196 46.9958 43.108C47.0838 43.0053 47.2011 42.954 47.3478 42.954H48.4038C48.5505 42.954 48.6678 43.0053 48.7558 43.108C48.8585 43.196 48.9098 43.3133 48.9098 43.46V44.516C48.9098 44.6627 48.8585 44.78 48.7558 44.868C48.6678 44.956 48.5505 45 48.4038 45H47.3478ZM52.59 45C52.4433 45 52.326 44.956 52.238 44.868C52.15 44.78 52.106 44.6627 52.106 44.516V43.46C52.106 43.3133 52.15 43.196 52.238 43.108C52.326 43.0053 52.4433 42.954 52.59 42.954H53.646C53.7927 42.954 53.91 43.0053 53.998 43.108C54.1007 43.196 54.152 43.3133 54.152 43.46V44.516C54.152 44.6627 54.1007 44.78 53.998 44.868C53.91 44.956 53.7927 45 53.646 45H52.59ZM66.5442 45C66.3975 45 66.2802 44.956 66.1922 44.868C66.1042 44.78 66.0602 44.6627 66.0602 44.516V37.916C66.0602 35.1147 64.6595 33.714 61.8582 33.714H58.0742C57.9275 33.714 57.8102 33.67 57.7222 33.582C57.6342 33.494 57.5902 33.3767 57.5902 33.23V32.922C57.5902 32.7753 57.6342 32.658 57.7222 32.57C57.8102 32.482 57.9275 32.438 58.0742 32.438H61.9682C63.8015 32.438 65.1655 32.9 66.0602 33.824C66.9549 34.7333 67.4022 36.0607 67.4022 37.806V44.516C67.4022 44.6627 67.3582 44.78 67.2702 44.868C67.1822 44.956 67.0649 45 66.9182 45H66.5442ZM58.0742 45C57.9275 45 57.8102 44.956 57.7222 44.868C57.6342 44.78 57.5902 44.6627 57.5902 44.516V36.794C57.5902 36.6473 57.6342 36.53 57.7222 36.442C57.8102 36.354 57.9275 36.31 58.0742 36.31H58.4482C58.5949 36.31 58.7122 36.354 58.8002 36.442C58.8882 36.53 58.9322 36.6473 58.9322 36.794V44.516C58.9322 44.6627 58.8882 44.78 58.8002 44.868C58.7122 44.956 58.5949 45 58.4482 45H58.0742ZM77.7424 45C77.5957 45 77.4784 44.956 77.3904 44.868C77.3024 44.78 77.2584 44.6627 77.2584 44.516V37.916C77.2584 35.1147 75.8577 33.714 73.0564 33.714H70.3724C70.2257 33.714 70.1084 33.67 70.0204 33.582C69.9324 33.494 69.8884 33.3767 69.8884 33.23V32.922C69.8884 32.7753 69.9324 32.658 70.0204 32.57C70.1084 32.482 70.2257 32.438 70.3724 32.438H73.1664C74.9997 32.438 76.3637 32.9 77.2584 33.824C78.153 34.7333 78.6004 36.0607 78.6004 37.806V44.516C78.6004 44.6627 78.5564 44.78 78.4684 44.868C78.3804 44.956 78.263 45 78.1164 45H77.7424ZM82.4763 39.94C82.3296 39.94 82.2123 39.896 82.1243 39.808C82.0363 39.72 81.9923 39.6027 81.9923 39.456V32.922C81.9923 32.7753 82.0363 32.658 82.1243 32.57C82.2123 32.482 82.3296 32.438 82.4763 32.438H82.8503C82.997 32.438 83.1143 32.482 83.2023 32.57C83.2903 32.658 83.3343 32.7753 83.3343 32.922V39.456C83.3343 39.6027 83.2903 39.72 83.2023 39.808C83.1143 39.896 82.997 39.94 82.8503 39.94H82.4763ZM95.6519 32.438C95.7986 32.438 95.9159 32.482 96.0039 32.57C96.0919 32.658 96.1359 32.7753 96.1359 32.922V33.23C96.1359 33.3767 96.0919 33.494 96.0039 33.582C95.9159 33.67 95.7986 33.714 95.6519 33.714H94.2439C94.0092 33.9193 93.8259 34.2567 93.6939 34.726C93.5766 35.1807 93.5179 35.7087 93.5179 36.31V44.516C93.5179 44.6627 93.4739 44.78 93.3859 44.868C93.2979 44.956 93.1806 45 93.0339 45H92.6599C92.5132 45 92.3959 44.956 92.3079 44.868C92.2199 44.78 92.1759 44.6627 92.1759 44.516V36.2C92.1759 35.628 92.2272 35.122 92.3299 34.682C92.4472 34.242 92.5939 33.9193 92.7699 33.714H86.3679C86.2212 33.714 86.1039 33.67 86.0159 33.582C85.9279 33.494 85.8839 33.3767 85.8839 33.23V32.922C85.8839 32.7753 85.9279 32.658 86.0159 32.57C86.1039 32.482 86.2212 32.438 86.3679 32.438H95.6519ZM108.031 45C107.884 45 107.767 44.956 107.679 44.868C107.591 44.78 107.547 44.6627 107.547 44.516V37.916C107.547 35.1147 106.146 33.714 103.345 33.714H99.5605C99.4138 33.714 99.2965 33.67 99.2085 33.582C99.1205 33.494 99.0765 33.3767 99.0765 33.23V32.922C99.0765 32.7753 99.1205 32.658 99.2085 32.57C99.2965 32.482 99.4138 32.438 99.5605 32.438H103.455C105.288 32.438 106.652 32.9 107.547 33.824C108.441 34.7333 108.889 36.0607 108.889 37.806V44.516C108.889 44.6627 108.845 44.78 108.757 44.868C108.669 44.956 108.551 45 108.405 45H108.031ZM99.5605 45C99.4138 45 99.2965 44.956 99.2085 44.868C99.1205 44.78 99.0765 44.6627 99.0765 44.516V36.794C99.0765 36.6473 99.1205 36.53 99.2085 36.442C99.2965 36.354 99.4138 36.31 99.5605 36.31H99.9345C100.081 36.31 100.199 36.354 100.287 36.442C100.375 36.53 100.419 36.6473 100.419 36.794V44.516C100.419 44.6627 100.375 44.78 100.287 44.868C100.199 44.956 100.081 45 99.9345 45H99.5605ZM120.434 32.438C121.798 32.438 122.868 32.6287 123.646 33.01C124.438 33.3767 125.002 33.978 125.34 34.814C125.692 35.65 125.868 36.794 125.868 38.246C125.868 40.138 125.435 41.5827 124.57 42.58C123.719 43.5773 122.575 44.3327 121.138 44.846L120.214 45.176C120.17 45.1907 120.111 45.198 120.038 45.198C119.803 45.198 119.686 45.0807 119.686 44.846V44.296C119.686 44.0467 119.84 43.8633 120.148 43.746L121.05 43.394C122.179 42.954 123.037 42.3453 123.624 41.568C124.225 40.7907 124.526 39.632 124.526 38.092C124.526 36.992 124.394 36.1267 124.13 35.496C123.866 34.8653 123.426 34.4107 122.81 34.132C122.208 33.8533 121.38 33.714 120.324 33.714H119.576H119.51L117.794 33.692C117.647 33.692 117.53 33.6553 117.442 33.582C117.354 33.494 117.31 33.3767 117.31 33.23V29.864C117.31 29.7173 117.354 29.6 117.442 29.512C117.53 29.424 117.647 29.38 117.794 29.38H118.168C118.314 29.38 118.432 29.424 118.52 29.512C118.608 29.6 118.652 29.7173 118.652 29.864V32.438H120.434ZM137.21 32.438C137.356 32.438 137.474 32.482 137.562 32.57C137.65 32.658 137.694 32.7753 137.694 32.922V38.862C137.694 40.094 137.298 41.238 136.506 42.294C135.714 43.35 134.665 44.1127 133.36 44.582L128.85 46.21C128.762 46.2393 128.696 46.254 128.652 46.254C128.534 46.254 128.432 46.2173 128.344 46.144C128.27 46.0707 128.234 45.9827 128.234 45.88V45.594C128.234 45.2567 128.336 45.0513 128.542 44.978L131.556 43.878L128.63 33.318C128.556 33.0687 128.52 32.922 128.52 32.878C128.52 32.7607 128.564 32.658 128.652 32.57C128.74 32.482 128.842 32.438 128.96 32.438H129.356C129.488 32.438 129.598 32.4747 129.686 32.548C129.774 32.6067 129.832 32.68 129.862 32.768L132.876 43.394L133.096 43.306C134.298 42.866 135.142 42.2353 135.626 41.414C136.11 40.5927 136.352 39.5953 136.352 38.422V32.922C136.352 32.7753 136.396 32.658 136.484 32.57C136.572 32.482 136.689 32.438 136.836 32.438H137.21ZM147.406 45C147.26 45 147.142 44.956 147.054 44.868C146.966 44.78 146.922 44.6627 146.922 44.516V32.922C146.922 32.7753 146.966 32.658 147.054 32.57C147.142 32.482 147.26 32.438 147.406 32.438H151.3C153.134 32.438 154.498 32.9 155.392 33.824C156.287 34.7333 156.734 36.0607 156.734 37.806V44.516C156.734 44.6627 156.69 44.78 156.602 44.868C156.514 44.956 156.397 45 156.25 45H147.406ZM155.392 43.724V37.916C155.392 35.1147 153.992 33.714 151.19 33.714H148.242V43.724H155.392ZM160.615 39.94C160.468 39.94 160.351 39.896 160.263 39.808C160.175 39.72 160.131 39.6027 160.131 39.456V32.922C160.131 32.7753 160.175 32.658 160.263 32.57C160.351 32.482 160.468 32.438 160.615 32.438H160.989C161.136 32.438 161.253 32.482 161.341 32.57C161.429 32.658 161.473 32.7753 161.473 32.922V39.456C161.473 39.6027 161.429 39.72 161.341 39.808C161.253 39.896 161.136 39.94 160.989 39.94H160.615ZM164.903 45C164.756 45 164.639 44.956 164.551 44.868C164.463 44.78 164.419 44.6627 164.419 44.516V44.208C164.419 44.0613 164.463 43.944 164.551 43.856C164.639 43.768 164.756 43.724 164.903 43.724H171.525V37.916C171.525 35.1147 170.124 33.714 167.323 33.714H165.123C164.976 33.714 164.859 33.67 164.771 33.582C164.683 33.494 164.639 33.3767 164.639 33.23V32.922C164.639 32.7753 164.683 32.658 164.771 32.57C164.859 32.482 164.976 32.438 165.123 32.438H167.433C169.266 32.438 170.63 32.9 171.525 33.824C172.419 34.748 172.867 36.0753 172.867 37.806V43.724H173.703C173.849 43.724 173.967 43.768 174.055 43.856C174.143 43.944 174.187 44.0613 174.187 44.208V44.516C174.187 44.6627 174.143 44.78 174.055 44.868C173.967 44.956 173.849 45 173.703 45H164.903ZM188.294 32.438C188.44 32.438 188.558 32.482 188.646 32.57C188.734 32.658 188.778 32.7753 188.778 32.922V39.17C188.778 40.3873 188.536 41.4507 188.052 42.36C187.568 43.2693 186.886 43.966 186.006 44.45C185.126 44.9193 184.099 45.1393 182.926 45.11H181.452C180.586 45.11 179.787 44.8973 179.054 44.472C178.335 44.032 177.763 43.4087 177.338 42.602C176.912 41.7953 176.7 40.8567 176.7 39.786V32.922C176.7 32.7753 176.744 32.658 176.832 32.57C176.92 32.482 177.037 32.438 177.184 32.438H177.558C177.704 32.438 177.822 32.482 177.91 32.57C177.998 32.658 178.042 32.7753 178.042 32.922L178.13 39.5C179.626 39.3973 180.674 39.0307 181.276 38.4C181.877 37.7547 182.178 36.926 182.178 35.914V32.922C182.178 32.7753 182.222 32.658 182.31 32.57C182.398 32.482 182.515 32.438 182.662 32.438H183.036C183.182 32.438 183.3 32.482 183.388 32.57C183.476 32.658 183.52 32.7753 183.52 32.922V36.024C183.52 37.3293 183.072 38.4293 182.178 39.324C181.283 40.204 179.963 40.688 178.218 40.776C178.379 41.744 178.804 42.492 179.494 43.02C180.183 43.548 181.041 43.812 182.068 43.812H182.838C184.319 43.8413 185.456 43.4233 186.248 42.558C187.04 41.678 187.436 40.4973 187.436 39.016V32.922C187.436 32.7753 187.48 32.658 187.568 32.57C187.656 32.482 187.773 32.438 187.92 32.438H188.294ZM192.824 45C192.678 45 192.56 44.956 192.472 44.868C192.384 44.78 192.34 44.6627 192.34 44.516V32.922C192.34 32.7753 192.384 32.658 192.472 32.57C192.56 32.482 192.678 32.438 192.824 32.438H193.198C193.345 32.438 193.462 32.482 193.55 32.57C193.638 32.658 193.682 32.7753 193.682 32.922V44.516C193.682 44.6627 193.638 44.78 193.55 44.868C193.462 44.956 193.345 45 193.198 45H192.824ZM197.852 45C197.705 45 197.588 44.956 197.5 44.868C197.412 44.78 197.368 44.6627 197.368 44.516V32.922C197.368 32.7753 197.412 32.658 197.5 32.57C197.588 32.482 197.705 32.438 197.852 32.438H201.768C203.601 32.438 204.965 32.9 205.86 33.824C206.754 34.7333 207.202 36.0607 207.202 37.806V44.516C207.202 44.6627 207.158 44.78 207.07 44.868C206.982 44.956 206.864 45 206.718 45H206.344C206.197 45 206.08 44.956 205.992 44.868C205.904 44.78 205.86 44.6627 205.86 44.516V37.916C205.86 35.1147 204.459 33.714 201.658 33.714H198.71V44.516C198.71 44.6627 198.666 44.78 198.578 44.868C198.49 44.956 198.372 45 198.226 45H197.852ZM216.93 45C216.783 45 216.666 44.956 216.578 44.868C216.49 44.78 216.446 44.6627 216.446 44.516V32.922C216.446 32.7753 216.49 32.658 216.578 32.57C216.666 32.482 216.783 32.438 216.93 32.438H220.824C222.657 32.438 224.021 32.9 224.916 33.824C225.81 34.7333 226.258 36.0607 226.258 37.806V44.516C226.258 44.6627 226.214 44.78 226.126 44.868C226.038 44.956 225.92 45 225.774 45H216.93ZM224.916 43.724V37.916C224.916 35.1147 223.515 33.714 220.714 33.714H217.766V43.724H224.916ZM230.138 39.94C229.992 39.94 229.874 39.896 229.786 39.808C229.698 39.72 229.654 39.6027 229.654 39.456V32.922C229.654 32.7753 229.698 32.658 229.786 32.57C229.874 32.482 229.992 32.438 230.138 32.438H230.512C230.659 32.438 230.776 32.482 230.864 32.57C230.952 32.658 230.996 32.7753 230.996 32.922V39.456C230.996 39.6027 230.952 39.72 230.864 39.808C230.776 39.896 230.659 39.94 230.512 39.94H230.138ZM239.618 32.438C240.498 32.438 241.283 32.658 241.972 33.098C242.661 33.538 243.197 34.1687 243.578 34.99C243.974 35.7967 244.172 36.7353 244.172 37.806V44.516C244.172 44.6627 244.128 44.78 244.04 44.868C243.952 44.956 243.835 45 243.688 45H238.122C237.975 45 237.858 44.956 237.77 44.868C237.682 44.78 237.638 44.6627 237.638 44.516V44.208C237.638 44.0613 237.682 43.944 237.77 43.856C237.858 43.768 237.975 43.724 238.122 43.724H242.83V37.916C242.83 37.1093 242.683 36.3833 242.39 35.738C242.111 35.0927 241.715 34.594 241.202 34.242C240.703 33.89 240.139 33.714 239.508 33.714H236.956L235.328 44.494C235.313 44.6407 235.247 44.7653 235.13 44.868C235.027 44.956 234.91 45 234.778 45H234.382C234.25 45 234.147 44.956 234.074 44.868C234.001 44.7653 233.971 44.6407 233.986 44.494L235.592 33.714H234.602C234.455 33.714 234.338 33.67 234.25 33.582C234.162 33.494 234.118 33.3767 234.118 33.23V32.922C234.118 32.7753 234.162 32.658 234.25 32.57C234.338 32.482 234.455 32.438 234.602 32.438H239.618ZM255.968 32.438C256.115 32.438 256.232 32.482 256.32 32.57C256.408 32.658 256.452 32.7753 256.452 32.922V33.23C256.452 33.3767 256.408 33.494 256.32 33.582C256.232 33.67 256.115 33.714 255.968 33.714H254.56C254.326 33.9193 254.142 34.2567 254.01 34.726C253.893 35.1807 253.834 35.7087 253.834 36.31V44.516C253.834 44.6627 253.79 44.78 253.702 44.868C253.614 44.956 253.497 45 253.35 45H252.976C252.83 45 252.712 44.956 252.624 44.868C252.536 44.78 252.492 44.6627 252.492 44.516V36.2C252.492 35.628 252.544 35.122 252.646 34.682C252.764 34.242 252.91 33.9193 253.086 33.714H246.684C246.538 33.714 246.42 33.67 246.332 33.582C246.244 33.494 246.2 33.3767 246.2 33.23V32.922C246.2 32.7753 246.244 32.658 246.332 32.57C246.42 32.482 246.538 32.438 246.684 32.438H255.968ZM259.877 45C259.73 45 259.613 44.956 259.525 44.868C259.437 44.78 259.393 44.6627 259.393 44.516V32.922C259.393 32.7753 259.437 32.658 259.525 32.57C259.613 32.482 259.73 32.438 259.877 32.438H260.251C260.398 32.438 260.515 32.482 260.603 32.57C260.691 32.658 260.735 32.7753 260.735 32.922V44.516C260.735 44.6627 260.691 44.78 260.603 44.868C260.515 44.956 260.398 45 260.251 45H259.877ZM268.71 45.176C268.666 45.1907 268.608 45.198 268.534 45.198C268.3 45.198 268.182 45.0807 268.182 44.846V44.296C268.182 44.0467 268.336 43.8633 268.644 43.746L269.546 43.394C270.676 42.954 271.534 42.3453 272.12 41.568C272.722 40.7907 273.022 39.632 273.022 38.092C273.022 36.992 272.89 36.1267 272.626 35.496C272.362 34.8653 271.922 34.4107 271.306 34.132C270.705 33.8533 269.876 33.714 268.82 33.714H264.904C264.758 33.714 264.64 33.67 264.552 33.582C264.464 33.494 264.42 33.3767 264.42 33.23V32.922C264.42 32.7753 264.464 32.658 264.552 32.57C264.64 32.482 264.758 32.438 264.904 32.438H268.93C270.294 32.438 271.365 32.6287 272.142 33.01C272.934 33.3767 273.499 33.978 273.836 34.814C274.188 35.65 274.364 36.794 274.364 38.246C274.364 40.138 273.932 41.5827 273.066 42.58C272.216 43.5773 271.072 44.3327 269.634 44.846L268.71 45.176ZM264.904 49.202C264.758 49.202 264.64 49.158 264.552 49.07C264.464 48.982 264.42 48.8647 264.42 48.718V36.794C264.42 36.6473 264.464 36.53 264.552 36.442C264.64 36.354 264.758 36.31 264.904 36.31H265.278C265.425 36.31 265.542 36.354 265.63 36.442C265.718 36.53 265.762 36.6473 265.762 36.794V48.718C265.762 48.8647 265.718 48.982 265.63 49.07C265.542 49.158 265.425 49.202 265.278 49.202H264.904Z" fill="black"/>
</svg>
