<svg width="294" height="65" viewBox="0 0 294 65" fill="none" xmlns="http://www.w3.org/2000/svg">
<g filter="url(#filter0_d)">
<rect x="10" y="10" width="274" height="45" rx="20" fill="white"/>
</g>
<path d="M173.53 34.284C173.45 34.284 173.386 34.26 173.338 34.212C173.29 34.164 173.266 34.1 173.266 34.02V33.444C173.266 33.116 173.322 32.82 173.434 32.556C173.546 32.292 173.682 32.064 173.842 31.872C174.002 31.672 174.214 31.436 174.478 31.164C174.806 30.82 175.042 30.54 175.186 30.324C175.338 30.1 175.414 29.848 175.414 29.568C175.414 29.144 175.234 28.808 174.874 28.56C174.514 28.304 174.098 28.176 173.626 28.176C173.122 28.176 172.702 28.308 172.366 28.572C172.03 28.836 171.814 29.26 171.718 29.844C171.686 30.02 171.59 30.108 171.43 30.108H171.238C171.166 30.108 171.106 30.088 171.058 30.048C171.01 30 170.986 29.94 170.986 29.868C170.994 29.428 171.114 29.028 171.346 28.668C171.578 28.3 171.89 28.012 172.282 27.804C172.682 27.588 173.13 27.48 173.626 27.48C174.162 27.48 174.618 27.576 174.994 27.768C175.378 27.96 175.662 28.216 175.846 28.536C176.038 28.856 176.134 29.2 176.134 29.568C176.134 29.984 176.038 30.344 175.846 30.648C175.654 30.952 175.37 31.3 174.994 31.692C174.658 32.044 174.406 32.344 174.238 32.592C174.078 32.84 173.998 33.124 173.998 33.444V34.02C173.998 34.1 173.974 34.164 173.926 34.212C173.878 34.26 173.814 34.284 173.734 34.284H173.53ZM173.386 36C173.306 36 173.242 35.976 173.194 35.928C173.146 35.88 173.122 35.816 173.122 35.736V35.28C173.122 35.2 173.146 35.136 173.194 35.088C173.242 35.032 173.306 35.004 173.386 35.004H173.842C173.922 35.004 173.986 35.032 174.034 35.088C174.09 35.136 174.118 35.2 174.118 35.28V35.736C174.118 35.816 174.09 35.88 174.034 35.928C173.986 35.976 173.922 36 173.842 36H173.386ZM182.494 36C182.414 36 182.35 35.976 182.302 35.928C182.254 35.88 182.23 35.816 182.23 35.736V32.136C182.23 30.608 181.466 29.844 179.938 29.844H177.874C177.794 29.844 177.73 29.82 177.682 29.772C177.634 29.724 177.61 29.66 177.61 29.58V29.412C177.61 29.332 177.634 29.268 177.682 29.22C177.73 29.172 177.794 29.148 177.874 29.148H179.998C180.998 29.148 181.742 29.4 182.23 29.904C182.718 30.4 182.962 31.124 182.962 32.076V35.736C182.962 35.816 182.938 35.88 182.89 35.928C182.842 35.976 182.778 36 182.698 36H182.494ZM177.874 36C177.794 36 177.73 35.976 177.682 35.928C177.634 35.88 177.61 35.816 177.61 35.736V31.524C177.61 31.444 177.634 31.38 177.682 31.332C177.73 31.284 177.794 31.26 177.874 31.26H178.078C178.158 31.26 178.222 31.284 178.27 31.332C178.318 31.38 178.342 31.444 178.342 31.524V35.736C178.342 35.816 178.318 35.88 178.27 35.928C178.222 35.976 178.158 36 178.078 36H177.874ZM188.602 36C188.522 36 188.458 35.976 188.41 35.928C188.362 35.88 188.338 35.816 188.338 35.736V32.136C188.338 30.608 187.574 29.844 186.046 29.844H184.582C184.502 29.844 184.438 29.82 184.39 29.772C184.342 29.724 184.318 29.66 184.318 29.58V29.412C184.318 29.332 184.342 29.268 184.39 29.22C184.438 29.172 184.502 29.148 184.582 29.148H186.106C187.106 29.148 187.85 29.4 188.338 29.904C188.826 30.4 189.07 31.124 189.07 32.076V35.736C189.07 35.816 189.046 35.88 188.998 35.928C188.95 35.976 188.886 36 188.806 36H188.602ZM191.184 33.24C191.104 33.24 191.04 33.216 190.992 33.168C190.944 33.12 190.92 33.056 190.92 32.976V29.412C190.92 29.332 190.944 29.268 190.992 29.22C191.04 29.172 191.104 29.148 191.184 29.148H191.388C191.468 29.148 191.532 29.172 191.58 29.22C191.628 29.268 191.652 29.332 191.652 29.412V32.976C191.652 33.056 191.628 33.12 191.58 33.168C191.532 33.216 191.468 33.24 191.388 33.24H191.184ZM198.371 29.148C198.451 29.148 198.515 29.172 198.562 29.22C198.611 29.268 198.635 29.332 198.635 29.412V29.58C198.635 29.66 198.611 29.724 198.562 29.772C198.515 29.82 198.451 29.844 198.371 29.844H197.603C197.475 29.956 197.375 30.14 197.303 30.396C197.239 30.644 197.207 30.932 197.207 31.26V35.736C197.207 35.816 197.183 35.88 197.135 35.928C197.087 35.976 197.023 36 196.943 36H196.739C196.659 36 196.595 35.976 196.547 35.928C196.499 35.88 196.475 35.816 196.475 35.736V31.2C196.475 30.888 196.503 30.612 196.559 30.372C196.623 30.132 196.703 29.956 196.799 29.844H193.307C193.227 29.844 193.163 29.82 193.115 29.772C193.067 29.724 193.043 29.66 193.043 29.58V29.412C193.043 29.332 193.067 29.268 193.115 29.22C193.163 29.172 193.227 29.148 193.307 29.148H198.371ZM205.122 36C205.042 36 204.978 35.976 204.93 35.928C204.882 35.88 204.858 35.816 204.858 35.736V32.136C204.858 30.608 204.094 29.844 202.566 29.844H200.502C200.422 29.844 200.358 29.82 200.31 29.772C200.262 29.724 200.238 29.66 200.238 29.58V29.412C200.238 29.332 200.262 29.268 200.31 29.22C200.358 29.172 200.422 29.148 200.502 29.148H202.626C203.626 29.148 204.37 29.4 204.858 29.904C205.346 30.4 205.59 31.124 205.59 32.076V35.736C205.59 35.816 205.566 35.88 205.518 35.928C205.47 35.976 205.406 36 205.326 36H205.122ZM200.502 36C200.422 36 200.358 35.976 200.31 35.928C200.262 35.88 200.238 35.816 200.238 35.736V31.524C200.238 31.444 200.262 31.38 200.31 31.332C200.358 31.284 200.422 31.26 200.502 31.26H200.706C200.786 31.26 200.85 31.284 200.898 31.332C200.946 31.38 200.97 31.444 200.97 31.524V35.736C200.97 35.816 200.946 35.88 200.898 35.928C200.85 35.976 200.786 36 200.706 36H200.502ZM213.393 29.148C214.393 29.148 215.137 29.4 215.625 29.904C216.113 30.4 216.357 31.124 216.357 32.076V35.736C216.357 35.816 216.333 35.88 216.285 35.928C216.237 35.976 216.173 36 216.093 36H215.889C215.809 36 215.745 35.976 215.697 35.928C215.649 35.88 215.625 35.816 215.625 35.736V32.136C215.625 30.608 214.861 29.844 213.333 29.844H212.421C212.341 30.42 212.281 30.884 212.241 31.236C212.209 31.588 212.197 31.988 212.205 32.436V35.736C212.205 35.816 212.181 35.88 212.133 35.928C212.085 35.976 212.021 36 211.941 36L210.573 35.976C210.493 35.976 210.429 35.952 210.381 35.904C210.333 35.856 210.309 35.792 210.309 35.712V35.544C210.309 35.464 210.333 35.4 210.381 35.352C210.429 35.304 210.493 35.28 210.573 35.28L211.473 35.292V32.496V32.124C211.473 31.684 211.489 31.3 211.521 30.972C211.553 30.636 211.613 30.26 211.701 29.844H211.089C211.009 29.844 210.945 29.82 210.897 29.772C210.849 29.724 210.825 29.66 210.825 29.58V29.412C210.825 29.332 210.849 29.268 210.897 29.22C210.945 29.172 211.009 29.148 211.089 29.148H213.393ZM218.249 36C218.169 36 218.105 35.976 218.057 35.928C218.009 35.88 217.985 35.816 217.985 35.736V35.568C217.985 35.488 218.009 35.424 218.057 35.376C218.105 35.328 218.169 35.304 218.249 35.304H221.861V32.136C221.861 30.608 221.097 29.844 219.569 29.844H218.369C218.289 29.844 218.225 29.82 218.177 29.772C218.129 29.724 218.105 29.66 218.105 29.58V29.412C218.105 29.332 218.129 29.268 218.177 29.22C218.225 29.172 218.289 29.148 218.369 29.148H219.629C220.629 29.148 221.373 29.4 221.861 29.904C222.349 30.408 222.593 31.132 222.593 32.076V35.304H223.049C223.129 35.304 223.193 35.328 223.241 35.376C223.289 35.424 223.313 35.488 223.313 35.568V35.736C223.313 35.816 223.289 35.88 223.241 35.928C223.193 35.976 223.129 36 223.049 36H218.249ZM224.948 36C224.868 36 224.804 35.976 224.756 35.928C224.708 35.88 224.684 35.816 224.684 35.736V29.412C224.684 29.332 224.708 29.268 224.756 29.22C224.804 29.172 224.868 29.148 224.948 29.148H225.152C225.232 29.148 225.296 29.172 225.344 29.22C225.392 29.268 225.416 29.332 225.416 29.412V35.736C225.416 35.816 225.392 35.88 225.344 35.928C225.296 35.976 225.232 36 225.152 36H224.948ZM230.186 29.148C231.186 29.148 231.93 29.4 232.418 29.904C232.906 30.4 233.15 31.124 233.15 32.076V35.736C233.15 35.816 233.126 35.88 233.078 35.928C233.03 35.976 232.966 36 232.886 36H232.682C232.602 36 232.538 35.976 232.49 35.928C232.442 35.88 232.418 35.816 232.418 35.736V32.136C232.418 30.608 231.654 29.844 230.126 29.844H229.214C229.134 30.42 229.074 30.884 229.034 31.236C229.002 31.588 228.99 31.988 228.998 32.436V35.736C228.998 35.816 228.974 35.88 228.926 35.928C228.878 35.976 228.814 36 228.734 36L227.366 35.976C227.286 35.976 227.222 35.952 227.174 35.904C227.126 35.856 227.102 35.792 227.102 35.712V35.544C227.102 35.464 227.126 35.4 227.174 35.352C227.222 35.304 227.286 35.28 227.366 35.28L228.266 35.292V32.496V32.124C228.266 31.684 228.282 31.3 228.314 30.972C228.346 30.636 228.406 30.26 228.494 29.844H227.882C227.802 29.844 227.738 29.82 227.69 29.772C227.642 29.724 227.618 29.66 227.618 29.58V29.412C227.618 29.332 227.642 29.268 227.69 29.22C227.738 29.172 227.802 29.148 227.882 29.148H230.186ZM235.378 36C235.298 36 235.234 35.976 235.186 35.928C235.138 35.88 235.114 35.816 235.114 35.736V35.568C235.114 35.488 235.138 35.424 235.186 35.376C235.234 35.328 235.298 35.304 235.378 35.304H237.082C237.866 35.304 238.434 35.112 238.786 34.728C239.146 34.336 239.342 33.764 239.374 33.012C239.382 32.892 239.386 32.744 239.386 32.568C239.386 32.4 239.382 32.256 239.374 32.136C239.35 31.384 239.158 30.816 238.798 30.432C238.438 30.04 237.866 29.844 237.082 29.844H235.378C235.298 29.844 235.234 29.82 235.186 29.772C235.138 29.724 235.114 29.66 235.114 29.58V29.412C235.114 29.332 235.138 29.268 235.186 29.22C235.234 29.172 235.298 29.148 235.378 29.148H237.142C238.134 29.148 238.866 29.396 239.338 29.892C239.818 30.388 240.074 31.116 240.106 32.076C240.114 32.196 240.118 32.36 240.118 32.568C240.118 32.784 240.114 32.952 240.106 33.072C240.074 34.032 239.818 34.76 239.338 35.256C238.866 35.752 238.134 36 237.142 36H235.378ZM245.114 33.24C245.034 33.24 244.97 33.216 244.922 33.168C244.874 33.12 244.85 33.056 244.85 32.976V29.412C244.85 29.332 244.874 29.268 244.922 29.22C244.97 29.172 245.034 29.148 245.114 29.148H245.318C245.398 29.148 245.462 29.172 245.51 29.22C245.558 29.268 245.582 29.332 245.582 29.412V32.976C245.582 33.056 245.558 33.12 245.51 33.168C245.462 33.216 245.398 33.24 245.318 33.24H245.114ZM252.384 36C252.304 36 252.24 35.976 252.192 35.928C252.144 35.88 252.12 35.816 252.12 35.736V32.136C252.12 30.608 251.356 29.844 249.828 29.844H247.764C247.684 29.844 247.62 29.82 247.572 29.772C247.524 29.724 247.5 29.66 247.5 29.58V29.412C247.5 29.332 247.524 29.268 247.572 29.22C247.62 29.172 247.684 29.148 247.764 29.148H249.888C250.888 29.148 251.632 29.4 252.12 29.904C252.608 30.4 252.852 31.124 252.852 32.076V35.736C252.852 35.816 252.828 35.88 252.78 35.928C252.732 35.976 252.668 36 252.588 36H252.384ZM247.764 36C247.684 36 247.62 35.976 247.572 35.928C247.524 35.88 247.5 35.816 247.5 35.736V31.524C247.5 31.444 247.524 31.38 247.572 31.332C247.62 31.284 247.684 31.26 247.764 31.26H247.968C248.048 31.26 248.112 31.284 248.16 31.332C248.208 31.38 248.232 31.444 248.232 31.524V35.736C248.232 35.816 248.208 35.88 248.16 35.928C248.112 35.976 248.048 36 247.968 36H247.764ZM257.585 29.148C258.065 29.148 258.493 29.268 258.869 29.508C259.245 29.748 259.537 30.092 259.745 30.54C259.961 30.98 260.069 31.492 260.069 32.076V35.736C260.069 35.816 260.045 35.88 259.997 35.928C259.949 35.976 259.885 36 259.805 36H256.769C256.689 36 256.625 35.976 256.577 35.928C256.529 35.88 256.505 35.816 256.505 35.736V35.568C256.505 35.488 256.529 35.424 256.577 35.376C256.625 35.328 256.689 35.304 256.769 35.304H259.337V32.136C259.337 31.696 259.257 31.3 259.097 30.948C258.945 30.596 258.729 30.324 258.449 30.132C258.177 29.94 257.869 29.844 257.525 29.844H256.133L255.245 35.724C255.237 35.804 255.201 35.872 255.137 35.928C255.081 35.976 255.017 36 254.945 36H254.729C254.657 36 254.601 35.976 254.561 35.928C254.521 35.872 254.505 35.804 254.513 35.724L255.389 29.844H254.849C254.769 29.844 254.705 29.82 254.657 29.772C254.609 29.724 254.585 29.66 254.585 29.58V29.412C254.585 29.332 254.609 29.268 254.657 29.22C254.705 29.172 254.769 29.148 254.849 29.148H257.585Z" fill="black"/>
<ellipse cx="34" cy="32.5" rx="18" ry="18.5" fill="#003050"/>
<path d="M37.2088 38.9703C37.6358 38.5749 37.6361 37.8997 37.2096 37.5038L32.6087 33.2329C32.1825 32.8373 32.1825 32.1627 32.6087 31.7671L37.2096 27.4962C37.6361 27.1003 37.6358 26.4251 37.2088 26.0297L36.7767 25.6294C36.3933 25.2743 35.8011 25.2743 35.4176 25.6294L28.7921 31.7664C28.3648 32.1621 28.3648 32.8379 28.7921 33.2336L35.4176 39.3706C35.8011 39.7257 36.3933 39.7257 36.7767 39.3706L37.2088 38.9703Z" fill="white"/>
<defs>
<filter id="filter0_d" x="0" y="0" width="294" height="65" filterUnits="userSpaceOnUse" color-interpolation-filters="sRGB">
<feFlood flood-opacity="0" result="BackgroundImageFix"/>
<feColorMatrix in="SourceAlpha" type="matrix" values="0 0 0 0 0 0 0 0 0 0 0 0 0 0 0 0 0 0 127 0"/>
<feOffset/>
<feGaussianBlur stdDeviation="5"/>
<feColorMatrix type="matrix" values="0 0 0 0 0 0 0 0 0 0 0 0 0 0 0 0 0 0 0.15 0"/>
<feBlend mode="normal" in2="BackgroundImageFix" result="effect1_dropShadow"/>
<feBlend mode="normal" in="SourceGraphic" in2="effect1_dropShadow" result="shape"/>
</filter>
</defs>
</svg>
