<svg width="12" height="12" viewBox="0 0 12 12" fill="none" xmlns="http://www.w3.org/2000/svg">
<path d="M6.05713 3.08582H7.19999V5.22867H6.05713V3.08582Z" fill="#DEDFE0"/>
<path d="M8.88562 0.257202H10.0285V2.22863H8.88562V0.257202Z" fill="#DEDFE0"/>
<path d="M3.08569 6.08582H4.22855V8.0001H3.08569V6.08582Z" fill="#DEDFE0"/>
<path d="M1.39994 10.4572V8.85718H0.25708V11.3143H11.7428V10.4572H1.39994Z" fill="#DEDFE0"/>
<path d="M4.33818 2.53246C4.19611 2.53246 4.08104 2.41739 4.08104 2.27531V1.10389H2.90961C2.76753 1.10389 2.65247 0.988818 2.65247 0.846742C2.65247 0.704778 2.76753 0.5896 2.90961 0.5896H4.33818C4.48015 0.5896 4.59532 0.704778 4.59532 0.846742V2.27531C4.59532 2.41739 4.48015 2.53246 4.33818 2.53246Z" fill="#1AD769" fill-opacity="0.79"/>
<path d="M1.37613 4.09615C1.27223 4.09615 1.17848 4.03343 1.13863 3.93745C1.09879 3.84135 1.12078 3.73075 1.19433 3.6572L4.14399 0.707537C4.24444 0.607091 4.40727 0.607091 4.50772 0.707537C4.60805 0.807983 4.60805 0.970707 4.50772 1.07115L1.55805 4.02082C1.50984 4.06914 1.44444 4.09615 1.37613 4.09615Z" fill="#1AD769" fill-opacity="0.79"/>
<path d="M11.7429 0H8.88571C8.74375 0 8.62857 0.115179 8.62857 0.257143V2.82857H6.05714C5.91518 2.82857 5.8 2.94375 5.8 3.08571V5.82857H3.08571C2.94375 5.82857 2.82857 5.94375 2.82857 6.08571V8.6H0.257143C0.115179 8.6 0 8.71518 0 8.85714V11.3143C0 11.4563 0.115179 11.5714 0.257143 11.5714H11.7429C11.8848 11.5714 12 11.4563 12 11.3143V0.257143C12 0.115179 11.8848 0 11.7429 0ZM11.4857 11.0571H0.514286V9.11429H3.08571C3.22768 9.11429 3.34286 8.99911 3.34286 8.85714V6.34286H6.05714C6.19911 6.34286 6.31429 6.22768 6.31429 6.08571V3.34286H8.88571C9.02768 3.34286 9.14286 3.22768 9.14286 3.08571V0.514286H11.4857V11.0571Z" fill="#003050"/>
</svg>
