<svg width="26" height="26" viewBox="0 0 26 26" fill="none" xmlns="http://www.w3.org/2000/svg">
<path d="M4.12395 15.5573H0.558594L1.74688 25.3028H2.63864L1.57422 16.573H4.43361L4.12395 15.5573Z" fill="#F0F0F0"/>
<path d="M23.0659 15.4812L18.8642 17.7409C18.7812 17.2241 18.5168 16.7537 18.1184 16.4142C17.72 16.0746 17.2137 15.888 16.6903 15.8879H13.7292C13.1984 15.888 12.6745 15.768 12.1966 15.537L11.8914 15.3893C11.0764 14.995 10.1685 14.8329 9.26733 14.9209C8.3662 15.0088 7.50674 15.3434 6.78335 15.8879L6.04601 16.5445C5.65147 16.8956 5.16834 17.132 4.64902 17.228L4.6348 17.2326L4.94101 18.236C5.44606 18.1357 5.91518 17.9024 6.29991 17.5602L7.03726 16.9036C7.76065 16.3591 8.62011 16.0245 9.52123 15.9365C10.4224 15.8485 11.3303 16.0106 12.1453 16.4049L12.4505 16.5527C12.9284 16.7836 13.4523 16.9036 13.9831 16.9036H16.9442C17.4676 16.9037 17.9739 17.0902 18.3723 17.4298C18.7707 17.7694 19.0351 18.2397 19.1181 18.7566L23.3198 16.4968C23.5699 16.3616 23.8487 16.2882 24.1329 16.2828C24.4172 16.2774 24.6986 16.34 24.9537 16.4655L25.4412 16.1307C25.2046 15.7379 24.8258 15.4513 24.3836 15.3304C23.9413 15.2094 23.4694 15.2634 23.0659 15.4812Z" fill="#F0F0F0"/>
<path d="M22.921 15.213L22.7701 15.2942C22.2503 14.6475 21.3356 14.394 20.6408 14.7458L20.6341 14.7493L20.3079 14.925C19.9428 14.6108 19.4891 14.4177 19.0096 14.3724C18.53 14.3272 18.0483 14.4319 17.6308 14.6723L15.9562 15.5832H13.7292C13.2444 15.5826 12.766 15.473 12.3293 15.2625L12.024 15.1148C11.1591 14.694 10.1946 14.5207 9.23732 14.6142C8.28003 14.7077 7.36729 15.0643 6.60017 15.6445C6.5934 15.6495 6.58693 15.6548 6.58077 15.6604L5.84353 16.3167C5.5553 16.5733 5.21328 16.7621 4.84258 16.8692L4.41546 15.4682C4.39642 15.4058 4.35782 15.3511 4.30535 15.3122C4.25288 15.2734 4.18932 15.2524 4.12403 15.2524H0.558574C0.515444 15.2524 0.472806 15.2616 0.433479 15.2793C0.394151 15.297 0.359031 15.3228 0.330441 15.3551C0.30185 15.3874 0.280441 15.4254 0.267629 15.4666C0.254818 15.5078 0.250895 15.5512 0.256121 15.594L1.4444 25.3395C1.45341 25.4134 1.48914 25.4814 1.54486 25.5308C1.60058 25.5801 1.67243 25.6074 1.74685 25.6074H7.09524C7.14285 25.6074 7.1898 25.5962 7.23232 25.5748C7.27485 25.5534 7.31176 25.5223 7.34009 25.484C7.36843 25.4457 7.3874 25.4014 7.39549 25.3544C7.40358 25.3075 7.40056 25.2594 7.38667 25.2138L6.67771 22.8884L8.88416 21.4935C9.18316 21.3279 9.534 21.2824 9.86535 21.3663C9.87165 21.3678 9.878 21.3692 9.8844 21.3704L14.3354 22.19C15.5393 22.4055 16.7806 22.2302 17.8778 21.6899C17.8907 21.6835 17.9032 21.6762 17.915 21.668L25.614 16.382C25.6781 16.3381 25.7229 16.2713 25.7393 16.1954C25.7558 16.1196 25.7427 16.0402 25.7026 15.9737C25.4261 15.5131 24.9826 15.1769 24.4644 15.0352C23.9462 14.8935 23.3934 14.9571 22.921 15.213ZM20.9195 15.2881C21.3238 15.0853 21.8709 15.2283 22.22 15.5911L19.2649 17.1853L19.0652 17.2906C18.9703 17.0094 18.8261 16.7473 18.6395 16.5166L20.9195 15.2881ZM17.9254 15.2061L17.9327 15.202C18.2053 15.0444 18.5162 14.9648 18.8311 14.9721C19.146 14.9794 19.4528 15.0732 19.7179 15.2433L18.1771 16.0735C17.8737 15.8489 17.5232 15.6961 17.1521 15.6266L17.9254 15.2061ZM2.01686 24.998L0.902667 15.8618H3.89841L6.68381 24.998H2.01686ZM17.5883 21.1532C16.6133 21.6283 15.5126 21.7815 14.4449 21.5906L10.0039 20.7728C9.52198 20.6536 9.01279 20.7225 8.57988 20.9655C8.5751 20.9681 8.57043 20.9709 8.56581 20.9739L6.49338 22.284L5.02037 17.4523C5.4752 17.3194 5.89478 17.0869 6.24871 16.7718L6.97646 16.124C7.65394 15.6144 8.45893 15.3018 9.30274 15.2205C10.1465 15.1392 10.9964 15.2925 11.7587 15.6634L12.064 15.811C12.5835 16.0614 13.1526 16.1918 13.7292 16.1926H16.6903C17.1378 16.1932 17.5707 16.3516 17.9127 16.6401C18.2548 16.9286 18.4841 17.3285 18.5602 17.7694L16.3799 17.6708C15.6013 17.6357 14.8211 17.6718 14.049 17.7785C14.009 17.7836 13.9705 17.7965 13.9356 17.8166C13.9006 17.8367 13.8701 17.8635 13.8456 17.8955C13.8211 17.9275 13.8032 17.9641 13.7929 18.003C13.7826 18.042 13.7802 18.0826 13.7857 18.1225C13.7912 18.1624 13.8046 18.2008 13.8251 18.2355C13.8455 18.2702 13.8727 18.3005 13.905 18.3247C13.9372 18.3488 13.9739 18.3663 14.013 18.3762C14.0521 18.386 14.0927 18.388 14.1326 18.3821C14.8678 18.2806 15.6107 18.2462 16.3521 18.2795L18.8779 18.3938C18.8825 18.3938 18.887 18.3941 18.8917 18.3941C18.9725 18.3941 19.05 18.362 19.1071 18.3049C19.1643 18.2478 19.1964 18.1703 19.1964 18.0895C19.1964 18.0303 19.1936 17.9719 19.1896 17.9138L19.5515 17.723L23.2102 15.7492C23.5013 15.5915 23.8369 15.5362 24.1632 15.5921C24.4895 15.648 24.7876 15.812 25.0095 16.0575L17.5883 21.1532Z" fill="#003050"/>
<path d="M3.12305 23.5975C3.12305 23.7988 3.18274 23.9956 3.29458 24.163C3.40642 24.3303 3.56539 24.4608 3.75137 24.5378C3.93735 24.6149 4.142 24.635 4.33944 24.5957C4.53688 24.5565 4.71823 24.4595 4.86057 24.3172C5.00291 24.1748 5.09985 23.9935 5.13911 23.796C5.17838 23.5986 5.15822 23.3939 5.08117 23.208C5.00413 23.022 4.87367 22.863 4.70628 22.7512C4.5389 22.6394 4.34211 22.5797 4.1408 22.5797C3.87096 22.58 3.61227 22.6873 3.42146 22.8781C3.23066 23.0689 3.12334 23.3277 3.12305 23.5975ZM4.1408 23.1891C4.22159 23.189 4.30056 23.213 4.36773 23.2579C4.4349 23.3027 4.48726 23.3665 4.51818 23.4412C4.5491 23.5158 4.5572 23.5979 4.54145 23.6771C4.52569 23.7564 4.4868 23.8292 4.42968 23.8863C4.37256 23.9434 4.29978 23.9823 4.22056 23.9981C4.14133 24.0138 4.0592 24.0058 3.98457 23.9748C3.90993 23.9439 3.84614 23.8916 3.80126 23.8244C3.75638 23.7572 3.73242 23.6783 3.73242 23.5975C3.73254 23.4892 3.77563 23.3854 3.85222 23.3088C3.92881 23.2322 4.03265 23.1892 4.14096 23.1891H4.1408Z" fill="#003050"/>
<path d="M13.5257 6.81487C13.5257 6.73406 13.4936 6.65656 13.4365 6.59942C13.3794 6.54228 13.3019 6.51018 13.2211 6.51018H12.0782V0.756104C12.0782 0.675295 12.0461 0.597797 11.9889 0.540657C11.9318 0.483517 11.8543 0.451416 11.7735 0.451416C11.6927 0.451416 11.6152 0.483517 11.558 0.540657C11.5009 0.597797 11.4688 0.675295 11.4688 0.756104V6.51018H10.3259C10.2451 6.51018 10.1676 6.54228 10.1104 6.59942C10.0533 6.65656 10.0212 6.73406 10.0212 6.81487C10.0212 6.89567 10.0533 6.97317 10.1104 7.03031C10.1676 7.08745 10.2451 7.11955 10.3259 7.11955H10.4956L10.1245 8.39589L10.1123 11.8352C10.1127 12.1728 10.247 12.4965 10.4858 12.7353C10.7245 12.974 11.0483 13.1084 11.3859 13.1087H12.161C12.4987 13.1084 12.8224 12.974 13.0611 12.7353C13.2999 12.4965 13.4342 12.1728 13.4346 11.8352V11.5621C13.4346 11.4813 13.4025 11.4038 13.3454 11.3467C13.2882 11.2895 13.2107 11.2574 13.1299 11.2574C13.0491 11.2574 12.9716 11.2895 12.9145 11.3467C12.8573 11.4038 12.8252 11.4813 12.8252 11.5621V11.8352C12.825 12.0112 12.7549 12.18 12.6304 12.3045C12.5059 12.429 12.3371 12.4991 12.161 12.4994H11.3859C11.2098 12.4991 11.0411 12.429 10.9165 12.3045C10.792 12.18 10.722 12.0112 10.7217 11.8352V8.52421L11.1302 7.11955H12.4167L12.8252 8.52437V9.89678C12.8252 9.97759 12.8573 10.0551 12.9145 10.1122C12.9716 10.1694 13.0491 10.2015 13.1299 10.2015C13.2107 10.2015 13.2882 10.1694 13.3454 10.1122C13.4025 10.0551 13.4346 9.97759 13.4346 9.89678L13.4225 8.39589L13.0513 7.11955H13.2211C13.3019 7.11955 13.3794 7.08745 13.4365 7.03031C13.4936 6.97317 13.5257 6.89567 13.5257 6.81487Z" fill="#1AD769" fill-opacity="0.79"/>
<path d="M13.1299 10.4195C13.0491 10.4195 12.9716 10.4516 12.9144 10.5087C12.8573 10.5658 12.8252 10.6433 12.8252 10.7242V10.748C12.8252 10.8288 12.8573 10.9063 12.9144 10.9635C12.9716 11.0206 13.0491 11.0527 13.1299 11.0527C13.2107 11.0527 13.2882 11.0206 13.3453 10.9635C13.4025 10.9063 13.4346 10.8288 13.4346 10.748V10.7242C13.4346 10.6433 13.4025 10.5658 13.3453 10.5087C13.2882 10.4516 13.2107 10.4195 13.1299 10.4195Z" fill="#1AD769" fill-opacity="0.79"/>
<path d="M17.866 0.426592C17.8196 0.40339 17.7679 0.392445 17.7161 0.394796C17.6642 0.397147 17.6138 0.412717 17.5696 0.440026C17.5255 0.467336 17.489 0.50548 17.4637 0.550837C17.4384 0.596194 17.4252 0.64726 17.4252 0.699186V2.09887L16.5264 2.69748L15.6035 2.05195L15.6081 0.698678C15.6082 0.646679 15.5951 0.595501 15.5699 0.550004C15.5448 0.504507 15.5084 0.466202 15.4642 0.438727C15.4201 0.411252 15.3696 0.395519 15.3177 0.393022C15.2657 0.390525 15.214 0.401346 15.1674 0.42446C14.661 0.673932 14.2347 1.06063 13.9373 1.54052C13.6398 2.02041 13.4832 2.57418 13.4851 3.13877C13.4868 3.71925 13.6545 4.28714 13.9683 4.7755C14.2821 5.26387 14.729 5.65235 15.2562 5.89517V11.8503C15.2552 12.0163 15.2869 12.1808 15.3497 12.3344C15.4125 12.488 15.505 12.6276 15.6219 12.7453C15.7389 12.863 15.878 12.9564 16.0312 13.0202C16.1844 13.0839 16.3487 13.1167 16.5146 13.1167C16.6805 13.1167 16.8448 13.0839 16.998 13.0202C17.1512 12.9564 17.2903 12.863 17.4073 12.7453C17.5242 12.6276 17.6167 12.488 17.6795 12.3344C17.7423 12.1808 17.774 12.0163 17.773 11.8503V9.47266C17.773 9.39185 17.7409 9.31435 17.6837 9.25721C17.6266 9.20007 17.5491 9.16797 17.4683 9.16797C17.3875 9.16797 17.31 9.20007 17.2528 9.25721C17.1957 9.31435 17.1636 9.39185 17.1636 9.47266V11.8503C17.1644 11.9361 17.1481 12.0211 17.1159 12.1005C17.0836 12.1799 17.0359 12.2521 16.9756 12.313C16.9152 12.3739 16.8434 12.4222 16.7643 12.4552C16.6852 12.4881 16.6003 12.5051 16.5146 12.5051C16.4289 12.5051 16.344 12.4881 16.2649 12.4552C16.1858 12.4222 16.114 12.3739 16.0536 12.313C15.9933 12.2521 15.9456 12.1799 15.9133 12.1005C15.8811 12.0211 15.8648 11.9361 15.8656 11.8503V5.692C15.8656 5.62992 15.8466 5.56932 15.8112 5.51831C15.7758 5.46731 15.7257 5.42834 15.6675 5.40661C15.2064 5.23264 14.809 4.9226 14.528 4.5176C14.2471 4.1126 14.0959 3.63177 14.0945 3.13887C14.0932 2.77674 14.1737 2.419 14.3299 2.09232C14.4862 1.76563 14.7142 1.47843 14.9969 1.25214L14.9935 2.20901C14.9934 2.2582 15.0051 2.30669 15.0277 2.35035C15.0504 2.394 15.0833 2.43153 15.1236 2.45972L16.3474 3.31584C16.3976 3.35098 16.4573 3.37015 16.5186 3.37086C16.5798 3.37157 16.6399 3.35377 16.6909 3.3198L17.8988 2.51563C17.9405 2.48781 17.9748 2.45009 17.9985 2.40584C18.0222 2.36159 18.0346 2.31217 18.0346 2.26198V1.25402C18.3166 1.48037 18.544 1.76737 18.6998 2.09369C18.8557 2.42 18.936 2.77725 18.9348 3.13887C18.9334 3.63177 18.7822 4.1126 18.5012 4.5176C18.2203 4.9226 17.8229 5.23264 17.3617 5.40661C17.3036 5.42834 17.2534 5.46731 17.218 5.51831C17.1826 5.56932 17.1637 5.62992 17.1637 5.692V7.63844C17.1637 7.71925 17.1958 7.79675 17.2529 7.85389C17.31 7.91103 17.3875 7.94313 17.4683 7.94313C17.5492 7.94313 17.6267 7.91103 17.6838 7.85389C17.7409 7.79675 17.773 7.71925 17.773 7.63844V5.89527C18.2934 5.65751 18.7359 5.2773 19.0493 4.79861C19.3626 4.31992 19.5341 3.7623 19.5438 3.19025C19.5535 2.6182 19.4011 2.05507 19.1042 1.56601C18.8073 1.07694 18.378 0.681906 17.866 0.426592Z" fill="#1AD769" fill-opacity="0.79"/>
<path d="M17.4683 8.28954C17.3875 8.28954 17.31 8.32164 17.2529 8.37878C17.1957 8.43592 17.1636 8.51342 17.1636 8.59422V8.60372C17.1636 8.68453 17.1957 8.76203 17.2529 8.81917C17.31 8.87631 17.3875 8.90841 17.4683 8.90841C17.5491 8.90841 17.6266 8.87631 17.6838 8.81917C17.7409 8.76203 17.773 8.68453 17.773 8.60372V8.59422C17.773 8.51342 17.7409 8.43592 17.6838 8.37878C17.6266 8.32164 17.5491 8.28954 17.4683 8.28954Z" fill="#1AD769" fill-opacity="0.79"/>
<path d="M11.4689 9.27689V11.2854C11.4689 11.3662 11.501 11.4437 11.5581 11.5009C11.6153 11.558 11.6928 11.5901 11.7736 11.5901C11.8544 11.5901 11.9319 11.558 11.989 11.5009C12.0461 11.4437 12.0782 11.3662 12.0782 11.2854V9.27689C12.0782 9.19608 12.0461 9.11858 11.989 9.06144C11.9319 9.0043 11.8544 8.9722 11.7736 8.9722C11.6928 8.9722 11.6153 9.0043 11.5581 9.06144C11.501 9.11858 11.4689 9.19608 11.4689 9.27689Z" fill="#1AD769" fill-opacity="0.79"/>
</svg>
