<svg width="20" height="20" viewBox="0 0 20 20" fill="none" xmlns="http://www.w3.org/2000/svg">
<path d="M10.1222 0C9.83509 0 9.53574 0.009552 9.24615 0.0278235H8.8929C8.79721 0.0278235 8.70335 0.0482858 8.61344 0.0893418C6.39948 0.133509 4.50678 1.34157 3.66586 3.25105C2.84084 5.12408 3.23663 7.25172 3.606 8.68916C4.45504 11.9941 6.38625 15.5447 8.9588 18.5756C8.62659 18.5671 8.29507 18.5584 7.96702 18.5495C7.42501 18.5351 6.883 18.5208 6.34077 18.5079H6.31562C5.82921 18.5079 5.57056 18.8412 5.56679 19.1705C5.56267 19.5118 5.82356 19.8634 6.32994 19.8749C6.8716 19.8877 7.41296 19.9021 7.95453 19.9166C9.50077 19.9575 11.0996 20 12.6743 20C13.1268 20 13.5794 19.9969 14.0324 19.9889C14.5384 19.98 14.8002 19.6301 14.7969 19.2898C14.7941 18.9578 14.5344 18.6218 14.0246 18.6218C14.0246 18.6218 14.0244 18.6218 14.0242 18.6218C13.5743 18.6299 13.124 18.633 12.674 18.633C12.3089 18.633 11.9425 18.6303 11.5754 18.6263C14.3215 15.7016 16.2834 11.5001 16.7518 7.47041C16.9274 5.96277 16.8509 3.79964 15.491 2.05692C14.4264 0.692169 12.62 0 10.1222 0ZM15.2927 7.90919C14.7487 11.5459 12.8325 15.376 10.2729 17.9615C8.24591 15.6341 6.58018 12.8377 5.44901 9.86025C4.69375 7.87199 4.43532 6.21384 4.65926 4.79028C4.96598 2.84273 6.65287 1.48227 8.7618 1.48227C8.80352 1.48227 8.8451 1.48271 8.90618 1.48415C9.00507 1.48415 9.09897 1.46426 9.18573 1.42487H9.42269C9.46751 1.42487 9.51334 1.41987 9.56163 1.40962C9.74921 1.4016 9.93784 1.39731 10.1264 1.39731C12.1318 1.39731 13.5529 1.92473 14.4716 3.01019C15.3476 4.04523 15.624 5.69343 15.2927 7.90919Z" fill="#003050"/>
<path d="M10.0145 2.20427C9.97121 2.20427 9.92805 2.2047 9.89957 2.20615C7.83445 2.12338 6.32979 3.43823 6.19497 5.41637C6.04021 7.68129 8.086 9.36139 10.0938 9.50922C10.1824 9.51588 10.2718 9.51904 10.3608 9.51904C10.3608 9.51904 10.3608 9.51904 10.361 9.51904C12.3419 9.51904 14.2263 7.98415 14.4762 6.16707C14.6014 5.25552 14.3545 4.41437 13.7617 3.73447C12.9513 2.8049 11.4804 2.20427 10.0145 2.20427ZM12.9867 6.03795C12.8195 7.2546 11.3705 8.00785 10.1119 8.00785C8.64817 8.0015 7.7764 6.76951 7.77894 5.58204C7.78073 4.67547 8.3025 3.70669 9.76106 3.70669C9.78863 3.70669 9.81623 3.70691 9.84883 3.70779C9.8565 3.70822 9.8643 3.70844 9.87166 3.70822C9.91236 3.70713 9.95364 3.70643 9.99513 3.70643C10.8072 3.70643 11.9773 3.96065 12.6023 4.67744C12.9298 5.05291 13.0588 5.51092 12.9867 6.03795Z" fill="#1AD769"/>
</svg>
