<svg width="94" height="93" viewBox="0 0 94 93" fill="none" xmlns="http://www.w3.org/2000/svg">
<g filter="url(#filter0_d)">
<path d="M46.6978 36.6953C46.765 36.528 47.0018 36.528 47.069 36.6953L48.6168 40.5498C48.6454 40.621 48.7123 40.6696 48.7889 40.6748L52.933 40.9558C53.1129 40.968 53.186 41.1932 53.0477 41.3088L49.8602 43.972C49.8013 44.0212 49.7758 44.0998 49.7945 44.1742L50.8078 48.2023C50.8518 48.3772 50.6602 48.5164 50.5076 48.4205L46.9897 46.212C46.9247 46.1712 46.8421 46.1712 46.7771 46.212L43.2592 48.4205C43.1066 48.5164 42.915 48.3772 42.9589 48.2023L43.9723 44.1742C43.991 44.0998 43.9655 44.0212 43.9066 43.972L40.7191 41.3088C40.5807 41.1932 40.6539 40.968 40.8338 40.9558L44.9779 40.6748C45.0545 40.6696 45.1214 40.621 45.15 40.5498L46.6978 36.6953Z" fill="#1AD769" fill-opacity="0.79"/>
<g clip-path="url(#clip0)">
<path d="M50.5825 48.5031C50.5339 48.5031 50.486 48.4913 50.4431 48.4687L46.8834 46.5972L43.3237 48.4687C43.2228 48.5217 43.1004 48.513 43.0082 48.4459C42.9159 48.3788 42.8697 48.2652 42.8889 48.1529L43.5689 44.1892L40.689 41.382C40.6073 41.3024 40.578 41.1834 40.6132 41.0749C40.6484 40.9664 40.7421 40.8874 40.8551 40.871L44.8349 40.2928L46.6147 36.6863C46.6653 36.584 46.7694 36.5193 46.8834 36.5193C46.9974 36.5193 47.1015 36.584 47.152 36.6863L48.9319 40.2927L52.9117 40.8708C53.0245 40.8873 53.1183 40.9663 53.1536 41.0748C53.1888 41.1832 53.1595 41.3022 53.0778 41.3819L50.1979 44.1891L50.8777 48.1527C50.8927 48.2397 50.8685 48.329 50.8115 48.3965C50.7546 48.464 50.6708 48.5031 50.5825 48.5031ZM46.8834 45.959C46.932 45.959 46.9798 45.9708 47.0228 45.9934L50.1846 47.6557L49.5807 44.1351C49.5641 44.038 49.5963 43.9389 49.667 43.8699L52.2249 41.3766L48.69 40.863C48.5924 40.8488 48.508 40.7875 48.4644 40.699L46.8834 37.4958L45.3024 40.699C45.2588 40.7875 45.1745 40.8488 45.0769 40.863L41.5419 41.3766L44.0998 43.8699C44.1705 43.9389 44.2027 44.038 44.186 44.1351L43.5822 47.6558L46.744 45.9937C46.787 45.971 46.8348 45.9591 46.8834 45.959Z" fill="#003050"/>
</g>
</g>
<defs>
<filter id="filter0_d" x="0.598511" y="0.23291" width="92.5697" height="92.5697" filterUnits="userSpaceOnUse" color-interpolation-filters="sRGB">
<feFlood flood-opacity="0" result="BackgroundImageFix"/>
<feColorMatrix in="SourceAlpha" type="matrix" values="0 0 0 0 0 0 0 0 0 0 0 0 0 0 0 0 0 0 127 0"/>
<feOffset dy="4"/>
<feGaussianBlur stdDeviation="20"/>
<feColorMatrix type="matrix" values="0 0 0 0 0 0 0 0 0 0 0 0 0 0 0 0 0 0 0.15 0"/>
<feBlend mode="normal" in2="BackgroundImageFix" result="effect1_dropShadow"/>
<feBlend mode="normal" in="SourceGraphic" in2="effect1_dropShadow" result="shape"/>
</filter>
<clipPath id="clip0">
<rect x="40.5985" y="36.2329" width="12.5697" height="12.5697" rx="5" fill="white"/>
</clipPath>
</defs>
</svg>
