<svg width="18" height="17" viewBox="0 0 18 17" fill="none" xmlns="http://www.w3.org/2000/svg">
<path fill-rule="evenodd" clip-rule="evenodd" d="M11.6265 10.5079H11.031L10.824 10.2991C11.5552 9.4326 12 8.30929 12 7.07853C12 4.34266 9.8175 2.12501 7.125 2.12501C4.4325 2.12501 2.25 4.34266 2.25 7.07853C2.25 9.8144 4.4325 12.0321 7.125 12.0321C8.33625 12.0321 9.441 11.5809 10.2937 10.8386L10.5007 11.0474V11.651L14.2492 15.4546L15.3675 14.3183L11.6265 10.5079ZM7.125 10.5079C5.2605 10.5079 3.75 8.97305 3.75 7.07852C3.75 5.18474 5.2605 3.64915 7.125 3.64915C8.98875 3.64915 10.5 5.18474 10.5 7.07852C10.5 8.97305 8.98875 10.5079 7.125 10.5079Z" fill="#003050"/>
</svg>
