<svg width="179" height="55" viewBox="0 0 179 55" fill="none" xmlns="http://www.w3.org/2000/svg">
<path d="M179.9 20C179.9 9.00953 170.99 0.1 160 0.1H0.100006V55.9H179.9V20Z" fill="#003050" stroke="white" stroke-width="0.2"/>
<path d="M73.5498 33C73.4431 33 73.3524 32.9627 73.2778 32.888C73.2031 32.8133 73.1658 32.7227 73.1658 32.616V27.848C73.1658 26.3333 72.4084 25.576 70.8938 25.576H67.5818C67.4751 25.576 67.3844 25.5387 67.3098 25.464C67.2351 25.3893 67.1978 25.2987 67.1978 25.192V24.248C67.1978 24.1307 67.2351 24.04 67.3098 23.976C67.3844 23.9013 67.4751 23.864 67.5818 23.864H70.9738C73.8004 23.864 75.2138 25.1867 75.2138 27.832V32.616C75.2138 32.7227 75.1764 32.8133 75.1018 32.888C75.0378 32.9627 74.9471 33 74.8298 33H73.5498ZM67.5818 33C67.4751 33 67.3844 32.9627 67.3098 32.888C67.2351 32.8133 67.1978 32.7227 67.1978 32.616V27.592C67.1978 27.4747 67.2351 27.384 67.3098 27.32C67.3844 27.2453 67.4751 27.208 67.5818 27.208H68.8618C68.9791 27.208 69.0698 27.2453 69.1338 27.32C69.2084 27.384 69.2458 27.4747 69.2458 27.592V32.616C69.2458 32.7227 69.2084 32.8133 69.1338 32.888C69.0698 32.9627 68.9791 33 68.8618 33H67.5818ZM81.9859 33C81.8792 33 81.7885 32.9627 81.7139 32.888C81.6392 32.8133 81.6019 32.7227 81.6019 32.616V27.848C81.6019 26.3333 80.8392 25.576 79.3139 25.576H77.0739C76.9672 25.576 76.8765 25.5387 76.8019 25.464C76.7272 25.3893 76.6899 25.2987 76.6899 25.192V24.248C76.6899 24.1307 76.7272 24.04 76.8019 23.976C76.8765 23.9013 76.9672 23.864 77.0739 23.864H79.4099C80.8285 23.864 81.8899 24.184 82.5939 24.824C83.2979 25.4533 83.6499 26.4347 83.6499 27.768V32.616C83.6499 32.7227 83.6125 32.8133 83.5379 32.888C83.4739 32.9627 83.3832 33 83.2659 33H81.9859ZM86.0483 29.256C85.9416 29.256 85.8509 29.2187 85.7763 29.144C85.7016 29.0693 85.6643 28.9787 85.6643 28.872V24.248C85.6643 24.1307 85.7016 24.04 85.7763 23.976C85.8509 23.9013 85.9416 23.864 86.0483 23.864H87.4083C87.5149 23.864 87.6056 23.9013 87.6803 23.976C87.7549 24.0507 87.7923 24.1413 87.7923 24.248V28.872C87.7923 28.9787 87.7549 29.0693 87.6803 29.144C87.6056 29.2187 87.5149 29.256 87.4083 29.256H86.0483ZM96.7009 23.864C96.8182 23.864 96.9089 23.9013 96.9729 23.976C97.0475 24.04 97.0849 24.1307 97.0849 24.248V25.192C97.0849 25.2987 97.0475 25.3893 96.9729 25.464C96.9089 25.5387 96.8182 25.576 96.7009 25.576H95.8529C95.7142 25.7573 95.6075 26.0187 95.5329 26.36C95.4582 26.7013 95.4209 27.08 95.4209 27.496V32.648C95.4209 32.744 95.3729 32.8293 95.2769 32.904C95.1915 32.968 95.0955 33 94.9889 33H93.7249C93.6182 33 93.5329 32.968 93.4689 32.904C93.4049 32.84 93.3729 32.7547 93.3729 32.648V27.352C93.3729 26.4987 93.4955 25.9067 93.7409 25.576H89.7089C89.6022 25.576 89.5115 25.5387 89.4369 25.464C89.3622 25.3893 89.3249 25.2987 89.3249 25.192V24.248C89.3249 24.1307 89.3622 24.04 89.4369 23.976C89.5115 23.9013 89.6022 23.864 89.7089 23.864H96.7009ZM111.749 23.864C111.866 23.864 111.957 23.9013 112.021 23.976C112.095 24.04 112.133 24.1307 112.133 24.248V28.568C112.133 29.4853 111.93 30.2907 111.525 30.984C111.13 31.6773 110.581 32.2107 109.877 32.584C109.183 32.9467 108.399 33.1227 107.525 33.112H106.165C105.386 33.112 104.698 32.952 104.101 32.632C103.514 32.3013 103.055 31.848 102.725 31.272C102.405 30.696 102.245 30.0507 102.245 29.336V24.248C102.245 24.1307 102.282 24.04 102.357 23.976C102.431 23.9013 102.522 23.864 102.629 23.864H103.781C103.887 23.864 103.978 23.9013 104.053 23.976C104.127 24.0507 104.165 24.1413 104.165 24.248L104.197 28.44C104.965 28.376 105.503 28.1413 105.813 27.736C106.122 27.32 106.277 26.744 106.277 26.008V24.264C106.277 24.1467 106.314 24.0507 106.389 23.976C106.463 23.9013 106.554 23.864 106.661 23.864H107.813C107.919 23.864 108.01 23.9013 108.085 23.976C108.159 24.0507 108.197 24.1467 108.197 24.264V26.056C108.197 27.176 107.871 28.0827 107.221 28.776C106.581 29.4587 105.653 29.8427 104.437 29.928C104.639 30.408 104.938 30.776 105.333 31.032C105.738 31.2773 106.207 31.4 106.741 31.4H107.189C107.797 31.4107 108.33 31.2933 108.789 31.048C109.247 30.8027 109.599 30.456 109.845 30.008C110.09 29.56 110.213 29.048 110.213 28.472V24.248C110.213 24.1413 110.25 24.0507 110.325 23.976C110.399 23.9013 110.495 23.864 110.613 23.864H111.749ZM114.629 33C114.522 33 114.431 32.9627 114.357 32.888C114.282 32.8133 114.245 32.7227 114.245 32.616V24.248C114.245 24.1307 114.282 24.04 114.357 23.976C114.431 23.9013 114.522 23.864 114.629 23.864H115.973C116.09 23.864 116.181 23.9013 116.245 23.976C116.319 24.04 116.357 24.1307 116.357 24.248V32.616C116.357 32.7227 116.319 32.8133 116.245 32.888C116.181 32.9627 116.09 33 115.973 33H114.629ZM120.221 26.568C120.232 26.888 120.274 27.144 120.349 27.336C120.434 27.5173 120.568 27.6347 120.749 27.688L121.261 27.832C121.346 27.864 121.41 27.928 121.453 28.024C121.506 28.1093 121.533 28.2107 121.533 28.328L121.549 28.92C121.549 29.0587 121.485 29.1653 121.357 29.24C121.229 29.3147 121.08 29.3413 120.909 29.32L120.253 29.192C119.72 29.1067 119.293 28.824 118.973 28.344C118.653 27.8533 118.493 27.2187 118.493 26.44V24.248C118.504 24.1307 118.541 24.04 118.605 23.976C118.68 23.9013 118.77 23.864 118.877 23.864H121.965C123.256 23.864 124.226 24.216 124.877 24.92C125.528 25.624 125.874 26.616 125.917 27.896C125.928 28.0027 125.933 28.1787 125.933 28.424C125.933 28.68 125.928 28.8613 125.917 28.968C125.874 30.248 125.528 31.24 124.877 31.944C124.226 32.648 123.256 33 121.965 33H119.069C118.962 33 118.872 32.9627 118.797 32.888C118.722 32.8133 118.685 32.7227 118.685 32.616V31.608C118.685 31.5013 118.722 31.4107 118.797 31.336C118.872 31.2613 118.962 31.224 119.069 31.224H121.885C122.536 31.224 123.048 31.0267 123.421 30.632C123.794 30.2267 123.997 29.6613 124.029 28.936C124.04 28.8293 124.045 28.6587 124.045 28.424C124.045 28.2 124.04 28.0347 124.029 27.928C124.008 27.2027 123.805 26.6427 123.421 26.248C123.048 25.8427 122.536 25.64 121.885 25.64H120.221V26.568ZM128.08 29.256C127.973 29.256 127.882 29.2187 127.808 29.144C127.733 29.0693 127.696 28.9787 127.696 28.872V24.248C127.696 24.1307 127.733 24.04 127.808 23.976C127.882 23.9013 127.973 23.864 128.08 23.864H129.44C129.546 23.864 129.637 23.9013 129.712 23.976C129.786 24.0507 129.824 24.1413 129.824 24.248V28.872C129.824 28.9787 129.786 29.0693 129.712 29.144C129.637 29.2187 129.546 29.256 129.44 29.256H128.08ZM132.316 33C132.209 33 132.119 32.9627 132.044 32.888C131.969 32.8133 131.932 32.7227 131.932 32.616V24.248C131.932 24.1307 131.969 24.04 132.044 23.976C132.119 23.9013 132.209 23.864 132.316 23.864H135.74C137.18 23.864 138.247 24.184 138.94 24.824C139.644 25.464 139.996 26.4667 139.996 27.832V32.616C139.996 32.7227 139.959 32.8133 139.884 32.888C139.82 32.9627 139.729 33 139.612 33H138.332C138.225 33 138.135 32.9627 138.06 32.888C137.985 32.8133 137.948 32.7227 137.948 32.616V27.848C137.948 26.3333 137.185 25.576 135.66 25.576H133.98V32.616C133.98 32.7227 133.943 32.8133 133.868 32.888C133.804 32.9627 133.713 33 133.596 33H132.316Z" fill="white"/>
<g clip-path="url(#clip0)">
<path d="M56.768 35.6486L54.7572 33.6378C55.172 33.0116 55.4167 32.2635 55.4167 31.4583C55.4167 29.2757 53.641 27.5 51.4583 27.5C49.2757 27.5 47.5 29.2757 47.5 31.4583C47.5 33.641 49.2757 35.4167 51.4583 35.4167C52.2635 35.4167 53.0116 35.172 53.6378 34.7572L55.6486 36.768C55.9582 37.0776 56.4585 37.0776 56.768 36.768C57.0776 36.4585 57.0776 35.9582 56.768 35.6486ZM51.4583 33.8333C50.1489 33.8333 49.0833 32.7677 49.0833 31.4583C49.0833 30.1489 50.1489 29.0833 51.4583 29.0833C52.7677 29.0833 53.8333 30.1489 53.8333 31.4583C53.8333 32.7677 52.7677 33.8333 51.4583 33.8333Z" fill="#1AD769"/>
<path d="M54.268 25.4638L51.4583 22.7168V19.5833C51.4583 19.1463 51.1045 18.7917 50.6667 18.7917C50.2289 18.7917 49.875 19.1463 49.875 19.5833V21.1683L46.8659 18.2256C46.5579 17.9248 46.0663 17.9248 45.7591 18.2256L38.357 25.4638C38.1267 25.6887 38 25.9903 38 26.3125C38 26.9672 38.5328 27.5 39.1875 27.5H40.375V31.8542C40.375 32.9451 41.2625 33.8333 42.3542 33.8333H45.125C45.5628 33.8333 45.9167 33.4787 45.9167 33.0417C45.9167 32.6047 45.5628 32.25 45.125 32.25H42.3542C42.1365 32.25 41.9583 32.0727 41.9583 31.8542V26.7083C41.9583 26.2713 41.6045 25.9167 41.1667 25.9167H40.1589L46.3125 19.8984L53.1604 26.5951C53.4739 26.9023 53.9758 26.8952 54.2798 26.5825C54.5862 26.2705 54.5799 25.7694 54.268 25.4638Z" fill="white"/>
</g>
<defs>
<clipPath id="clip0">
<rect width="19" height="19" fill="white" transform="translate(38 18)"/>
</clipPath>
</defs>
</svg>
