<svg width="179" height="56" viewBox="0 0 179 56" fill="none" xmlns="http://www.w3.org/2000/svg">
<path d="M179.9 20C179.9 9.00953 170.99 0.1 160 0.1H0.100006V55.9H179.9V20Z" fill="#003050" stroke="white" stroke-width="0.2"/>
<path d="M75.731 33C75.6243 33 75.539 32.968 75.475 32.904C75.411 32.84 75.379 32.7547 75.379 32.648V27.848C75.379 25.8107 74.3603 24.792 72.323 24.792H69.571C69.4643 24.792 69.379 24.76 69.315 24.696C69.251 24.632 69.219 24.5467 69.219 24.44V24.216C69.219 24.1093 69.251 24.024 69.315 23.96C69.379 23.896 69.4643 23.864 69.571 23.864H72.403C73.7363 23.864 74.7283 24.2 75.379 24.872C76.0297 25.5333 76.355 26.4987 76.355 27.768V32.648C76.355 32.7547 76.323 32.84 76.259 32.904C76.195 32.968 76.1097 33 76.003 33H75.731ZM69.571 33C69.4643 33 69.379 32.968 69.315 32.904C69.251 32.84 69.219 32.7547 69.219 32.648V27.032C69.219 26.9253 69.251 26.84 69.315 26.776C69.379 26.712 69.4643 26.68 69.571 26.68H69.843C69.9497 26.68 70.035 26.712 70.099 26.776C70.163 26.84 70.195 26.9253 70.195 27.032V32.648C70.195 32.7547 70.163 32.84 70.099 32.904C70.035 32.968 69.9497 33 69.843 33H69.571ZM83.8751 33C83.7685 33 83.6831 32.968 83.6191 32.904C83.5551 32.84 83.5231 32.7547 83.5231 32.648V27.848C83.5231 25.8107 82.5045 24.792 80.4671 24.792H78.5151C78.4085 24.792 78.3231 24.76 78.2591 24.696C78.1951 24.632 78.1631 24.5467 78.1631 24.44V24.216C78.1631 24.1093 78.1951 24.024 78.2591 23.96C78.3231 23.896 78.4085 23.864 78.5151 23.864H80.5471C81.8805 23.864 82.8725 24.2 83.5231 24.872C84.1738 25.5333 84.4991 26.4987 84.4991 27.768V32.648C84.4991 32.7547 84.4671 32.84 84.4031 32.904C84.3391 32.968 84.2538 33 84.1471 33H83.8751ZM87.318 29.32C87.2113 29.32 87.126 29.288 87.062 29.224C86.998 29.16 86.966 29.0747 86.966 28.968V24.216C86.966 24.1093 86.998 24.024 87.062 23.96C87.126 23.896 87.2113 23.864 87.318 23.864H87.59C87.6967 23.864 87.782 23.896 87.846 23.96C87.91 24.024 87.942 24.1093 87.942 24.216V28.968C87.942 29.0747 87.91 29.16 87.846 29.224C87.782 29.288 87.6967 29.32 87.59 29.32H87.318ZM96.9003 23.864C97.0069 23.864 97.0923 23.896 97.1562 23.96C97.2203 24.024 97.2523 24.1093 97.2523 24.216V24.44C97.2523 24.5467 97.2203 24.632 97.1562 24.696C97.0923 24.76 97.0069 24.792 96.9003 24.792H95.8763C95.7056 24.9413 95.5723 25.1867 95.4763 25.528C95.3909 25.8587 95.3483 26.2427 95.3483 26.68V32.648C95.3483 32.7547 95.3163 32.84 95.2523 32.904C95.1883 32.968 95.1029 33 94.9963 33H94.7243C94.6176 33 94.5323 32.968 94.4683 32.904C94.4043 32.84 94.3723 32.7547 94.3723 32.648V26.6C94.3723 26.184 94.4096 25.816 94.4843 25.496C94.5696 25.176 94.6763 24.9413 94.8043 24.792H90.1483C90.0416 24.792 89.9563 24.76 89.8923 24.696C89.8283 24.632 89.7963 24.5467 89.7963 24.44V24.216C89.7963 24.1093 89.8283 24.024 89.8923 23.96C89.9563 23.896 90.0416 23.864 90.1483 23.864H96.9003ZM111.573 23.864C111.68 23.864 111.765 23.896 111.829 23.96C111.893 24.024 111.925 24.1093 111.925 24.216V28.76C111.925 29.6453 111.749 30.4187 111.397 31.08C111.045 31.7413 110.549 32.248 109.909 32.6C109.269 32.9413 108.522 33.1013 107.669 33.08H106.597C105.968 33.08 105.386 32.9253 104.853 32.616C104.33 32.296 103.914 31.8427 103.605 31.256C103.296 30.6693 103.141 29.9867 103.141 29.208V24.216C103.141 24.1093 103.173 24.024 103.237 23.96C103.301 23.896 103.386 23.864 103.493 23.864H103.765C103.872 23.864 103.957 23.896 104.021 23.96C104.085 24.024 104.117 24.1093 104.117 24.216L104.181 29C105.269 28.9253 106.032 28.6587 106.469 28.2C106.906 27.7307 107.125 27.128 107.125 26.392V24.216C107.125 24.1093 107.157 24.024 107.221 23.96C107.285 23.896 107.37 23.864 107.477 23.864H107.749C107.856 23.864 107.941 23.896 108.005 23.96C108.069 24.024 108.101 24.1093 108.101 24.216V26.472C108.101 27.4213 107.776 28.2213 107.125 28.872C106.474 29.512 105.514 29.864 104.245 29.928C104.362 30.632 104.672 31.176 105.173 31.56C105.674 31.944 106.298 32.136 107.045 32.136H107.605C108.682 32.1573 109.509 31.8533 110.085 31.224C110.661 30.584 110.949 29.7253 110.949 28.648V24.216C110.949 24.1093 110.981 24.024 111.045 23.96C111.109 23.896 111.194 23.864 111.301 23.864H111.573ZM114.868 33C114.761 33 114.676 32.968 114.612 32.904C114.548 32.84 114.516 32.7547 114.516 32.648V24.216C114.516 24.1093 114.548 24.024 114.612 23.96C114.676 23.896 114.761 23.864 114.868 23.864H115.14C115.247 23.864 115.332 23.896 115.396 23.96C115.46 24.024 115.492 24.1093 115.492 24.216V32.648C115.492 32.7547 115.46 32.84 115.396 32.904C115.332 32.968 115.247 33 115.14 33H114.868ZM119.164 26.312C119.164 26.8133 119.217 27.208 119.324 27.496C119.431 27.7733 119.617 27.944 119.884 28.008L120.54 28.168C120.721 28.2213 120.812 28.392 120.812 28.68V28.904C120.812 28.9893 120.775 29.0533 120.7 29.096C120.636 29.1387 120.551 29.16 120.444 29.16C120.391 29.16 120.348 29.1547 120.316 29.144L119.708 29C119.196 28.8827 118.817 28.6053 118.572 28.168C118.327 27.7307 118.204 27.112 118.204 26.312V24.216C118.204 24.1093 118.236 24.024 118.3 23.96C118.364 23.896 118.449 23.864 118.556 23.864H121.42C122.519 23.864 123.356 24.2053 123.932 24.888C124.519 25.56 124.828 26.52 124.86 27.768C124.871 27.8747 124.876 28.0933 124.876 28.424C124.876 28.7653 124.871 28.9893 124.86 29.096C124.828 30.344 124.519 31.3093 123.932 31.992C123.356 32.664 122.519 33 121.42 33H118.764C118.657 33 118.572 32.968 118.508 32.904C118.444 32.84 118.412 32.7547 118.412 32.648V32.424C118.412 32.3173 118.444 32.232 118.508 32.168C118.572 32.104 118.657 32.072 118.764 32.072H121.34C122.151 32.072 122.764 31.8107 123.18 31.288C123.607 30.7547 123.841 29.9973 123.884 29.016C123.895 28.9093 123.9 28.712 123.9 28.424C123.9 28.1467 123.895 27.9547 123.884 27.848C123.863 26.8773 123.633 26.1253 123.196 25.592C122.769 25.0587 122.151 24.792 121.34 24.792H119.164V26.312ZM127.412 29.32C127.305 29.32 127.22 29.288 127.156 29.224C127.092 29.16 127.06 29.0747 127.06 28.968V24.216C127.06 24.1093 127.092 24.024 127.156 23.96C127.22 23.896 127.305 23.864 127.412 23.864H127.684C127.79 23.864 127.876 23.896 127.94 23.96C128.004 24.024 128.036 24.1093 128.036 24.216V28.968C128.036 29.0747 128.004 29.16 127.94 29.224C127.876 29.288 127.79 29.32 127.684 29.32H127.412ZM130.946 33C130.839 33 130.754 32.968 130.69 32.904C130.626 32.84 130.594 32.7547 130.594 32.648V24.216C130.594 24.1093 130.626 24.024 130.69 23.96C130.754 23.896 130.839 23.864 130.946 23.864H133.794C135.127 23.864 136.119 24.2 136.77 24.872C137.421 25.5333 137.746 26.4987 137.746 27.768V32.648C137.746 32.7547 137.714 32.84 137.65 32.904C137.586 32.968 137.501 33 137.394 33H137.122C137.015 33 136.93 32.968 136.866 32.904C136.802 32.84 136.77 32.7547 136.77 32.648V27.848C136.77 25.8107 135.751 24.792 133.714 24.792H131.57V32.648C131.57 32.7547 131.538 32.84 131.474 32.904C131.41 32.968 131.325 33 131.218 33H130.946Z" fill="white" fill-opacity="0.75"/>
<g opacity="0.6" clip-path="url(#clip0)">
<path d="M56.768 35.6486L54.7572 33.6378C55.172 33.0116 55.4167 32.2635 55.4167 31.4583C55.4167 29.2757 53.641 27.5 51.4583 27.5C49.2757 27.5 47.5 29.2757 47.5 31.4583C47.5 33.641 49.2757 35.4167 51.4583 35.4167C52.2635 35.4167 53.0116 35.172 53.6378 34.7572L55.6486 36.768C55.9582 37.0776 56.4585 37.0776 56.768 36.768C57.0776 36.4585 57.0776 35.9582 56.768 35.6486ZM51.4583 33.8333C50.1489 33.8333 49.0833 32.7677 49.0833 31.4583C49.0833 30.1489 50.1489 29.0833 51.4583 29.0833C52.7677 29.0833 53.8333 30.1489 53.8333 31.4583C53.8333 32.7677 52.7677 33.8333 51.4583 33.8333Z" fill="#1AD769"/>
<path d="M54.268 25.4638L51.4583 22.7168V19.5833C51.4583 19.1463 51.1045 18.7917 50.6667 18.7917C50.2289 18.7917 49.875 19.1463 49.875 19.5833V21.1683L46.8659 18.2256C46.5579 17.9248 46.0663 17.9248 45.7591 18.2256L38.357 25.4638C38.1267 25.6887 38 25.9903 38 26.3125C38 26.9672 38.5328 27.5 39.1875 27.5H40.375V31.8542C40.375 32.9451 41.2625 33.8333 42.3542 33.8333H45.125C45.5628 33.8333 45.9167 33.4787 45.9167 33.0417C45.9167 32.6047 45.5628 32.25 45.125 32.25H42.3542C42.1365 32.25 41.9583 32.0727 41.9583 31.8542V26.7083C41.9583 26.2713 41.6045 25.9167 41.1667 25.9167H40.1589L46.3125 19.8984L53.1604 26.5951C53.4739 26.9023 53.9758 26.8952 54.2798 26.5825C54.5862 26.2705 54.5799 25.7694 54.268 25.4638Z" fill="white"/>
</g>
<defs>
<clipPath id="clip0">
<rect width="19" height="19" fill="white" transform="translate(38 18)"/>
</clipPath>
</defs>
</svg>
