<svg width="23" height="21" viewBox="0 0 23 21" fill="none" xmlns="http://www.w3.org/2000/svg">
<path d="M11.3144 0.46217C11.3816 0.294876 11.6184 0.294876 11.6856 0.46217L14.4274 7.28986C14.456 7.3611 14.5229 7.40967 14.5995 7.41487L21.9402 7.91261C22.1201 7.92481 22.1933 8.15004 22.055 8.26563L16.4087 12.9831C16.3498 13.0323 16.3242 13.1109 16.343 13.1854L18.138 20.3207C18.182 20.4955 17.9904 20.6347 17.8377 20.5389L11.6063 16.6268C11.5413 16.5859 11.4587 16.5859 11.3937 16.6268L5.16227 20.5389C5.00959 20.6347 4.81799 20.4955 4.86198 20.3207L6.65702 13.1854C6.67575 13.1109 6.65021 13.0323 6.5913 12.9831L0.945047 8.26563C0.806702 8.15004 0.879886 7.92481 1.05975 7.91261L8.40053 7.41487C8.47713 7.40967 8.54399 7.3611 8.5726 7.28986L11.3144 0.46217Z" fill="#1AD769" fill-opacity="0.79"/>
</svg>
