<svg width="21" height="21" viewBox="0 0 21 21" fill="none" xmlns="http://www.w3.org/2000/svg">
<path d="M16.68 20.4995C16.5989 20.4995 16.5189 20.4798 16.4471 20.442L10.5 17.3153L4.55288 20.442C4.38434 20.5306 4.17983 20.5159 4.02576 20.4039C3.87149 20.2919 3.79446 20.102 3.82652 19.9143L4.9625 13.2923L0.151137 8.60232C0.0146645 8.46937 -0.0344111 8.27053 0.0244405 8.08928C0.083292 7.90803 0.239904 7.77606 0.42858 7.74868L7.07763 6.78262L10.0511 0.757278C10.1356 0.586394 10.3096 0.478271 10.5 0.478271C10.6905 0.478271 10.8645 0.586394 10.9487 0.757278L13.9224 6.78242L20.5714 7.74829C20.7599 7.77586 20.9165 7.90784 20.9756 8.08908C21.0344 8.27013 20.9854 8.46898 20.8489 8.60213L16.0375 13.2921L17.1733 19.9141C17.1983 20.0594 17.1579 20.2086 17.0626 20.3214C16.9676 20.4342 16.8276 20.4995 16.68 20.4995ZM10.5 16.2491C10.5812 16.2491 10.6611 16.2689 10.7329 16.3066L16.0152 19.0838L15.0064 13.2019C14.9786 13.0397 15.0324 12.874 15.1505 12.7589L19.4239 8.59333L13.5183 7.73519C13.3552 7.71153 13.2142 7.60908 13.1413 7.46127L10.5 2.10969L7.85873 7.46127C7.7858 7.60908 7.64503 7.71153 7.48197 7.73519L1.57609 8.59333L5.84957 12.7589C5.96766 12.874 6.02143 13.0397 5.99347 13.2019L4.98478 19.084L10.2671 16.307C10.3389 16.2691 10.4189 16.2493 10.5 16.2491Z" fill="#003050"/>
</svg>
