<svg width="19" height="20" viewBox="0 0 19 20" fill="none" xmlns="http://www.w3.org/2000/svg">
<circle cx="9.26769" cy="9.26769" r="9.26769" fill="#1AD769"/>
<g clip-path="url(#clip0)">
<path d="M8.45194 13.0985C8.45187 13.2708 8.59486 13.4106 8.77132 13.4107L9.18028 13.4108C9.11088 13.2102 9.08592 12.9975 9.10705 12.7868L8.77158 12.7866C8.59512 12.7866 8.45201 12.9262 8.45194 13.0985Z" fill="#FFFEFE"/>
<path d="M10.9877 2.51305C10.739 2.46116 10.4794 2.5079 10.266 2.64299C10.0527 2.77808 9.903 2.99045 9.85 3.23333L8.92748 8.96149C8.88605 9.17949 8.69458 9.33977 8.46765 9.34644C8.24071 9.35311 8.03971 9.20435 7.98493 8.98919L6.85916 3.92165C6.80899 3.58285 6.57345 3.29782 6.24494 3.17838C5.91643 3.05894 5.54735 3.12415 5.28253 3.34842C5.0177 3.57269 4.89937 3.92025 4.97395 4.25473L6.04194 9.97747C6.12432 10.4132 6.11871 10.8605 6.02542 11.2941C6.35228 10.9794 6.70153 10.6876 7.07056 10.4209C7.45449 10.1352 7.92354 9.9798 8.40627 9.97844L10.5406 9.97931L11.7253 3.62724C11.7794 3.38392 11.732 3.12959 11.5936 2.92049C11.4552 2.7114 11.2371 2.56477 10.9877 2.51305Z" fill="#FFFEFE"/>
<path d="M11.4197 14.0733C11.2529 14.1912 11.064 14.2759 10.8637 14.3227C10.907 14.3907 10.9454 14.4616 10.9786 14.5349C11.0216 14.6311 11.0122 14.7418 10.9536 14.8297C10.895 14.9177 10.7951 14.971 10.6877 14.9716C10.5614 14.9707 10.4475 14.8973 10.397 14.7843C10.1933 14.3279 9.73136 14.0334 9.22157 14.035L8.77107 14.0348C8.2417 14.0346 7.81273 13.6153 7.81294 13.0984C7.81316 12.5814 8.24247 12.1625 8.77184 12.1627L9.73035 12.1631C10.4362 12.1634 11.0086 11.6049 11.0089 10.9156L11.009 10.6036L8.40505 10.6025C8.05939 10.6024 7.72302 10.7117 7.44641 10.9141C6.19358 11.8247 4.93737 13.1814 4.93674 14.729C4.93552 15.4263 5.15878 16.1064 5.57495 16.6731L7.17158 18.8266C7.41413 19.1556 7.52738 19.5587 7.49062 19.9625L12.9222 19.9647C12.9225 19.116 12.8362 19.3407 14.243 17.0043C14.613 16.2745 14.8171 15.4753 14.8414 14.6613L14.842 13.2198L14.0971 14.3771C13.8033 14.8711 13.2376 15.1479 12.6565 15.082C12.0754 15.0161 11.5897 14.6199 11.4197 14.0733Z" fill="#FFFEFE"/>
<path d="M9.7461 12.7871C9.68742 13.0487 9.76918 13.3215 9.96305 13.511C10.1569 13.7005 10.4362 13.7806 10.7042 13.7235C11.1675 13.6238 11.3434 13.2713 11.5832 12.872C12.8876 10.8383 12.8397 10.9194 12.8621 10.857C13.1556 10.4546 13.0601 9.89614 12.6485 9.60884C12.4413 9.49556 12.1962 9.46805 11.968 9.53244C11.7399 9.59684 11.5476 9.74778 11.4342 9.95156L11.3479 10.0857C11.5313 10.1977 11.6442 10.3926 11.648 10.6037L11.6479 10.9158C11.6475 11.9436 10.7986 12.7789 9.7461 12.7871Z" fill="#FFFEFE"/>
<path d="M14.7792 10.6051C14.3644 10.3741 13.8364 10.5132 13.5969 10.9166C13.4115 11.2098 13.7248 10.692 12.1294 13.2062C12.0036 13.3999 11.9621 13.6346 12.0141 13.8583C12.0978 14.187 12.3812 14.4308 12.7257 14.4705C13.0703 14.5102 13.4039 14.3375 13.5637 14.0367L15.0343 11.7565C15.2894 11.3698 15.1752 10.8543 14.7792 10.6051Z" fill="#FFFEFE"/>
</g>
<defs>
<clipPath id="clip0">
<rect width="17.8923" height="17.4727" fill="white" transform="translate(1.1077 2.48718) rotate(0.0235165)"/>
</clipPath>
</defs>
</svg>
